<svg xmlns="http://www.w3.org/2000/svg" width="1186.265" height="249.803" fill="#1b3d6d"><path d="M312 83.803h9l.699 3.297c3.277 14.97 7.822 29.852 19.301 40.703l.813-3.687L346 105.803h2l.672 2.621c8.393 29.71 26.012 57.783 44.328 82.379l-.564-1.958c-2.027-7.208-3.625-14.445-5.061-21.792l-.656-3.285c-2.879-14.554-2.879-14.554-2.781-20.902l.027-2.34.035-1.723c1.833 2.75 3.274 5.528 4.715 8.496 5.505 11.321 11.673 20.24 20.285 29.504l1-14c2.585 1.292 2.689 2.289 3.75 4.938 6.118 14.105 15.672 25.243 28.25 34.063l-2 1c-2.164-.777-2.164-.777-4.625-1.937l-2.477-1.152-1.898-.91c8.629 12.707 20.429 24.815 36 28v1c-6.64 1.224-13.202 1.112-19.937 1.063l-3.518-.014-8.545-.049 2.2 1.054 9.925 4.759 3.461 1.658 3.359 1.611 3.079 1.476 8.976 4.442v1c-46.125.676-82.106-3.743-118-35l-1.52-1.301c-10.403-8.938-20.447-19.192-21.855-33.512.167-3.27.783-6.408 1.375-9.625 4.129-25.519.73-53.104-12.898-75.363C312 87.803 312 87.803 312 83.803zm-75-82c25.017 2.037 48.502 13.308 69.462 26.427l10.296 6.184c9.287 5.504 18.367 11.242 27.242 17.389l1.819 1.257c11.736 8.149 22.682 17.041 33.181 26.743l1.828 1.594c14.91 13.656 24.648 35.71 33.172 53.656 6.291 13.154 15.159 25.204 24 36.75l-1 2c-12.587-14.009-22.284-30.099-32.062-46.125C381.52 89.307 359.7 64.548 318 46.803l1.68 1.426 2.195 1.887 2.18 1.863c2.36 2.213 3.789 3.978 4.383 7.199-.662 3.975-2.274 5.158-5.437 7.625-15.975 9.148-38.757 9.281-56.615 11.43-21.984 1.566-21.984 1.566-40.068 12.543-4.041 5.713-8.316 12.881-8.316 20.027 6.169-2.185 10.273-5.519 15-10l1 2c-.563 1.627-1.202 3.228-1.875 4.813-3.696 9.84-4.4 19.449-.125 29.187 2.486 4.616 5.573 7.57 9.609 10.801l1.391 1.199v1c-7.935-.6-15.72-1.663-23.562-3l-3.268-.539c-7.909-1.331-7.909-1.331-10.17-2.461v2l2.212.32 10.1 1.493 3.479.502c13.708 2.058 22.073 3.786 31.209 14.686l2.027 2.305c2.206 2.811 3.958 5.118 3.992 8.777-.457 2.23-.457 2.23-1.187 4.773-.863 3.261-1.322 6.427-1.754 9.766-1.169 8.915-2.903 17.64-5.016 26.378l-.729 3.129-.735 2.933-.64 2.598c-1.423 3.479-3.606 5.664-6.957 7.34l-1.062 3c-1.937 3-1.937 3-3.733 3.514-6.746.549-13.42.523-20.183.359l-2.572-.033-2.302-.051c-2.448.241-3.985 1.077-6.147 2.211-3.016.195-3.016.195-6.25.125l-3.266-.055-2.484-.07c.839-5.054 2.332-8.389 6-12 3.222-1.966 6.545-3.496 10-5a257.75 257.75 0 0 0-2.629-21.547l-.947-6.004-1.488-9.238c-4.562-27.761-7.383-66.355 9.064-91.211 3.722-4.868 8.663-8.39 13.563-12l1.584-1.186C242.46 72.139 255.8 68.885 271.63 65.99l6.008-1.154c8.688-1.664 17.364-3.304 26.138-4.45 2.618-.685 4.183-1.844 6.229-3.583.079-3.175-.462-5.315-2.437-7.828-17.334-16.656-44.661-25.46-66.562-34.172 3.93-1.31 6.336-.106 10.063 1.246l2.121.747L260 19.24l4.65 1.659c10.946 3.928 21.736 8.142 32.35 12.903-4.22-10.727-12.652-14.339-22.863-18.906C262.177 9.83 249.494 6.306 237 2.802v-1zm-43.562-.313l3.416.539C232.828 7.927 232.828 7.927 242 16.803c1.459 2.918 1.368 4.747 1 8-4.9 9.989-16.891 14.904-26.316 19.942-18.981 10.164-38.972 22.899-46.758 43.964-.971 3.246-1.583 6.446-2.176 9.781-2.493 11.772-8.118 20.973-18.039 27.914-1.879 1.188-3.766 2.323-5.711 3.398 1.273 1.565 1.273 1.565 3 3 3.625.25 3.625.25 7 0 3.262 11.081 2.169 24.211 2.125 35.688l-.006 2.24c-.128 43.081-.128 43.081-6.119 49.072-1.457-4.142-2.543-8.211-3.402-12.516l-.754-3.764-.387-1.965-1.213-6.094c-1.271-6.391-2.461-12.777-3.377-19.23-3.355-23.36-15.531-43.406-28.867-62.431l-1.727-2.578c-7.468-10.521-19.59-17.53-30.273-24.421 3.907-1.302 5.557-.347 9.438.938 8.4 2.522 15.998 2.967 24.563 1.063l2-6h1l.227 2.422c1.327 11.085 5.053 20.404 12.773 28.578 8.823-1.985 14.352-8.825 19.246-15.996a62.85 62.85 0 0 0 3.477-6.852c4.392-10.035 8.887-15.192 18.211-20.87 3.862-2.397 7.575-5.016 11.316-7.595l4.863-3.324c23.942-14.544 23.942-14.544 39.949-35.926.334-3.517.334-3.517-2.121-5.492-15.76-10.423-39.366-10.49-57.566-10.32l-2.619.011c-18.579.092-36.713 1.697-54.865 5.813-2.714.517-5.137.658-7.891.551 5.225-2.86 11.009-3.944 16.75-5.375l3.77-.94c23.362-5.689 46.965-9.838 70.918-5.998z"/><path d="M125 142.803c7.864 7.109 13.763 18.818 15.074 29.355-.332 11.815-7.862 22.059-16.055 30.012-2.392 1.934-4.924 3.399-7.582 4.945-5.852 3.575-8.495 7.604-11.437 13.688l-1.246 2.418c-.945 1.847-1.854 3.713-2.754 5.582h-1c-.173-3.983.025-7.322 1-11.187 1.174-5.259.999-10.277.875-15.625-.224-15.149 4.871-30.013 14.896-41.556 2.285-3.034 3.61-6.511 5.041-10.007l.943-2.23 2.244-5.395zm86-111l2 1c-20.322 16.357-45.118 30.453-70.5 37-5.134 1.377-8.136 2.886-11.859 6.609-6.416 5.439-16.865 5.587-24.816 5.578l-2.464-.002c-11.881-.112-23.713-1.212-35.547-2.185l-7.256-.578L43 77.803c2.19-2.19 3.149-2.48 6.078-3.219l2.523-.637 2.648-.645 2.508-.645c15.751-3.902 31.069-4.2 47.201-4.161 18.089.017 34.82-2.843 51.791-9.257l2.688-.999C186.55 48.123 186.55 48.123 211 31.803zm-12 120h1c-.646 19.23-3.177 44.325-17 59l-1.551 1.699C180 213.803 180 213.803 178 213.803c-1.701 6.733-2.108 12.133-1 19l7-3 1 2a135.92 135.92 0 0 1-3 7h-2v3c-6.495-1.218-10.687-3.978-15-9-4.945-7.781-8-18.743-8-28l3.148-1.434c17.296-8.103 27.849-18.792 34.563-36.848A151.51 151.51 0 0 0 199 151.802zm106-66h2c17.186 20.021 20.877 46.229 19.208 71.638-1.105 12.53-3.653 24.971-5.946 37.327-1.113 6.033-2.017 12.065-2.782 18.153-1.374 8.232-5.187 14.565-10.481 20.882l-2-1 1.023-3.113c3.53-10.892 6.336-21.01 5.949-32.574.027-2.312.027-2.312 1.027-5.312.098-2.533.14-5.031.125-7.562l.003-2.18c-.019-3.954-.266-7.719-.878-11.632-.571-4.692.777-7.761 2.691-12 9.151-22.691-.484-49.837-9.277-71.07L305 85.803zm-252.062-6.25c9.008.093 18.615 2.228 27.063 5.25v1l-3.008.043C64.195 86.219 50.67 88.695 41 97.803c-2.749 3.461-4.889 7.123-7 11l-1.672 2.945c-7.623 14.231-12.62 29.783-16.984 45.277l-.673 2.389-3.221 11.772-1.188 4.351-.514 2.001c-1.163 4.216-2.814 7.035-5.748 10.264l-4-1c0-3.521.841-4.712 2.563-7.75C14.56 155.395 18.251 126.675 23 100.803l7 1c4.817-5.654 7.606-11.391 10.215-18.34 1.785-2.66 1.785-2.66 5.23-3.523l7.492-.387zM98 102.803c3.345 1.41 3.924 1.859 5.75 5.25 7.297 22.536-6.503 50.84-15.802 70.812-4.343 9.61-7.088 19.81-9.948 29.938h-1c-.992-24.257 5.292-46.294 14.115-68.66 3.831-9.806 6.095-18.403 6.51-28.903l.117-2.479.258-5.959zm205 16c4.571 8.288 3.4 19.373 2.5 28.5-1.005 10.511-1.116 19.935 4.688 29.188 2.058 3.761 2.157 6.092 1.813 10.313-3 0-3 0-5.36-2.02l-2.745-2.793-1.467-1.48-4.615-4.708-3.139-3.18-7.674-7.82c1.022-2.092 2.031-4.046 3.332-5.98 7.874-11.738 10.216-26.324 12.668-40.02zm138 58c5.242 4.33 9.906 8.932 14.5 13.938 3.618 3.92 7.229 7.824 11.031 11.566 3.059 3.029 5.884 6.212 8.696 9.47 2.96 3.384 6.058 6.636 9.147 9.901L501 239.803c-1.711.707-1.711.707-4 1-10.527-6.15-19.186-16.778-27-26l-2.418-2.789c-5.956-6.906-11.587-14.017-17.079-21.299l-1.558-2.065-1.491-1.976c-1.397-1.798-2.851-3.526-4.337-5.25-2.117-2.621-2.117-2.621-2.117-4.621zm-194-23c4.761 2.181 8.183 5.472 12 9l2.426 2.191c12.43 11.734 24.074 29.79 24.699 47.309l-.125 2.5-3.594-7.363c-8.509-17.757-19.956-33.344-32.656-48.359-1.75-2.277-1.75-2.277-2.75-5.277zm-232-79c1.292 3.877.503 5.864-.477 9.824l-1.027 4.262-.555 2.273c-3.164 13.013-5.879 26.023-7.879 39.266l-.306 2.016c-1.071 7.105-2.02 14.212-2.756 21.359H1c-.279-8.028.562-15.746 1.688-23.687l.537-3.84c1.57-10.819 3.706-21.449 6.216-32.084l1.474-6.556c1.978-9.003 1.978-9.003 4.086-12.832zm269 148c0 3.722-1.18 5.464-3 8.688l-1.687 3.012-1.312 2.301 3 1c-3.134 1.044-3.99.934-7 0 1.995-5.803 4.842-11.561 10-15zm-178 9l2 1c-1.947 5.233-4.486 7.381-9.062 10.215-1.937.785-1.937.785-4.937-.215l2.813-2.187c2.802-2.308 4.356-4.673 6.188-7.812l3-1zM34.563 62.49c4.837.026 8.351 1.878 12.438 4.313l-2 4h-2l-1.687-2.437c-2.967-3.288-4.994-3.313-9.312-3.562l-1 4a88.58 88.58 0 0 1-1-5c1-1 1-1 4.563-1.312zM147 234.803a43.67 43.67 0 0 1 1.313 6.938c.804 3.579 2.242 5.38 4.688 8.063l-8-1-.125-4.75-.07-2.672c.204-2.692.83-4.277 2.195-6.578zm-34-10c-.613 2.962-1.254 4.381-3 7l-5-2v-3c2.906-1.257 4.796-2 8-2zm-84-171l1 2-10 14-1-2c1.328-2.496 1.328-2.496 3.25-5.437l1.891-2.934c1.508-2.132 2.938-3.88 4.859-5.629zm1 31h1v7l-5 2 4-9zm36 150c2 1 2 1 3.125 4.063l.875 2.938-4-2v-5zm8-11l1 3-6 5c1.372-2.954 2.989-5.44 5-8z"/><path d="M0 154.803h1v10H0v-10zm78 90h5v1h-5v-1zm-8-3l3 1h-3v-1zm-52-172v3zm196-40l2 1h-3l1-1zm19-29l3 1zm-141 243l2 1zm-19 0l2 1zm516.333-239V29.87h-5.6l24.4 61.067h6.667v25.067h-42.667V90.936h3.6l-1.6-4.933h-29.467l-1.733 4.933h3.6v25.067H504V90.936h6.667l24.4-61.067h-4.8V4.803zM552.266 64.67H566.4l-7.067-17.6zm121.866 51.333l-24-39.733v19.733h5.333v20H620.4v-20h5.333V47.07H620.4v-20h28.933l24.4 40.667V47.07H668.4v-20h35.067v20h-5.333v48.933h5.333v20zm111.866-63.467h-20v-5.333l-5.467-.133v48.8h5.467v20h-35.067v-20h5.333V47.203h-5.333v5.333h-20V27.07h75.066zm35.2 43.467h15.6v-3.6h20v23.6h-65.333v-20h5.333V47.07h-5.333v-20h65.333v23.6h-20v-3.6h-15.6v14.533h3.6v-3.6h20v27.2h-20v-3.6h-3.6zM932.532 27.07v20h-4.533l19.6 48.933h5.333v20h-34.267v-20h3.067l-1.333-4.133h-23.6l-1.467 4.133h2.933v20h-34v-20h5.333l19.6-48.933h-3.867v-20zm-29.733 47.733h11.467l-5.733-13.867zm130.666-22.267h-20v-5.333l-5.467-.133v48.8h5.467v20h-35.067v-20h5.333V47.203h-5.333v5.333h-20V27.07h75.066zm35.2 43.467h15.6v-3.6h20v23.6h-65.333v-20h5.333V47.07h-5.333v-20h65.333v23.6h-20v-3.6h-15.6v14.533h3.6v-3.6h20v27.2h-20v-3.6h-3.6zm72.8 0h5.333v20h-35.067v-20h5.333V47.07h-5.333v-20h55.067l14.133 14.267v22.8l-5.867 5.867 5.867 5.733v20.267h5.333v20h-29.733V82.936l-2.8-2.933h-12.267zm0-36h12.267l2.8-2.933v-7.067l-2.8-2.933h-12.267zM597.733 224.269H617.2v-4.4h25.067v29.467h-81.733v-25.067h6.667v-61.067h-6.667v-25.067h81.733v29.467H617.2v-4.4h-19.467v18.133h4.533v-4.4H627.2v33.733h-24.933v-4.4h-4.533zm101.866-5.467l-10.8 10.533h3.733v20h-42.8v-20h8.4l24.8-24.267-24.8-24.267h-8.4v-20h42.8v20H688.8l10.8 10.667 10.933-10.667H706.8v-20h41.467v19.867H741.2l-24.8 24.4 24.8 24.267h7.067v20H706.8v-20h3.733zm109.333-3.2h-25.333v13.733h5.333v20h-35.067v-20h5.333v-48.933h-5.333v-20h55.067l14.133 14.267v26.8zm-25.333-20h12.267l2.8-2.8v-9.467l-2.8-2.933h-12.267zm78.4 33.733h5.333v20h-35.067v-20h5.333v-48.933h-5.333v-20h55.067l14.133 14.267v22.8l-5.867 5.867 5.867 5.733v20.267h5.333v20h-29.733v-33.067l-2.8-2.933h-12.267zm0-36h12.267l2.8-2.933v-7.067l-2.8-2.933h-12.267zm81.866 36h15.6v-3.6h20v23.6h-65.333v-20h5.333v-48.933h-5.333v-20h65.333v23.6h-20v-3.6h-15.6v14.533h3.6v-3.6h20v27.2h-20v-3.6h-3.6zm83.466-14.267h-26l-14.4-14.133v-26.267l14.267-14.267h39.067l14.267 14.267v17.6h-24.4v-8.933l-2.933-2.933h-12.933l-2.933 2.933v8.933l2.933 2.8h26l14.267 14.267v25.733l-14.267 14.267h-39.067l-14.267-14.267v-17.067h24.4v8.4l2.933 2.933h12.933l2.933-2.933v-8.4zm75.066 0h-26l-14.4-14.133v-26.267l14.267-14.267h39.067l14.267 14.267v17.6h-24.4v-8.933l-2.933-2.933h-12.933l-2.933 2.933v8.933l2.933 2.8h26l14.267 14.267v25.733l-14.267 14.267h-39.067l-14.267-14.267v-17.067h24.4v8.4l2.933 2.933h12.933l2.933-2.933v-8.4z"/></svg>