<svg version="1.1" xmlns="http://www.w3.org/2000/svg" xmlns:xlink="http://www.w3.org/1999/xlink" x="0px" y="0px" viewBox="0 0 184.2 52.1">
<g id="Layer_2">
	<path fill="#FF9E3A" d="M184.2,44c0,4.5-4.3,8.1-9.5,8.1H9.5C4.3,52.1,0,48.5,0,44V8.1C0,3.6,4.3,0,9.5,0h165.1
		c5.3,0,9.5,3.6,9.5,8.1V44z"/>
</g>
<g id="Layer_1">
	<path id="Path_1" fill="#FF2D00" d="M171.4,12.4h-14.8v27.4c0.1,1.4-0.6,2.8-1.9,3.5c-3.1,1.5-6.7,1.5-9.7,0
		c-1.2-0.7-2-2.1-1.9-3.5V12.4h-14.8c-1.8,0.1-3.6-0.2-5.2-0.9c-1.1-0.6-1.7-1.4-1.7-2.2c0.1-1.1,0.8-2,1.7-2.4
		c1.6-0.7,3.4-1,5.1-0.9h43.3c1.8-0.1,3.6,0.2,5.2,0.9c1.1,0.6,1.7,1.4,1.7,2.2c-0.1,1-0.7,1.9-1.7,2.2
		C175,12.2,173.2,12.5,171.4,12.4"/>
	<path id="Path_2" fill="#FF2D00" d="M44.1,29.1L40,22.7l-2.9-4.5l-3-4.6l-10,15.6l-3.6,5.6l-3.2,4.9c-0.9,1.4-2,2.7-3.2,3.7
		c-1.3,0.8-2.8,1.1-4.4,1c-1.6,0-3.1-0.3-4.5-1.1c-1.4-0.7-2-1.5-2-2.4c0-0.6,0.2-1.1,0.5-1.6c0.4-0.8,0.9-1.6,1.5-2.2l17.2-24.4
		c0.5-0.7,1.1-1.5,1.7-2.5c0.6-0.9,1.4-1.8,2.2-2.5c0.9-0.7,2-1.3,3.1-1.6c3.1-0.8,6.4-0.8,9.5,0c1.1,0.3,2.2,0.8,3.1,1.5
		c0.7,0.6,1.4,1.4,2,2c0.5,0.7,1.2,1.7,2,2.9l8.2,11.3l9.3,13c1.4,1.9,2.1,3.2,2.1,4c0,0.9-0.6,1.6-2,2.4c-1.5,0.8-3.1,1.2-4.7,1.1
		c-0.9,0-1.9-0.1-2.7-0.4c-0.7-0.2-1.3-0.5-1.9-0.9c-0.6-0.5-1.2-1.1-1.6-1.7c-0.6-0.7-1.1-1.5-1.5-2l-3.2-4.7L44.1,29.1z"/>
	<path id="Path_3" fill="#FF2D00" d="M86.2,27.7h-4.7v12c0.1,1.4-0.6,2.8-1.9,3.5c-1.5,0.8-3.2,1.2-4.9,1.1c-1.7,0.1-3.5-0.3-5-1.1
		c-1.2-0.7-1.9-2.1-1.7-3.5V11c-0.1-1.5,0.7-2.9,2-3.5c2-0.9,4.2-1.3,6.4-1.1h21.9c3,0,5.6,0.1,7.7,0.2c2,0.1,3.9,0.4,5.9,0.9
		c2,0.5,3.8,1.2,5.6,2.1c1.5,0.7,2.7,1.9,3.6,3.2c0.8,1.1,1.3,2.5,1.2,3.9c0,2.7-1.4,5-4.2,6.7c-4,1.9-8.4,3-12.8,3.4
		c2.4,0.7,4.7,1.8,6.9,3.1c2.1,1.3,4.1,2.8,5.9,4.5c1.5,1.3,2.8,2.7,4,4.2c0.7,0.7,1.2,1.6,1.4,2.6c0,0.6-0.4,1.2-0.9,1.5
		c-0.7,0.5-1.4,0.9-2.2,1.1c-1.1,0.3-2.2,0.4-3.4,0.4c-1.3,0-2.6-0.2-3.9-0.6c-1-0.3-1.8-0.9-2.6-1.5c-0.7-0.6-1.7-1.5-3-2.7
		l-5.5-5.1c-1.6-1.6-3.3-3-5.2-4.2c-1.4-0.9-3-1.6-4.6-2C90.6,27.9,88.6,27.7,86.2,27.7 M93.9,12H81.5v10.3h12.1
		c2.8,0.1,5.5-0.1,8.2-0.5c1.8-0.2,3.5-0.7,5.1-1.6c1.1-0.7,1.8-1.8,1.7-3.1c0-1.1-0.5-2.1-1.4-2.7c-1.2-0.8-2.5-1.4-3.9-1.7
		C100.3,12.1,97.1,11.9,93.9,12"/>
	<path id="Path_4" fill="#FF2D00" d="M40.3,42.3h-0.6v2.1h-2.4v-2.1h-7v2.1H28v-2.1h-0.6v-9.8c0-1,0.7-1.8,1.6-2
		c1.6-0.5,3.2-0.7,4.9-0.6c1.7-0.1,3.4,0.2,5,0.6c0.9,0.2,1.6,1,1.6,2v9.8H40.3z M29.6,40.9c0-0.3-0.1-0.4-0.3-0.6
		C29.2,40.1,29,40,28.7,40c-0.3,0-0.4,0.1-0.6,0.2C28,40.5,28,40.7,28,40.9c0,0.2,0.1,0.4,0.2,0.6c0.2,0.2,0.4,0.2,0.6,0.2
		c0.2,0,0.4-0.1,0.6-0.2C29.5,41.3,29.6,41.2,29.6,40.9 M33.5,32.4H28v4h5.5V32.4z M37.2,40.2h-7v0.5h7V40.2z M37.2,41.2h-7v0.5h7
		V41.2z M39.6,32.4h-5.4v4h5.5v-4H39.6z M39.7,40.9c0-0.3-0.1-0.4-0.3-0.6c-0.2-0.2-0.4-0.2-0.6-0.2c-0.3,0-0.4,0.1-0.6,0.2
		c-0.2,0.2-0.2,0.4-0.3,0.6c0,0.2,0.1,0.4,0.3,0.6c0.2,0.2,0.4,0.2,0.6,0.2c0.2,0,0.4-0.1,0.6-0.2C39.6,41.3,39.7,41.2,39.7,40.9"/>
</g>
</svg>