<svg xmlns="http://www.w3.org/2000/svg" viewBox="0 0 184.2 52.1"><path fill="#ff9e3a" d="M184.2 44c0 4.5-4.3 8.1-9.5 8.1H9.5C4.3 52.1 0 48.5 0 44V8.1C0 3.6 4.3 0 9.5 0h165.1c5.3 0 9.5 3.6 9.5 8.1V44z"/><g fill="#ff2d00"><path d="M171.4 12.4h-14.8v27.4c.1 1.4-.6 2.8-1.9 3.5-3.1 1.5-6.7 1.5-9.7 0-1.2-.7-2-2.1-1.9-3.5V12.4h-14.8c-1.8.1-3.6-.2-5.2-.9-1.1-.6-1.7-1.4-1.7-2.2.1-1.1.8-2 1.7-2.4 1.6-.7 3.4-1 5.1-.9h43.3c1.8-.1 3.6.2 5.2.9 1.1.6 1.7 1.4 1.7 2.2-.1 1-.7 1.9-1.7 2.2-1.7.9-3.5 1.2-5.3 1.1M44.1 29.1L40 22.7l-2.9-4.5-3-4.6-10 15.6-3.6 5.6-3.2 4.9c-.9 1.4-2 2.7-3.2 3.7-1.3.8-2.8 1.1-4.4 1-1.6 0-3.1-.3-4.5-1.1-1.4-.7-2-1.5-2-2.4 0-.6.2-1.1.5-1.6.4-.8.9-1.6 1.5-2.2l17.2-24.4 1.7-2.5a13.15 13.15 0 0 1 2.2-2.5c.9-.7 2-1.3 3.1-1.6 3.1-.8 6.4-.8 9.5 0 1.1.3 2.2.8 3.1 1.5.7.6 1.4 1.4 2 2l2 2.9 8.2 11.3 9.3 13c1.4 1.9 2.1 3.2 2.1 4 0 .9-.6 1.6-2 2.4-1.5.8-3.1 1.2-4.7 1.1-.9 0-1.9-.1-2.7-.4-.7-.2-1.3-.5-1.9-.9-.6-.5-1.2-1.1-1.6-1.7-.6-.7-1.1-1.5-1.5-2L48 34.6l-3.9-5.5z"/><path d="M86.2 27.7h-4.7v12c.1 1.4-.6 2.8-1.9 3.5-1.5.8-3.2 1.2-4.9 1.1a9.65 9.65 0 0 1-5-1.1 3.52 3.52 0 0 1-1.7-3.5V11c-.1-1.5.7-2.9 2-3.5 2-.9 4.2-1.3 6.4-1.1h21.9l7.7.2c2 .1 3.9.4 5.9.9s3.8 1.2 5.6 2.1c1.5.7 2.7 1.9 3.6 3.2.8 1.1 1.3 2.5 1.2 3.9 0 2.7-1.4 5-4.2 6.7-4 1.9-8.4 3-12.8 3.4 2.4.7 4.7 1.8 6.9 3.1 2.1 1.3 4.1 2.8 5.9 4.5 1.5 1.3 2.8 2.7 4 4.2a5.1 5.1 0 0 1 1.4 2.6c0 .6-.4 1.2-.9 1.5-.7.5-1.4.9-2.2 1.1-1.1.3-2.2.4-3.4.4a13.2 13.2 0 0 1-3.9-.6c-1-.3-1.8-.9-2.6-1.5-.7-.6-1.7-1.5-3-2.7l-5.5-5.1c-1.6-1.6-3.3-3-5.2-4.2-1.4-.9-3-1.6-4.6-2-1.6-.2-3.6-.4-6-.4M93.9 12H81.5v10.3h12.1c2.8.1 5.5-.1 8.2-.5 1.8-.2 3.5-.7 5.1-1.6 1.1-.7 1.8-1.8 1.7-3.1 0-1.1-.5-2.1-1.4-2.7-1.2-.8-2.5-1.4-3.9-1.7-3-.6-6.2-.8-9.4-.7M40.3 42.3h-.6v2.1h-2.4v-2.1h-7v2.1H28v-2.1h-.6v-9.8c0-1 .7-1.8 1.6-2a13.48 13.48 0 0 1 4.9-.6c1.7-.1 3.4.2 5 .6.9.2 1.6 1 1.6 2v9.8h-.2zm-10.7-1.4c0-.3-.1-.4-.3-.6-.1-.2-.3-.3-.6-.3s-.4.1-.6.2c-.1.3-.1.5-.1.7s.1.4.2.6c.2.2.4.2.6.2s.4-.1.6-.2c.1-.2.2-.3.2-.6m3.9-8.5H28v4h5.5v-4zm3.7 7.8h-7v.5h7v-.5zm0 1h-7v.5h7v-.5zm2.4-8.8h-5.4v4h5.5v-4h-.1zm.1 8.5c0-.3-.1-.4-.3-.6s-.4-.2-.6-.2c-.3 0-.4.1-.6.2-.2.2-.2.4-.3.6 0 .2.1.4.3.6s.4.2.6.2.4-.1.6-.2c.2-.2.3-.3.3-.6"/></g></svg>