<svg xmlns="http://www.w3.org/2000/svg" viewBox="1.02 0 642.34 256.76" fill="#215ec8"><path d="M106.53 155.15h0c-26.852 0-48.62-21.768-48.62-48.62s21.768-48.62 48.62-48.62h47.11V0h-47.11C48.095.566 1.022 48.097 1.022 106.535S48.095 212.504 106.53 213.07h47.11v-57.92zM456.03 2.29h-40.7-57.91-44.35v60.52h44.35v150.26h57.91V62.81h40.7V2.29z"/><path d="M381.67 256.76L276.34 2.29h-62.68l63.2 152.67h-48.87l22.53-63.48h-53.73l-43.15 121.59h31.08 22.65 93.54l18.08 43.69h62.68zm261.69-.01L538.03 2.29h-62.68l63.2 152.67h-48.87l22.53-63.49h-53.73l-43.15 121.6h31.08 22.65 93.54l18.08 43.68h62.68z"/></svg>