<svg xmlns="http://www.w3.org/2000/svg" fill="#014544" viewBox="7.03 6.75 786.3 781.72"><path d="M7.057 6.799l320.302-.045c73.759.022 147.27 21.988 209.17 62.035 67.358 43.303 120.902 107.741 150.954 181.993 42.068 102.71 37.418 223.522-13.274 322.368-48.244 96.713-138.443 171.415-242.613 200.411-35.262 10.085-71.939 14.779-108.572 14.846-54.331.09-108.661-.045-162.992.067l-.067-93.636 165.014.022c57.745.18 115.355-17.137 163.464-49.03 47.683-31.354 86.157-76.611 109.043-128.92 24.639-55.589 31.444-118.903 19.203-178.467-11.724-58.598-41.888-113.288-84.966-154.682-53.41-52.152-127.056-82.698-201.713-83.708-76.611-.292-153.222.045-229.833-.18l.022 447.291 229.631.157c47.66-.629 93.636-26.75 119.959-66.257 21.539-31.444 29.827-71.378 23.426-108.886-8.131-49.434-42.921-93.254-89.031-112.727-18.642-8.086-38.946-12.106-59.227-12.128-23.336 0-46.694-.022-70.03.022l.09 240.884c-31.13.112-62.237-.045-93.366.067l.112-334.429 161.016.112c54.443-.696 108.976 17.586 151.807 51.276 43.999 34.004 75.713 83.551 87.976 137.815 11.994 51.995 6.379 107.988-16.261 156.367-25.043 54.713-71.311 99.318-126.787 122.542-30.456 12.87-63.539 19.248-96.6 19.001H7.035L7.057 6.799zm692.375 628.274c23.92-5.076 50.063 1.505 68.189 18.08 22.842 20.034 31.736 54.196 21.494 82.832-9.186 27.648-35.285 48.783-64.325 51.703-30.096 4.065-61.361-12.039-76.184-38.429-11.904-20.596-13.476-46.784-4.043-68.638 9.388-22.954 30.635-40.406 54.87-45.549z"/></svg>