<?xml version="1.0" encoding="UTF-8"?>
<svg width="200" height="90" enable-background="new 0 0 199.999 90" overflow="visible" version="1.1" viewBox="0 0 200 90" xml:space="preserve" xmlns="http://www.w3.org/2000/svg">
<title>Los Angeles Metro logo</title>
<path d="m1.12 37.1c0-20.2 16.4-36.6 36.6-36.6 20.2 0 36.6 16.4 36.6 36.6 0 20.2-16.4 36.6-36.6 36.6-20.2 0-36.6-16.4-36.6-36.6"/>
<path d="m140 82.6c-1.98 1.22-2.77 1.6-4.01 1.96-0.778 0.248-1.55 0.347-2.46 0.347-1.94 0-3.7-0.928-4.59-2.43-0.447-0.768-0.609-1.43-0.695-3.09h14v-2.42c0-5.72-3.71-9.7-9.02-9.7-6.14 0-10.8 5.03-10.8 11.7 0 6.43 4.09 10.6 10.4 10.6 2.45 0 4.75-0.486 7.02-1.5 0.499-0.22 1.26-0.573 2.29-1.13l0.134-0.063-2.16-4.37-0.139 0.093zm-7.14-11c2.42 0 3.44 1.17 3.6 4.13h-7.91c0.466-2.62 2.03-4.13 4.31-4.13m-29.1 9.35-7.27-21.2h-7.7v29.4h5.59v-18.5c0.308 0.847 6.57 18.5 6.57 18.5h5.6c2.19-6.32 6.31-17.7 6.55-18.3 0 2.1-0.031 18.3-0.031 18.3h5.62v-29.4h-7.71l-7.22 21.2zm53.5 1.73-0.162 0.104c-1.39 0.913-2.18 1.28-2.81 1.28-0.667 0-0.931-0.392-0.931-2.85v-9.12h4.58v-4.23h-4.58v-6.41c0-0.449-0.168-0.854-0.168-0.854l-5.3 0.854v6.42c-0.241 0.036-3.14 0.543-3.14 0.543v3.68h3.14v12.8c0 3.2 1.36 4.68 4.3 4.68 1.5 0 3.18-0.486 4.81-1.41l0.689-0.41 1.44-0.877-0.067-0.114-1.79-4.07zm15.2-15.1c-1.6 0-2.91 1.21-4.88 4.51-0.038-0.809-0.2-4.18-0.2-4.18h-5v21.2h5.74v-9.8c0-1.52 0.419-2.69 1.42-3.89 0.791-0.966 1.71-1.52 2.52-1.52 0.546 0 0.972 0.171 1.52 0.604l0.19 0.129 1.82-5.49-0.057-0.056c-0.895-1.04-1.9-1.54-3.07-1.54m15.3-0.27c-6.15 0-10.8 4.79-10.8 11.1 0 6.37 4.64 11.2 10.8 11.2 6.17 0 10.8-4.81 10.8-11.2 0-6.33-4.63-11.1-10.8-11.1m0 17.7c-2.66 0-4.84-2.95-4.84-6.61 0-3.56 2.23-6.55 4.84-6.55 2.64 0 4.85 2.99 4.85 6.55 1e-3 3.65-2.18 6.61-4.85 6.61m6.96-17.8h0.238v-1.78h0.772v-0.23h-1.79v0.235h0.778v1.78zm1.8-1.78s0.597 1.67 0.639 1.78h0.32c0.041-0.118 0.629-1.79 0.629-1.79s3e-3 1.62 3e-3 1.79h0.232v-2.02h-0.416c-0.042 0.118-0.607 1.79-0.607 1.79s-0.574-1.67-0.616-1.79h-0.413v2.02h0.229v-1.78z"/>
<path d="m59.9 15.3v43.9h-9.23v-24.8c-0.357 0.974-5.37 15.4-7.03 20.3l-4.12-12.3 9.07-27.2h11.3zm-32.6 0h-11.3v43.9h9.2v-24.8c0.459 1.26 8.66 24.8 8.66 24.8h8.23l-14.8-43.9z" fill="#fff"/>
<rect width="200" height="90" fill="none"/>
</svg>
