<svg xmlns="http://www.w3.org/2000/svg" xmlns:xlink="http://www.w3.org/1999/xlink" version="1.1" id="Layer_1" x="0px" y="0px" style="enable-background:new 0 0 230 230;" xml:space="preserve" viewBox="74.17 98.64 82.63 31.98">
<style type="text/css">
	.st0{fill:#A7C539;}
	.st1{fill-rule:evenodd;clip-rule:evenodd;fill:#A7C539;}
	.st2{fill-rule:evenodd;clip-rule:evenodd;fill:#00447C;}
</style>
<polygon class="st0" points="119.44,124.11 117.98,124.11 115.93,130.44 114.23,130.44 116.28,124.11 114.82,124.11 115.29,122.67   119.91,122.67 "/>
<path class="st0" d="M124.98,124.67c-0.09,0.59-0.29,1.09-0.63,1.49c-0.33,0.4-0.74,0.68-1.21,0.83l0.39,3.45h-1.82l-0.21-3.13  h-0.58l-1,3.13h-1.66l2.51-7.78h2.33c0.7,0,1.22,0.17,1.54,0.5C124.96,123.5,125.08,124,124.98,124.67 M123.23,124.89  c0.04-0.3-0.01-0.51-0.16-0.63c-0.15-0.12-0.33-0.17-0.54-0.17h-0.58l-0.66,2.03h0.56c0.33,0,0.62-0.1,0.89-0.31  C123.01,125.6,123.17,125.29,123.23,124.89"/>
<path class="st0" d="M128.08,130.44l0.18-1.46h-1.85l-0.81,1.46h-1.8l4.57-7.78h2.17l-0.71,7.78H128.08z M128.89,124.35h-0.05  l-1.8,3.34h1.42L128.89,124.35z"/>
<polygon class="st0" points="135.83,130.44 133.98,130.44 133.64,125.6 133.6,125.6 132.09,130.44 130.54,130.44 133.05,122.67   134.95,122.67 135.24,127.58 135.28,127.58 136.82,122.67 138.34,122.67 "/>
<path class="st0" d="M142.35,124.45c-0.11-0.15-0.25-0.26-0.42-0.35c-0.17-0.08-0.36-0.13-0.56-0.13c-0.1,0-0.22,0.02-0.34,0.06  c-0.12,0.04-0.24,0.1-0.34,0.18c-0.1,0.08-0.2,0.18-0.28,0.3c-0.08,0.12-0.13,0.27-0.16,0.43c-0.03,0.21,0.01,0.39,0.12,0.53  c0.11,0.14,0.29,0.28,0.53,0.43c0.14,0.09,0.28,0.19,0.43,0.31c0.15,0.12,0.28,0.26,0.4,0.43c0.11,0.17,0.2,0.36,0.26,0.57  c0.06,0.22,0.07,0.47,0.02,0.75c-0.06,0.45-0.2,0.84-0.4,1.17c-0.2,0.33-0.45,0.61-0.74,0.83c-0.29,0.22-0.61,0.39-0.95,0.5  c-0.34,0.11-0.69,0.16-1.04,0.16c-0.49,0-0.92-0.08-1.3-0.24c-0.38-0.16-0.67-0.36-0.86-0.59l1.2-1.26c0.13,0.17,0.29,0.3,0.5,0.41  c0.21,0.11,0.43,0.16,0.67,0.16c0.12,0,0.24-0.02,0.37-0.07c0.13-0.04,0.24-0.11,0.35-0.19c0.11-0.08,0.2-0.18,0.27-0.3  c0.07-0.12,0.12-0.25,0.14-0.4c0.03-0.21-0.01-0.4-0.11-0.57c-0.11-0.16-0.3-0.33-0.57-0.5c-0.16-0.1-0.31-0.2-0.45-0.32  c-0.14-0.12-0.27-0.26-0.37-0.42c-0.1-0.16-0.17-0.34-0.22-0.55c-0.04-0.2-0.05-0.44-0.01-0.71c0.05-0.37,0.17-0.72,0.35-1.04  c0.18-0.32,0.41-0.6,0.68-0.83c0.27-0.23,0.59-0.42,0.95-0.55c0.36-0.14,0.74-0.2,1.14-0.2c0.46,0,0.85,0.07,1.19,0.21  c0.34,0.14,0.59,0.32,0.76,0.55L142.35,124.45z"/>
<polygon class="st0" points="144.05,130.44 142.31,130.44 144.82,122.67 146.56,122.67 "/>
<polygon class="st0" points="151.43,124.11 149.97,124.11 147.92,130.44 146.21,130.44 148.26,124.11 146.81,124.11 147.27,122.67   151.9,122.67 "/>
<polygon class="st0" points="110.72,130.43 74.17,130.43 74.64,128.97 111.19,128.97 "/>
<polygon class="st1" points="76.69,122.67 75.06,127.72 111.6,127.72 113.24,122.67 "/>
<path class="st2" d="M156.8,98.64v5.6h-4.88v14h-5.6l0-14h-4.2v8.4c0,3.09-2.51,5.6-5.6,5.6h-5.6c-3.09,0-5.6-2.51-5.6-5.6  c0,3.09-2.51,5.6-5.6,5.6h-5.19l-6.36-19.59l11.55,0c3.09,0,5.6,2.51,5.6,5.6c0-3.09,2.51-5.6,5.6-5.6h5.6  c2.1,0,3.92,1.15,4.88,2.85v-2.85H156.8z M132.32,104.2h2.8c0.77,0,1.4,0.63,1.4,1.4v5.6c0,0.77-0.63,1.4-1.4,1.4h-2.8  c-0.77,0-1.4-0.63-1.4-1.4v-5.6C130.92,104.82,131.55,104.2,132.32,104.2 M118.33,104.2c0.77,0,1.4,0.63,1.4,1.4v5.6  c0,0.77-0.63,1.4-1.4,1.4h-4.2l0-8.4H118.33z M99.56,98.64h7.68l6.37,19.59h-6.12l-0.91-2.8h-6.35l-0.91,2.8h-6.12L99.56,98.64z   M103.4,105.67l-1.81,5.57h3.62L103.4,105.67z M80.07,112.64l4.56-13.99h6.12l-4.55,13.99h7.86l-1.82,5.6h-7.86h-6.12L80.07,112.64z  "/>
<polygon class="st0" points="119.44,124.11 117.98,124.11 115.93,130.44 114.23,130.44 116.28,124.11 114.82,124.11 115.29,122.67   119.91,122.67 "/>
<path class="st0" d="M124.98,124.67c-0.09,0.59-0.29,1.09-0.63,1.49c-0.33,0.4-0.74,0.68-1.21,0.83l0.39,3.45h-1.82l-0.21-3.13  h-0.58l-1,3.13h-1.66l2.51-7.78h2.33c0.7,0,1.22,0.17,1.54,0.5C124.96,123.5,125.08,124,124.98,124.67 M123.23,124.89  c0.04-0.3-0.01-0.51-0.16-0.63c-0.15-0.12-0.33-0.17-0.54-0.17h-0.58l-0.66,2.03h0.56c0.33,0,0.62-0.1,0.89-0.31  C123.01,125.6,123.17,125.29,123.23,124.89"/>
<path class="st0" d="M128.08,130.44l0.18-1.46h-1.85l-0.81,1.46h-1.8l4.57-7.78h2.17l-0.71,7.78H128.08z M128.89,124.35h-0.05  l-1.8,3.34h1.42L128.89,124.35z"/>
<polygon class="st0" points="135.83,130.44 133.98,130.44 133.64,125.6 133.6,125.6 132.09,130.44 130.54,130.44 133.05,122.67   134.95,122.67 135.24,127.58 135.28,127.58 136.82,122.67 138.34,122.67 "/>
<path class="st0" d="M142.35,124.45c-0.11-0.15-0.25-0.26-0.42-0.35c-0.17-0.08-0.36-0.13-0.56-0.13c-0.1,0-0.22,0.02-0.34,0.06  c-0.12,0.04-0.24,0.1-0.34,0.18c-0.1,0.08-0.2,0.18-0.28,0.3c-0.08,0.12-0.13,0.27-0.16,0.43c-0.03,0.21,0.01,0.39,0.12,0.53  c0.11,0.14,0.29,0.28,0.53,0.43c0.14,0.09,0.28,0.19,0.43,0.31c0.15,0.12,0.28,0.26,0.4,0.43c0.11,0.17,0.2,0.36,0.26,0.57  c0.06,0.22,0.07,0.47,0.02,0.75c-0.06,0.45-0.2,0.84-0.4,1.17c-0.2,0.33-0.45,0.61-0.74,0.83c-0.29,0.22-0.61,0.39-0.95,0.5  c-0.34,0.11-0.69,0.16-1.04,0.16c-0.49,0-0.92-0.08-1.3-0.24c-0.38-0.16-0.67-0.36-0.86-0.59l1.2-1.26c0.13,0.17,0.29,0.3,0.5,0.41  c0.21,0.11,0.43,0.16,0.67,0.16c0.12,0,0.24-0.02,0.37-0.07c0.13-0.04,0.24-0.11,0.35-0.19c0.11-0.08,0.2-0.18,0.27-0.3  c0.07-0.12,0.12-0.25,0.14-0.4c0.03-0.21-0.01-0.4-0.11-0.57c-0.11-0.16-0.3-0.33-0.57-0.5c-0.16-0.1-0.31-0.2-0.45-0.32  c-0.14-0.12-0.27-0.26-0.37-0.42c-0.1-0.16-0.17-0.34-0.22-0.55c-0.04-0.2-0.05-0.44-0.01-0.71c0.05-0.37,0.17-0.72,0.35-1.04  c0.18-0.32,0.41-0.6,0.68-0.83c0.27-0.23,0.59-0.42,0.95-0.55c0.36-0.14,0.74-0.2,1.14-0.2c0.46,0,0.85,0.07,1.19,0.21  c0.34,0.14,0.59,0.32,0.76,0.55L142.35,124.45z"/>
<polygon class="st0" points="144.05,130.44 142.31,130.44 144.82,122.67 146.56,122.67 "/>
<polygon class="st0" points="151.43,124.11 149.97,124.11 147.92,130.44 146.21,130.44 148.26,124.11 146.81,124.11 147.27,122.67   151.9,122.67 "/>
<polygon class="st0" points="110.72,130.43 74.17,130.43 74.64,128.97 111.19,128.97 "/>
<polygon class="st1" points="76.69,122.67 75.06,127.72 111.6,127.72 113.24,122.67 "/>
<path class="st2" d="M156.8,98.64v5.6h-4.88v14h-5.6l0-14h-4.2v8.4c0,3.09-2.51,5.6-5.6,5.6h-5.6c-3.09,0-5.6-2.51-5.6-5.6  c0,3.09-2.51,5.6-5.6,5.6h-5.19l-6.36-19.59l11.55,0c3.09,0,5.6,2.51,5.6,5.6c0-3.09,2.51-5.6,5.6-5.6h5.6  c2.1,0,3.92,1.15,4.88,2.85v-2.85H156.8z M132.32,104.2h2.8c0.77,0,1.4,0.63,1.4,1.4v5.6c0,0.77-0.63,1.4-1.4,1.4h-2.8  c-0.77,0-1.4-0.63-1.4-1.4v-5.6C130.92,104.82,131.55,104.2,132.32,104.2 M118.33,104.2c0.77,0,1.4,0.63,1.4,1.4v5.6  c0,0.77-0.63,1.4-1.4,1.4h-4.2l0-8.4H118.33z M99.56,98.64h7.68l6.37,19.59h-6.12l-0.91-2.8h-6.35l-0.91,2.8h-6.12L99.56,98.64z   M103.4,105.67l-1.81,5.57h3.62L103.4,105.67z M80.07,112.64l4.56-13.99h6.12l-4.55,13.99h7.86l-1.82,5.6h-7.86h-6.12L80.07,112.64z  "/>
</svg>