<svg xmlns="http://www.w3.org/2000/svg" viewBox="74.17 98.64 82.63 31.98"><g fill="#a7c539"><use href="#B"/><use href="#C"/><use href="#D"/><use href="#E"/><use href="#F"/><use href="#G"/><use href="#H"/><use href="#I"/><use href="#J" fill-rule="evenodd"/></g><use href="#K" fill-rule="evenodd" fill="#00447c"/><g fill="#a7c539"><use href="#B"/><use href="#C"/><use href="#D"/><use href="#E"/><use href="#F"/><use href="#G"/><use href="#H"/><use href="#I"/><use href="#J" fill-rule="evenodd"/></g><use href="#K" fill-rule="evenodd" fill="#00447c"/><defs ><path id="B" d="M119.44 124.11h-1.46l-2.05 6.33h-1.7l2.05-6.33h-1.46l.47-1.44h4.62z"/><path id="C" d="M124.98 124.67c-.09.59-.29 1.09-.63 1.49-.33.4-.74.68-1.21.83l.39 3.45h-1.82l-.21-3.13h-.58l-1 3.13h-1.66l2.51-7.78h2.33c.7 0 1.22.17 1.54.5.32.34.44.84.34 1.51m-1.75.22c.04-.3-.01-.51-.16-.63a.83.83 0 0 0-.54-.17h-.58l-.66 2.03h.56c.33 0 .62-.1.89-.31s.43-.52.49-.92"/><path id="D" d="M128.08 130.44l.18-1.46h-1.85l-.81 1.46h-1.8l4.57-7.78h2.17l-.71 7.78h-1.75zm.81-6.09h-.05l-1.8 3.34h1.42l.43-3.34z"/><path id="E" d="M135.83 130.44h-1.85l-.34-4.84h-.04l-1.51 4.84h-1.55l2.51-7.77h1.9l.29 4.91h.04l1.54-4.91h1.52z"/><path id="F" d="M142.35 124.45c-.11-.15-.25-.26-.42-.35-.17-.08-.36-.13-.56-.13a1.11 1.11 0 0 0-.68.24c-.1.08-.2.18-.28.3s-.13.27-.16.43c-.03.21.01.39.12.53s.29.28.53.43c.14.09.28.19.43.31a2.06 2.06 0 0 1 .4.43 2.12 2.12 0 0 1 .26.57c.06.22.07.47.02.75-.06.45-.2.84-.4 1.17a2.96 2.96 0 0 1-.74.83c-.29.22-.61.39-.95.5a3.37 3.37 0 0 1-1.04.16c-.49 0-.92-.08-1.3-.24s-.67-.36-.86-.59l1.2-1.26c.13.17.29.3.5.41a1.41 1.41 0 0 0 .67.16c.12 0 .24-.02.37-.07a1.19 1.19 0 0 0 .35-.19.97.97 0 0 0 .27-.3 1.06 1.06 0 0 0 .14-.4c.03-.21-.01-.4-.11-.57-.11-.16-.3-.33-.57-.5a3.65 3.65 0 0 1-.45-.32 1.86 1.86 0 0 1-.37-.42 1.81 1.81 0 0 1-.22-.55 2.08 2.08 0 0 1-.01-.71 2.91 2.91 0 0 1 .35-1.04c.18-.32.41-.6.68-.83s.59-.42.95-.55a3.11 3.11 0 0 1 1.14-.2c.46 0 .85.07 1.19.21s.59.32.76.55l-1.21 1.24z"/><path id="G" d="M144.05 130.44h-1.74l2.51-7.77h1.74z"/><path id="H" d="M151.43 124.11h-1.46l-2.05 6.33h-1.71l2.05-6.33h-1.45l.46-1.44h4.63z"/><path id="I" d="M110.72 130.43H74.17l.47-1.46h36.55z"/><path id="J" d="M76.69 122.67l-1.63 5.05h36.54l1.64-5.05z"/><path id="K" d="M156.8 98.64v5.6h-4.88v14h-5.6v-14h-4.2v8.4c0 3.09-2.51 5.6-5.6 5.6h-5.6c-3.09 0-5.6-2.51-5.6-5.6 0 3.09-2.51 5.6-5.6 5.6h-5.19l-6.36-19.59h11.55c3.09 0 5.6 2.51 5.6 5.6 0-3.09 2.51-5.6 5.6-5.6h5.6c2.1 0 3.92 1.15 4.88 2.85v-2.85h15.4zm-24.48 5.56h2.8c.77 0 1.4.63 1.4 1.4v5.6c0 .77-.63 1.4-1.4 1.4h-2.8c-.77 0-1.4-.63-1.4-1.4v-5.6a1.4 1.4 0 0 1 1.4-1.4m-13.99 0c.77 0 1.4.63 1.4 1.4v5.6c0 .77-.63 1.4-1.4 1.4h-4.2v-8.4h4.2zm-18.77-5.56h7.68l6.37 19.59h-6.12l-.91-2.8h-6.35l-.91 2.8H93.2l6.36-19.59zm3.84 7.03l-1.81 5.57h3.62l-1.81-5.57zm-23.33 6.97l4.56-13.99h6.12l-4.55 13.99h7.86l-1.82 5.6h-7.86-6.12l1.81-5.6z"/></defs></svg>