<?xml version="1.0" encoding="UTF-8"?>
<!DOCTYPE svg  PUBLIC '-//W3C//DTD SVG 1.1//EN'  'http://www.w3.org/Graphics/SVG/1.1/DTD/svg11.dtd'>
<svg enable-background="new 0 0 200 36.518" version="1.1" viewBox="0 0 200 36.518" xml:space="preserve" xmlns="http://www.w3.org/2000/svg">
<path d="m24.985 20.599-0.462-3.899h-0.106l-0.459 3.971 1.027-0.072zm-3.261-4.999-1.913-0.177v10.137l-2.869 0.496v-10.88l-2.447-0.213v-4.003l7.229 1.276v3.364zm5.457 8.683-1.701 0.283-0.213-1.487-1.629 0.213-0.212 1.628-2.199 0.389 2.164-12.754 2.055 0.354 1.735 11.374zm6.06-5.845c0-9.782-7.939-17.72-17.717-17.72-6.132 0-11.554 3.118-14.742 7.865l4.925 0.853 1.346 10.274h0.107l1.488-9.744 4.892 0.852v15.84l-3.083 0.529v-6.804c0-2.94 0.033-3.437 0.033-3.437h-0.142l-1.842 10.599-3.083 0.528-2.268-11.408h-0.104s0.14 0.389 0.14 4.005v7.795l-2.021 0.354c3.226 4.463 8.436 7.336 14.353 7.336 9.779 0 17.718-7.937 17.718-17.717" fill="#0039A6"/>
<path d="m58.15 19.112h-3.506c0.142-1.136 0.71-1.811 1.771-1.811 0.71 1e-3 1.631 0.427 1.735 1.811m33.878 0.849c0 1.135-0.318 2.621-2.055 2.621-1.736 0-2.056-1.486-2.056-2.621 0-1.099 0.32-2.588 2.056-2.588 1.737 0 2.055 1.488 2.055 2.588m75.833 1.24c0 1.026-0.991 1.701-2.02 1.701-0.427 0-1.029-0.248-1.029-1.065 0-0.918 0.676-1.134 1.526-1.275 0.919-0.143 1.31-0.283 1.522-0.458v1.097h1e-3zm-117.18 3.082v-11.622h-2.27v8.078h-0.034l-4.606-8.078h-2.553v11.622h2.268v-8.291h0.038l4.747 8.291h2.41zm9.814-3.684v-0.428c0-3.933-2.339-4.713-4.038-4.713-3.792 0-4.147 3.297-4.147 4.325 0 3.578 1.877 4.712 4.289 4.712 1.488 0 3.189-0.672 3.793-2.729h-2.341c-0.178 0.604-0.815 0.921-1.453 0.921-1.808 0-1.949-1.452-2.022-2.09l5.919 2e-3zm13.078-4.926h-2.338l-1.348 6.164h-0.035l-1.312-6.164h-2.27l-1.202 6.164h-0.038l-1.347-6.164h-2.409l2.409 8.609h2.338l1.348-6.271h0.035l1.348 6.271h2.339l2.482-8.609zm13.182-3.012h-2.767l-2.302 5.067-2.41-5.067h-2.87l4.041 7.229v4.394h2.408v-4.357l3.9-7.266zm7.618 7.3c0-3.085-2.09-4.502-4.395-4.502-2.304 0-4.394 1.417-4.394 4.502 0 3.118 2.089 4.535 4.394 4.535s4.395-1.417 4.395-4.535m6.59-2.197v-2.27c-0.142-0.036-0.315-0.036-0.458-0.036-1.384 0-1.881 0.816-2.34 1.701h-0.036v-1.487h-2.161v8.609h2.231v-4.499c0-0.922 0.356-2.056 2.092-2.056 0.214 2e-3 0.46 2e-3 0.672 0.038m9.355 6.519-3.152-5.28 3.049-3.329h-2.766l-2.87 3.26v-6.272h-2.271v11.622h2.271v-2.729l0.959-0.956 2.053 3.684h2.727zm14.494-3.97h-2.445c-0.282 1.417-1.201 2.162-2.549 2.162-2.057 0-2.905-1.876-2.905-3.968 0-3.26 1.735-4.041 2.905-4.041 1.982 0 2.375 1.313 2.549 1.984h2.445c-0.142-1.7-1.558-4.108-5.031-4.108-2.977 0-5.352 2.091-5.352 6.13 0 4.041 2.233 6.13 5.317 6.13 2.905 0 4.572-1.772 5.066-4.289m3.65-4.64h-2.23v8.609h2.23v-8.609zm6.132 8.681v-1.736c-0.179 0.036-0.319 0.036-0.462 0.036-0.923 0-0.956-0.179-0.956-0.676v-4.678h1.418v-1.628h-1.418v-2.339h-2.269v2.339h-1.17v1.628h1.17v5.212c0 1.132 0.354 1.877 2.339 1.877h0.282c0.356 1e-3 0.711-0.035 1.066-0.035m-6.132-11.8h-2.23v2.091h2.23v-2.091zm15.557 3.119h-2.375l-1.77 6.344h-0.037l-1.844-6.344h-2.516l3.154 8.965c-0.212 1.169-0.673 1.311-1.488 1.311-0.178 0-0.318-0.035-0.426-0.035v1.809c0.321 0 0.71 0.036 1.025 0.036 1.951 0 2.199-0.463 3.332-3.616l2.945-8.47zm12.189-0.958v-2.054h-9.463v2.054h3.511v9.568h2.442v-9.568h3.51zm5.6 3.049v-2.27c-0.141-0.036-0.281-0.036-0.427-0.036-1.382 0-1.912 0.816-2.374 1.701h-0.034v-1.487h-2.161v8.609h2.27v-4.499c0-0.922 0.316-2.056 2.091-2.056 0.208 2e-3 0.457 2e-3 0.635 0.038m8.787 6.519v-0.353c-0.283-0.072-0.497-0.319-0.497-1.349v-4.641c0-2.125-2.229-2.481-3.438-2.481-1.77 0-3.577 0.356-3.858 3.014h2.195c0.069-0.532 0.248-1.204 1.382-1.204 0.604 0 1.488 0.033 1.488 0.992 0 0.496-0.424 0.638-0.778 0.673l-2.056 0.317c-1.416 0.212-2.48 1.063-2.48 2.766 0 1.771 1.313 2.479 2.621 2.479 1.523 0 2.27-0.708 2.768-1.242 0.032 0.499 0.068 0.641 0.209 1.028l2.444 1e-3zm9.319 0v-5.953c0-1.913-1.312-2.871-3.011-2.871-1.631 0-2.27 0.958-2.586 1.489h-0.037v-1.275h-2.162v8.609h2.268v-4.923c0-1.313 0.78-1.987 1.771-1.987 1.453 0 1.49 1.063 1.49 1.666v5.244l2.267 1e-3zm9.428-2.729c0-3.189-5.386-2.195-5.386-3.542 0-0.391 0.175-0.853 1.38-0.853 1.242 0 1.454 0.567 1.522 1.133h2.235c-0.18-2.441-2.198-2.834-3.864-2.834-2.692 0-3.474 1.596-3.474 2.871 0 3.225 5.315 2.125 5.315 3.579 0 0.319-0.248 0.887-1.414 0.887-1.42 0-1.883-0.531-1.883-1.275h-2.338c0.071 2.304 2.196 2.977 4.146 2.977 1.351-1e-3 3.761-0.426 3.761-2.943m4.003-5.881h-2.266v8.609h2.266v-8.609zm6.414 8.681v-1.736c-0.143 0.036-0.318 0.036-0.46 0.036-0.921 0-0.921-0.179-0.921-0.676v-4.678h1.381v-1.628h-1.381v-2.339h-2.268v2.339h-1.17v1.628h1.17v5.212c0 1.132 0.354 1.877 2.302 1.877h0.284c0.357 1e-3 0.707-0.035 1.063-0.035m-6.414-11.8h-2.266v2.091h2.266v-2.091z" fill="#0039A6"/>
</svg>
