<svg xmlns="http://www.w3.org/2000/svg" viewBox="0 0 200 36.518" fill="#0039a6"><path d="M24.985 20.599l-.462-3.899h-.106l-.459 3.971 1.027-.072zM21.724 15.6l-1.913-.177V25.56l-2.869.496v-10.88l-2.447-.213V10.96l7.229 1.276V15.6zm5.457 8.683l-1.701.283-.213-1.487-1.629.213-.212 1.628-2.199.389 2.164-12.754 2.055.354 1.735 11.374zm6.06-5.845A17.73 17.73 0 0 0 15.524.718C9.392.718 3.97 3.836.782 8.583l4.925.853L7.053 19.71h.107l1.488-9.744 4.892.852v15.84l-3.083.529v-6.804l.033-3.437h-.142L8.506 27.545l-3.083.528-2.268-11.408h-.104s.14.389.14 4.005v7.795l-2.021.354c3.226 4.463 8.436 7.336 14.353 7.336 9.779 0 17.718-7.937 17.718-17.717m24.909.674h-3.506c.142-1.136.71-1.811 1.771-1.811.71.001 1.631.427 1.735 1.811m33.878.849c0 1.135-.318 2.621-2.055 2.621s-2.056-1.486-2.056-2.621c0-1.099.32-2.588 2.056-2.588s2.055 1.488 2.055 2.588m75.833 1.24c0 1.026-.991 1.701-2.02 1.701-.427 0-1.029-.248-1.029-1.065 0-.918.676-1.134 1.526-1.275.919-.143 1.31-.283 1.522-.458v1.097h.001zm-117.18 3.082V12.661h-2.27v8.078h-.034l-4.606-8.078h-2.553v11.622h2.268v-8.291h.038l4.747 8.291h2.41zm9.814-3.684v-.428c0-3.933-2.339-4.713-4.038-4.713-3.792 0-4.147 3.297-4.147 4.325 0 3.578 1.877 4.712 4.289 4.712 1.488 0 3.189-.672 3.793-2.729h-2.341c-.178.604-.815.921-1.453.921-1.808 0-1.949-1.452-2.022-2.09l5.919.002zm13.078-4.926h-2.338l-1.348 6.164h-.035l-1.312-6.164h-2.27l-1.202 6.164h-.038l-1.347-6.164h-2.409l2.409 8.609h2.338l1.348-6.271h.035l1.348 6.271h2.339l2.482-8.609zm13.182-3.012h-2.767l-2.302 5.067-2.41-5.067h-2.87l4.041 7.229v4.394h2.408v-4.357l3.9-7.266zm7.618 7.3c0-3.085-2.09-4.502-4.395-4.502s-4.394 1.417-4.394 4.502c0 3.118 2.089 4.535 4.394 4.535s4.395-1.417 4.395-4.535m6.59-2.197v-2.27c-.142-.036-.315-.036-.458-.036-1.384 0-1.881.816-2.34 1.701h-.036v-1.487h-2.161v8.609h2.231v-4.499c0-.922.356-2.056 2.092-2.056.214.002.46.002.672.038m9.355 6.519l-3.152-5.28 3.049-3.329h-2.766l-2.87 3.26v-6.272h-2.271v11.622h2.271v-2.729l.959-.956 2.053 3.684h2.727zm14.494-3.97h-2.445c-.282 1.417-1.201 2.162-2.549 2.162-2.057 0-2.905-1.876-2.905-3.968 0-3.26 1.735-4.041 2.905-4.041 1.982 0 2.375 1.313 2.549 1.984h2.445c-.142-1.7-1.558-4.108-5.031-4.108-2.977 0-5.352 2.091-5.352 6.13s2.233 6.13 5.317 6.13c2.905 0 4.572-1.772 5.066-4.289m3.65-4.64h-2.23v8.609h2.23v-8.609zm6.132 8.681v-1.736c-.179.036-.319.036-.462.036-.923 0-.956-.179-.956-.676V17.3h1.418v-1.628h-1.418v-2.339h-2.269v2.339h-1.17V17.3h1.17v5.212c0 1.132.354 1.877 2.339 1.877h.282l1.066-.035m-6.132-11.8h-2.23v2.091h2.23v-2.091zm15.557 3.119h-2.375l-1.77 6.344h-.037l-1.844-6.344h-2.516l3.154 8.965c-.212 1.169-.673 1.311-1.488 1.311-.178 0-.318-.035-.426-.035v1.809l1.025.036c1.951 0 2.199-.463 3.332-3.616l2.945-8.47zm12.189-.958v-2.054h-9.463v2.054h3.511v9.568h2.442v-9.568h3.51zm5.6 3.049v-2.27c-.141-.036-.281-.036-.427-.036-1.382 0-1.912.816-2.374 1.701h-.034v-1.487h-2.161v8.609h2.27v-4.499c0-.922.316-2.056 2.091-2.056.208.002.457.002.635.038m8.787 6.519v-.353c-.283-.072-.497-.319-.497-1.349V17.94c0-2.125-2.229-2.481-3.438-2.481-1.77 0-3.577.356-3.858 3.014h2.195c.069-.532.248-1.204 1.382-1.204.604 0 1.488.033 1.488.992 0 .496-.424.638-.778.673l-2.056.317c-1.416.212-2.48 1.063-2.48 2.766 0 1.771 1.313 2.479 2.621 2.479 1.523 0 2.27-.708 2.768-1.242a2.85 2.85 0 0 0 .209 1.028l2.444.001zm9.319 0V18.33c0-1.913-1.312-2.871-3.011-2.871-1.631 0-2.27.958-2.586 1.489h-.037v-1.275h-2.162v8.609h2.268v-4.923c0-1.313.78-1.987 1.771-1.987 1.453 0 1.49 1.063 1.49 1.666v5.244l2.267.001zm9.428-2.729c0-3.189-5.386-2.195-5.386-3.542 0-.391.175-.853 1.38-.853 1.242 0 1.454.567 1.522 1.133h2.235c-.18-2.441-2.198-2.834-3.864-2.834-2.692 0-3.474 1.596-3.474 2.871 0 3.225 5.315 2.125 5.315 3.579 0 .319-.248.887-1.414.887-1.42 0-1.883-.531-1.883-1.275h-2.338c.071 2.304 2.196 2.977 4.146 2.977 1.351-.001 3.761-.426 3.761-2.943m4.003-5.881h-2.266v8.609h2.266v-8.609zm6.414 8.681v-1.736c-.143.036-.318.036-.46.036-.921 0-.921-.179-.921-.676V17.3h1.381v-1.628h-1.381v-2.339h-2.268v2.339h-1.17V17.3h1.17v5.212c0 1.132.354 1.877 2.302 1.877h.284l1.063-.035m-6.414-11.8h-2.266v2.091h2.266v-2.091z"/></svg>