<svg xmlns="http://www.w3.org/2000/svg" viewBox="1.2 1.6 236.4 93.4" fill="#0278bf"><path d="M34.5 94.9c-18.6 0-33.3-14.1-33.3-32 0-18.3 14.7-32.7 33.4-32.7 18.5 0 32.5 13.8 32.5 32 0 18.4-14.2 32.7-32.6 32.7m-.2-50.7c-10 0-17.6 7.9-17.6 18.4 0 10.3 7.7 18.3 17.6 18.3s17.6-8 17.6-18.4-7.6-18.3-17.6-18.3"/><path d="M117.8 86.1c-3.9 3.4-5.7 4.5-9.1 6-4.3 1.8-9.2 2.8-14.2 2.8-18.3 0-31.3-13.3-31.3-32.1 0-19.1 13.1-32.6 31.8-32.6 5.2 0 10.4 1.1 14.7 3.2 3.3 1.5 5 2.8 8.9 6.4L109 49.9c-4.4-3.8-8.7-5.6-13.4-5.6-10.1 0-17 7.4-17 18.2s7.5 18.6 17.9 18.6c5.2 0 9.1-1.7 12.4-5.4l8.9 10.4zM55.5 24.9c-3-7.5.4-12.5 3.1-14.4 3.6-2.5 8.8-3.4 12.5-5.6 3.4-2.1 3.4-3.3 3.4-3.3s1.3 7.6-1 13.9-3.9 7.4-3.9 7.4-3.3-1.8-8.6-.8c0 0 5.5-6 6.4-7.9L55.5 24.9zm-.5 2.7c1.4-3.1 5.8-4.4 8.2-4.5 2.3-.1 4.1.4 8 1.8 7.5 2.7 10.9 1.8 10.9 1.8S75 33 67.9 35.1c-3.9 1.2-8.1.5-10.2-1.5C54.9 31.2 55 29 55 29s8.5 1.4 13 .3l-13-1.7zM44.7 9.8l4.9-.1s5.8 14 2.8 22.1c-.1.1-2.7-15.1-7.7-22m76.5 35.4H139c2.1 0 4.1.1 6.2.4s4 .9 5.6 1.8c1.7.9 3 2.1 4 3.7s1.5 3.7 1.5 6.4-.8 5-2.3 6.8-3.5 3.1-6 3.9v.1c1.6.2 3 .7 4.3 1.3 1.3.7 2.4 1.5 3.3 2.5s1.6 2.2 2.1 3.6.7 2.8.7 4.4c0 2.6-.5 4.7-1.6 6.4a14.02 14.02 0 0 1-4.2 4.2c-1.7 1.1-3.6 1.8-5.8 2.3-2.1.5-4.3.7-6.4.7h-19.5V45.2h.3zm10.5 19.4h7.6c.8 0 1.6-.1 2.4-.3s1.5-.5 2.1-.9 1.1-1 1.5-1.6c.4-.7.6-1.5.6-2.5s-.2-1.8-.6-2.5a3.53 3.53 0 0 0-1.7-1.5c-.7-.4-1.4-.6-2.3-.8s-1.7-.2-2.5-.2h-7.1v10.3zm0 20.1h9.4c.8 0 1.6-.1 2.5-.3.8-.2 1.6-.5 2.3-1s1.2-1.1 1.7-1.8c.4-.7.6-1.6.6-2.7s-.3-2.1-.8-2.8c-.6-.7-1.3-1.2-2.1-1.6-.9-.4-1.8-.6-2.8-.8l-2.8-.2h-8v11.2h0zm69.6-9.7c0 2.9-.4 5.5-1.3 8-.9 2.4-2.1 4.5-3.8 6.3s-3.8 3.2-6.3 4.2-5.4 1.5-8.7 1.5-6.2-.5-8.8-1.5c-2.5-1-4.6-2.4-6.3-4.2s-3-3.9-3.8-6.3c-.9-2.4-1.3-5.1-1.3-8V45.2h10.5v29.4c0 1.5.2 2.9.7 4.2s1.1 2.4 2 3.3 1.9 1.7 3.1 2.2 2.5.8 3.9.8 2.7-.3 3.8-.8c1.2-.5 2.2-1.3 3-2.2.9-.9 1.5-2 2-3.3s.7-2.7.7-4.2V45.2h10.5V75h.1zm18 18.6c2.4 0 4.8-.3 7-.9s4.1-1.5 5.8-2.8 3-2.8 4-4.8c1-1.9 1.5-4.2 1.5-6.7 0-2.7-.5-4.8-1.6-6.5-1.1-1.6-2.4-2.9-4-3.8-1.6-1-3.4-1.7-5.2-2.2l-5.2-1.6c-1.6-.5-3-1.2-4-1.9-1.1-.7-1.6-1.8-1.6-3.2 0-.9.2-1.6.7-2.2.4-.6 1-1.1 1.7-1.5s1.5-.6 2.3-.8 1.6-.3 2.3-.3h-.2 13.1V45H223c-2.3 0-4.6.3-6.7.9-2.2.6-4.1 1.6-5.8 2.8-1.7 1.3-3 2.8-4 4.7s-1.5 4-1.5 6.5c0 2.6.5 4.6 1.6 6.2s2.5 2.8 4.1 3.8 3.4 1.7 5.3 2.3l5.3 1.7c1.6.6 3 1.2 4.1 2.1 1.1.8 1.6 1.9 1.6 3.3 0 .8-.2 1.5-.6 2.2-.4.6-1 1.1-1.7 1.5s-1.5.7-2.3.9c-.9.2-1.7.3-2.6.3h-14.2v9.4h13.7z"/></svg>