<svg xmlns="http://www.w3.org/2000/svg" xmlns:xlink="http://www.w3.org/1999/xlink" version="1.1" id="Layer_1" x="0px" y="0px" style="enable-background:new 0 0 230 230;" xml:space="preserve" viewBox="87.27 92.37 55.31 44.55">
<style type="text/css">
	.st0{fill:#1D417F;}
</style>
<polygon class="st0" points="121.43,111.94 115.17,111.94 115.71,136.48 118.72,136.48 117.03,115.75 121.43,115.75 "/>
<path class="st0" d="M100.58,122.78c2.4,0,2.79-0.8,2.79-2.96c0-2.11-0.35-2.92-2.79-2.92V122.78z M95.25,136.47v-22.84h5.36  c5.07,0,8.08,0.51,8.08,5.33c0,2.86-1.18,4.72-4.07,5.2v0.07c2.57,0.06,4.07,1.03,4.07,4.3v4.78c0,0.9,0.16,2.25,0.8,3.18h-5.36  c-0.64-0.93-0.77-2.28-0.77-3.18v-4.84c0-1.6-0.96-2.4-1.93-2.4h-0.87v10.42H95.25z"/>
<path class="st0" d="M134.45,127.59v3.01c0,4.27-2.28,6.32-6.77,6.32c-3.53,0-6.7-1.44-6.7-6.67v-10.4c0-5.23,3.18-6.67,6.7-6.67  c3.88,0,6.77,1.16,6.77,6.1v2.5h-5.32v-3.14c0-0.93-0.29-1.8-1.44-1.8c-1.09,0-1.38,0.87-1.38,1.8v12.83c0,0.93,0.29,1.79,1.38,1.79  c1.15,0,1.44-0.87,1.44-1.79l0.03-3.88H134.45z"/>
<polygon class="st0" points="114.41,136.47 114.96,111.94 108.66,111.94 108.66,115.75 113.06,115.75 111.37,136.47 "/>
<polygon class="st0" points="133.17,111.08 142.58,109.44 142.55,109.44 132.03,110.59 "/>
<polygon class="st0" points="131.42,110.22 141.86,107.38 141.84,107.39 130.23,109.7 "/>
<polygon class="st0" points="96.37,111.08 87.27,109.48 87.29,109.49 97.47,110.59 "/>
<polygon class="st0" points="98.65,110.17 88.01,107.28 88.03,107.29 99.84,109.63 "/>
<path class="st0" d="M140.77,105.33l-13.09,3.6c0,0.01-0.13-0.22-0.14-0.22l11.68-5.72l-0.01,0.01l-12.33,4.92  c-0.04-0.05-0.13-0.15-0.17-0.19l10.78-6.71l-0.02,0.01l-11.5,5.94c-0.06-0.06-0.27-0.19-0.27-0.19l9.93-7.57l-0.02,0.01  l-10.79,6.87c-0.07-0.05-0.19-0.15-0.26-0.2l8.84-8.27l-0.01,0.01l-9.82,7.67c-0.07-0.04-0.21-0.11-0.29-0.15l7.38-9.08l-0.01,0.01  l-8.44,8.56c-0.06-0.03-0.17-0.06-0.23-0.09l5.97-9.69l-0.01,0.01l-7.09,9.24c-0.15-0.05-0.35-0.11-0.5-0.15l4.29-10.21l-0.01,0.01  l-5.48,9.88c-0.11-0.02-0.26-0.05-0.37-0.07l2.89-10.47l-0.01,0.01l-4.13,10.27c-0.11-0.01-0.24-0.05-0.35-0.06l1.09-10.73l0,0.02  l-2.35,10.61c-0.06,0-0.14,0.01-0.2,0.01l-0.55-10.85v-0.01l-0.75,10.87c-0.06,0-0.14,0-0.2,0l-2.19-10.73v-0.02l0.91,10.85  c-0.1,0.01-0.23,0.01-0.34,0.03l-3.99-10.42l0-0.02l2.74,10.64c-0.15,0.03-0.33,0.07-0.33,0.07l-5.39-10.11l-0.01-0.01l4.17,10.44  l-0.46,0.14l-7.04-9.51l-0.01-0.01l5.89,9.95c0-0.01-0.18,0.08-0.18,0.08l-8.43-8.86l-0.01-0.01l7.35,9.39c0,0-0.15,0.08-0.22,0.12  l-9.89-7.99l-0.01-0.01l8.88,8.6c-0.07,0.05-0.16,0.11-0.23,0.16l-10.9-7.19l-0.01-0.01l9.98,7.9c-0.06,0.05-0.12,0.13-0.18,0.18  l-11.66-6.29l-0.02-0.01l10.88,7.04c-0.04,0.04-0.1,0.1-0.14,0.14l-12.49-5.24l-0.02-0.01l11.86,6.07  c-0.05,0.07-0.14,0.16-0.19,0.23l-13.26-3.99l-0.02,0l12.65,4.84l5.52-2.29l2.42,1.03l5.42-2.3l4.46,2.48l4.16-0.83l2.73,1.38  l1.58,0.72l12.54-4.52L140.77,105.33z"/>
</svg>