<svg xmlns="http://www.w3.org/2000/svg" viewBox="87.27 92.37 55.31 44.55" fill="#1d417f"><path d="M121.43 111.94h-6.26l.54 24.54h3.01l-1.69-20.73h4.4zm-20.85 10.84c2.4 0 2.79-.8 2.79-2.96 0-2.11-.35-2.92-2.79-2.92v5.88zm-5.33 13.69v-22.84h5.36c5.07 0 8.08.51 8.08 5.33 0 2.86-1.18 4.72-4.07 5.2v.07c2.57.06 4.07 1.03 4.07 4.3v4.78c0 .9.16 2.25.8 3.18h-5.36c-.64-.93-.77-2.28-.77-3.18v-4.84c0-1.6-.96-2.4-1.93-2.4h-.87v10.42h-5.31zm39.2-8.88v3.01c0 4.27-2.28 6.32-6.77 6.32-3.53 0-6.7-1.44-6.7-6.67v-10.4c0-5.23 3.18-6.67 6.7-6.67 3.88 0 6.77 1.16 6.77 6.1v2.5h-5.32v-3.14c0-.93-.29-1.8-1.44-1.8-1.09 0-1.38.87-1.38 1.8v12.83c0 .93.29 1.79 1.38 1.79 1.15 0 1.44-.87 1.44-1.79l.03-3.88h5.29zm-20.04 8.88l.55-24.53h-6.3v3.81h4.4l-1.69 20.72zm18.76-25.39l9.41-1.64h-.03l-10.52 1.15zm-1.75-.86l10.44-2.84-.02.01-11.61 2.31zm-35.05.86l-9.1-1.6.02.01 10.18 1.1zm2.28-.91l-10.64-2.89.02.01 11.81 2.34zm42.12-4.84l-13.09 3.6c0 .01-.13-.22-.14-.22l11.68-5.72-.01.01-12.33 4.92a3.25 3.25 0 0 0-.17-.19l10.78-6.71-.02.01-11.5 5.94c-.06-.06-.27-.19-.27-.19l9.93-7.57-.02.01-10.79 6.87-.26-.2 8.84-8.27-.01.01-9.82 7.67-.29-.15 7.38-9.08-.01.01-8.44 8.56c-.06-.03-.17-.06-.23-.09l5.97-9.69-.01.01-7.09 9.24-.5-.15 4.29-10.21-.01.01-5.48 9.88-.37-.07 2.89-10.47-.01.01-4.13 10.27c-.11-.01-.24-.05-.35-.06l1.09-10.73v.02l-2.35 10.61-.2.01-.55-10.85v-.01l-.75 10.87h-.2l-2.19-10.73v-.02l.91 10.85-.34.03-3.99-10.42v-.02l2.74 10.64-.33.07-5.39-10.11-.01-.01 4.17 10.44-.46.14-7.04-9.51-.01-.01 5.89 9.95c0-.01-.18.08-.18.08l-8.43-8.86-.01-.01 7.35 9.39-.22.12-9.89-7.99-.01-.01 8.88 8.6-.23.16-10.9-7.19-.01-.01 9.98 7.9c-.06.05-.12.13-.18.18l-11.66-6.29-.02-.01 10.88 7.04-.14.14-12.49-5.24-.02-.01 11.86 6.07c-.05.07-.14.16-.19.23l-13.26-3.99h-.02l12.65 4.84 5.52-2.29 2.42 1.03 5.42-2.3 4.46 2.48 4.16-.83 2.73 1.38 1.58.72 12.54-4.52.03-.01z"/></svg>