<svg id="Layer_1" data-name="Layer 1" xmlns="http://www.w3.org/2000/svg" viewBox="0 0 575.39 87.62"><defs><style>.cls-1{fill:#0365a5;}.cls-2{fill:#fed208;}.cls-3{fill:#fdd208;}.cls-4{fill:#0866a4;}.cls-5{fill:#0665a4;}.cls-6{fill:#cfdfec;}.cls-7{fill:#0065a5;}.cls-8{fill:#00518a;}.cls-9{fill:#fed206;}.cls-10{fill:#f4b552;}</style></defs><text x="-28.61" y="-176.91"/><path class="cls-1" d="M197.78,210.33c-3.72,0-6.54-1.29-8.42-4.17-4-6.12,2.87-20.07,10.13-20.16,17-.2,34.1-.14,51.15.05,1.83,0,3.62,1.66,5.48,2.41,1,.4,2.24,1,3.08.65,14.63-5.53,29.15-6.06,43.53.82,1.55.74,2.37.63,3.85-.71a12.44,12.44,0,0,1,7-3.17c6.8-.42,13.63-.19,20.45-.13,5,0,8,2.75,8.88,7.72a6.53,6.53,0,0,0,.81,1.66,5.84,5.84,0,0,0,1.22-1.21c.64-1.17.91-2.66,1.79-3.57,1.61-1.64,3.44-4,5.37-4.2,4.65-.49,9.41.1,14.12.26a17.37,17.37,0,0,0,2.59.1,42.17,42.17,0,0,1,4.52-.75c12.5-.06,25-.18,37.5.1,2.43.05,4.79,1.87,7.25,2.64a6.28,6.28,0,0,0,3.77.21c10.4-3.86,21.08-5.21,31.9-2.82,4.18.93,8.11,3.36,11.89,5.57,1.58.93,2.44,1.33,4.17.39a56.79,56.79,0,0,1,38.61-6c3.44.66,6.6,2.74,10,4a2.6,2.6,0,0,0,2.32-.37,9.42,9.42,0,0,1,8-3.8c9.3.08,18.61-.24,27.89.21A39.37,39.37,0,0,1,569.4,189c6.78,2.78,10.44,9.9,9.53,17.17a31.28,31.28,0,0,1-15.06,23.72,3.27,3.27,0,0,0-1.81,4c1,6.11,1.81,12.25,2.6,18.4a8.69,8.69,0,0,1-8.83,10c-6,0-12-.11-18,0-3.82.11-7.15-.7-9.8-3.83-2.73,3.18-6.19,3.94-10.09,3.83-5.58-.15-11.18.23-16.73-.16a14,14,0,0,1-6.91-2.74,3.18,3.18,0,0,0-3.7-.52c-12.49,4.94-25.37,5.19-38.33,2.54-3.23-.66-6.15-2.76-9.28-4a4.58,4.58,0,0,0-3.21-.16c-15.46,7-31.21,7.68-47.31,2.55a5.22,5.22,0,0,0-2.67.4c-2.22.64-4.41,1.93-6.62,2-12.29.19-24.59.06-36.89.11-3.79,0-7-1.07-8.82-4.56-1.05-2-2-.67-3-.19a50.85,50.85,0,0,1-35.19,4.09c-4.25-1-8.14-3.54-12.38-5.47-1.78,5.5-6.77,6.61-12.56,6.1-3.76-.33-7.52-1-11.28-1-2.4,0-4.78,1-7.2,1.35-11.93,1.78-23.69-2.61-27.84-13.79-1.43-3.88-2-8.07-3-12.22-.36.66-.85,1.48-1.25,2.34-2.7,5.8-5.44,11.59-8,17.43-1.81,4.08-4.91,5.94-9.26,5.94-6.09,0-12.19,0-18.28,0-7.64-.05-11.55-6.19-8.35-13.19,5.42-11.82,10.94-23.6,16.41-35.4C196.79,212.61,197.23,211.58,197.78,210.33Zm212.68-8.15,3.91-9.28c-1.06-.05-1.85-.11-2.63-.11-12.71,0-25.41.06-38.11-.07-2.14,0-3,.75-3.87,2.57q-13.1,28.56-26.35,57c-.41.91-.77,1.83-1.28,3.06,14.32,0,28.25,0,42.17-.08.71,0,1.59-1,2.07-1.76,1.29-2,2.41-4.19,3.6-6.29.56,1.34.78,3.07,1.77,3.92a15.33,15.33,0,0,0,5.34,2.9c9.34,2.94,18.85,2.49,28.33.88,7.7-1.31,14.46-4.53,19.67-10.56a8.32,8.32,0,0,1,1.46-1.07,12.88,12.88,0,0,1-.45,1.78c-1.92,4.62-1.39,6,3.23,8.13a16.15,16.15,0,0,0,2.6.94c12.26,3.19,24.47,2.92,36.28-1.67,10.25-4,16.12-11.78,17.43-22.81.68-5.72-1.74-10.21-7-12.49a89.39,89.39,0,0,0-8.75-2.85l.8-.59c5.26,0,10.53-.18,15.79,0,2.37.07,3.85-.5,4.77-2.83s2.32-4.6,3.5-6.89c3.33-6.48,2.78-7.84-4.24-10.44a18.82,18.82,0,0,0-2.66-.77c-13.53-2.77-26.19-.62-37.73,7a23.24,23.24,0,0,0-10.74,16.65c-.87,6.21,1.72,11,7.5,13.41,2.74,1.15,5.59,2,8.38,3.08,5.33,2,6.1,4.62,2.49,9a11.53,11.53,0,0,1-3.86,2.95c-1,.46-2.69.64-3.38.08s-.91-2.26-.71-3.34c.48-2.48,1.33-4.9,2.16-7.76-5.13,0-9.95.12-14.77,0-3-.09-5.86-.09-7.57,3,.45-2.1,1-4.18,1.31-6.3,1-6.72-1.46-11.13-7.73-13.7-2.54-1-5.25-1.67-7.87-2.49l.79-.59c5.46,0,10.93-.16,16.38,0a3.75,3.75,0,0,0,4-2.52c1.69-3.64,3.52-7.22,5.54-10.69,1.1-1.87.63-2.93-.91-4.09-4.65-3.52-10.08-4.67-15.65-4.76-12.81-.22-24.63,2.77-34.39,11.68Zm121,32.82.53.1c.43,6,.79,11.94,1.33,17.9.07.83.95,2.27,1.48,2.28,7.72.15,15.44.1,23.44.1-.16-1.61-.26-2.92-.44-4.22-1-7.16-1.9-14.32-3-21.46-.29-1.9,0-2.77,1.94-3.58a24.74,24.74,0,0,0,14.18-14.72c3.8-10.1.1-16.51-10.49-18.38a24.33,24.33,0,0,0-4-.21c-9.09,0-18.17.06-27.26-.08a3.59,3.59,0,0,0-3.91,2.51q-13.15,28.68-26.48,57.3c-.37.81-.64,1.66-1.1,2.85,7.55,0,14.74-.07,21.93.05a3.2,3.2,0,0,0,3.46-2.25C525.8,247.09,528.67,241.06,531.49,235ZM265.73,251.1c-1.32,4.7,1.27,4.38,3.78,4.31s5.17-.14,7.74,0a3.25,3.25,0,0,0,3.72-2.3c3.79-8.71,7.75-17.33,11.64-26a24.84,24.84,0,0,0,.8-2.52c-9.12,0-17.88,0-26.64,0a2.65,2.65,0,0,0-2,1.08c-1.46,2.77-2.74,5.65-4.33,9h7.25l.6.83a89.19,89.19,0,0,1-6.65,7.81c-1.18,1.12-3.25,1.29-4.92,1.89-.12-1.77-.71-3.65-.3-5.29A100.71,100.71,0,0,1,268.74,211a40.53,40.53,0,0,1,5.9-7.12c1-1,2.68-1.22,4.06-1.79a17,17,0,0,1-.09,4.29c-1.13,4-2.52,8-3.92,12.35,6.38,0,12.45.06,18.52-.08.69,0,1.63-1.08,2-1.87,2.65-5.71,5.16-11.49,7.77-17.21.55-1.21.66-1.85-.8-2.59-9.58-4.9-19.67-6.67-30.24-4.64a48.89,48.89,0,0,0-39.17,44.87c-.69,11.36,6.23,18.62,17.57,18.85C255.82,256.21,260.63,254.64,265.73,251.1Zm100.16-58.32c-3.92,0-7.23.14-10.51-.05-2-.11-2.89.68-3.67,2.4C346.35,207,341,218.82,335.44,230.59a41.53,41.53,0,0,1-5.31,9c-1.53,1.84-4,3.07-6.34,4s-5.33,1.23-7.2-1c-2-2.41-.17-4.93.88-7.21,6-13.11,12.18-26.2,18.27-39.3.47-1,.88-2,1.43-3.33-8.17,0-16-.05-23.83.08a3.41,3.41,0,0,0-2.39,1.73c-5.73,12.25-11.45,24.5-16.91,36.86a45.45,45.45,0,0,0-3.31,11.23c-.88,5.58,1.86,9.38,7.11,11.6S308.57,256.16,314,256c13.19-.47,24.08-5.71,30.24-17.65C351.86,223.59,358.54,208.37,365.89,192.78Zm-113,0c-17.89,0-35.24,0-52.59,0-.63,0-1.6.25-1.83.68-1.65,3.14-3.16,6.35-4.89,9.9h14.81l-24.06,52c7.53,0,14.51-.11,21.49.07,2.33.06,3.41-.73,4.36-2.81,7.15-15.68,14.45-31.29,21.62-47,.79-1.73,1.65-2.51,3.64-2.41,3.51.18,7,.13,10.54,0a3.27,3.27,0,0,0,2.45-1.17C250,199.22,251.28,196.19,252.88,192.78Z" transform="translate(-28.61 -176.91)"/><path class="cls-2" d="M531.49,235c-2.82,6.06-5.69,12.09-8.41,18.19a3.2,3.2,0,0,1-3.46,2.25c-7.19-.12-14.38-.05-21.93-.05.46-1.19.73-2,1.1-2.85q13.26-28.65,26.48-57.3a3.59,3.59,0,0,1,3.91-2.51c9.09.14,18.17.06,27.26.08a24.33,24.33,0,0,1,4,.21c10.59,1.87,14.29,8.28,10.49,18.38a24.74,24.74,0,0,1-14.18,14.72c-2,.81-2.23,1.68-1.94,3.58,1.11,7.14,2,14.3,3,21.46.18,1.3.28,2.61.44,4.22-8,0-15.72.05-23.44-.1-.53,0-1.41-1.45-1.48-2.28-.54-6-.9-11.94-1.33-17.9Zm7-15.27a5,5,0,0,0,1.14.23c5.17-1.26,11.45-10.18,11-15.71,0-.54-.71-1.49-1-1.46-1.19.13-3,.21-3.41,1C543.5,208.9,541.1,214.21,538.49,219.73Z" transform="translate(-28.61 -176.91)"/><path class="cls-2" d="M265.73,251.1c-5.1,3.54-9.91,5.11-15.39,5-11.34-.23-18.26-7.49-17.57-18.85a48.89,48.89,0,0,1,39.17-44.87c10.57-2,20.66-.26,30.24,4.64,1.46.74,1.35,1.38.8,2.59-2.61,5.72-5.12,11.5-7.77,17.21-.37.79-1.31,1.85-2,1.87-6.07.14-12.14.08-18.52.08,1.4-4.34,2.79-8.31,3.92-12.35a17,17,0,0,0,.09-4.29c-1.38.57-3.09.81-4.06,1.79a40.53,40.53,0,0,0-5.9,7.12A100.71,100.71,0,0,0,256.46,240c-.41,1.64.18,3.52.3,5.29,1.67-.6,3.74-.77,4.92-1.89a89.19,89.19,0,0,0,6.65-7.81l-.6-.83h-7.25c1.59-3.36,2.87-6.24,4.33-9a2.65,2.65,0,0,1,2-1.08c8.76-.07,17.52,0,26.64,0a24.84,24.84,0,0,1-.8,2.52c-3.89,8.67-7.85,17.29-11.64,26a3.25,3.25,0,0,1-3.72,2.3c-2.57-.16-5.16-.1-7.74,0S264.41,255.8,265.73,251.1Z" transform="translate(-28.61 -176.91)"/><path class="cls-3" d="M411.09,203.35c9.76-8.91,21.58-11.9,34.39-11.68,5.57.09,11,1.24,15.65,4.76,1.54,1.16,2,2.22.91,4.09-2,3.47-3.85,7-5.54,10.69a3.75,3.75,0,0,1-4,2.52c-5.45-.12-10.92,0-16.38,0a41.4,41.4,0,0,0,1.22-4.94c.27-2.14.77-6,.26-6.18-2.78-.86-5,1-6.69,3.14-3.34,4-2.55,6.65,2.34,8.09.68.2,1.38.32,2.08.48,2.62.82,5.33,1.45,7.87,2.49,6.27,2.57,8.72,7,7.73,13.7-.3,2.12-.86,4.2-1.31,6.3l-3.07,6.48a8.32,8.32,0,0,0-1.46,1.07c-5.21,6-12,9.25-19.67,10.56-9.48,1.61-19,2.06-28.33-.88a15.33,15.33,0,0,1-5.34-2.9c-1-.85-1.21-2.58-1.77-3.92a1.81,1.81,0,0,0,.09-.31c.78-1.17,1.65-2.3,2.32-3.53,1.69-3.07,2.56-7.35,5.12-8.93s6.8-.53,10.3-.58c3.13,0,6.26,0,9.58,0-.87,3-1.75,5.48-2.23,8-.62,3.25,1.16,4.67,4.09,3.06a14.37,14.37,0,0,0,4.89-4.48c2.27-3.44,1.55-5.41-2.25-7-3.12-1.3-6.4-2.25-9.52-3.55-5.82-2.43-8.4-7.15-7.57-13.36C405.46,211.45,407.85,207.2,411.09,203.35Z" transform="translate(-28.61 -176.91)"/><path class="cls-3" d="M446.54,243.33l3.07-6.48c1.71-3.08,4.54-3.08,7.57-3,4.82.16,9.64,0,14.77,0-.83,2.86-1.68,5.28-2.16,7.76-.2,1.08,0,2.77.71,3.34s2.41.38,3.38-.08a11.53,11.53,0,0,0,3.86-2.95c3.61-4.37,2.84-7-2.49-9-2.79-1-5.64-1.93-8.38-3.08-5.78-2.44-8.37-7.2-7.5-13.41a23.24,23.24,0,0,1,10.74-16.65c11.54-7.66,24.2-9.81,37.73-7a18.82,18.82,0,0,1,2.66.77c7,2.6,7.57,4,4.24,10.44-1.18,2.29-2.55,4.51-3.5,6.89s-2.4,2.9-4.77,2.83c-5.26-.14-10.53,0-15.79,0a41.4,41.4,0,0,0,1.22-4.94c.27-2.14.77-6,.25-6.18-2.78-.86-4.95,1-6.69,3.14-3.33,4-2.55,6.65,2.34,8.09.69.2,1.39.32,2.08.48a89.39,89.39,0,0,1,8.75,2.85c5.26,2.28,7.68,6.77,7,12.49-1.31,11-7.18,18.82-17.43,22.81-11.81,4.59-24,4.86-36.28,1.67a16.15,16.15,0,0,1-2.6-.94c-4.62-2.15-5.15-3.51-3.23-8.13A12.88,12.88,0,0,0,446.54,243.33Z" transform="translate(-28.61 -176.91)"/><path class="cls-2" d="M365.89,192.78c-7.35,15.59-14,30.81-21.65,45.54C338.08,250.26,327.19,255.5,314,256c-5.43.19-10.91.53-16.16-1.69s-8-6-7.11-11.6A45.45,45.45,0,0,1,294,231.45c5.46-12.36,11.18-24.61,16.91-36.86a3.41,3.41,0,0,1,2.39-1.73c7.83-.13,15.66-.08,23.83-.08-.55,1.31-1,2.33-1.43,3.33-6.09,13.1-12.22,26.19-18.27,39.3-1.05,2.28-2.91,4.8-.88,7.21,1.87,2.21,4.8,1.93,7.2,1s4.81-2.15,6.34-4a41.53,41.53,0,0,0,5.31-9c5.52-11.77,10.91-23.61,16.27-35.46.78-1.72,1.67-2.51,3.67-2.4C358.66,192.92,362,192.78,365.89,192.78Z" transform="translate(-28.61 -176.91)"/><path class="cls-3" d="M390.06,247a1.81,1.81,0,0,1-.09.31c-1.19,2.1-2.31,4.25-3.6,6.29-.48.75-1.36,1.76-2.07,1.76-13.92.1-27.85.08-42.17.08.51-1.23.87-2.15,1.28-3.06q13.2-28.52,26.35-57c.84-1.82,1.73-2.59,3.87-2.57,12.7.13,25.4.06,38.11.07.78,0,1.57.06,2.63.11l-3.91,9.28a9.61,9.61,0,0,1-2.93,1.09c-4.85.12-9.71,0-14.57.1-.9,0-2.3.3-2.61.9-2.18,4.28-4.13,8.67-6.32,13.38h15.85c-1.47,3.2-2.65,6.16-4.19,8.92a4.25,4.25,0,0,1-2.95,1.9c-3.92.22-7.85,0-11.78.13-.81,0-2.07.33-2.34.88-2.36,4.78-4.55,9.65-7,15,5.64,0,10.77.08,15.89,0C389.49,244.35,390.42,244.88,390.06,247Z" transform="translate(-28.61 -176.91)"/><path class="cls-2" d="M252.88,192.78c-1.6,3.41-2.9,6.44-4.46,9.32a3.27,3.27,0,0,1-2.45,1.17c-3.51.13-7,.18-10.54,0-2-.1-2.85.68-3.64,2.41-7.17,15.68-14.47,31.29-21.62,47-.95,2.08-2,2.87-4.36,2.81-7-.18-14-.07-21.49-.07l24.06-52H193.57c1.73-3.55,3.24-6.76,4.89-9.9.23-.43,1.2-.68,1.83-.68C217.64,192.78,235,192.78,252.88,192.78Z" transform="translate(-28.61 -176.91)"/><path class="cls-1" d="M390.06,247c.36-2.07-.57-2.6-2.55-2.55-5.12.12-10.25,0-15.89,0,2.45-5.31,4.64-10.18,7-15,.27-.55,1.53-.86,2.34-.88,3.93-.09,7.86.09,11.78-.13a4.25,4.25,0,0,0,2.95-1.9c1.54-2.76,2.72-5.72,4.19-8.92H384c2.19-4.71,4.14-9.1,6.32-13.38.31-.6,1.71-.89,2.61-.9,4.86-.09,9.72,0,14.57-.1a9.61,9.61,0,0,0,2.93-1.09l.63,1.17c-3.24,3.85-5.63,8.1-6.3,13.2-.83,6.21,1.75,10.93,7.57,13.36,3.12,1.3,6.4,2.25,9.52,3.55,3.8,1.59,4.52,3.56,2.25,7a14.37,14.37,0,0,1-4.89,4.48c-2.93,1.61-4.71.19-4.09-3.06.48-2.5,1.36-4.93,2.23-8-3.32,0-6.45,0-9.58,0-3.5.05-7.73-1-10.3.58s-3.43,5.86-5.12,8.93C391.71,244.65,390.84,245.78,390.06,247Zm-1-12.11c-2.64.87-5.79-1.36-6.91,3C384.75,237.52,387.61,239.34,389,234.84Z" transform="translate(-28.61 -176.91)"/><path class="cls-4" d="M435.32,214.36c-.7-.16-1.4-.28-2.08-.48-4.89-1.44-5.68-4.06-2.34-8.09,1.73-2.09,3.91-4,6.69-3.14.51.16,0,4-.26,6.18a41.4,41.4,0,0,1-1.22,4.94Z" transform="translate(-28.61 -176.91)"/><path class="cls-4" d="M489.88,214.36c-.69-.16-1.39-.28-2.08-.48-4.89-1.44-5.67-4.06-2.34-8.09,1.74-2.09,3.91-4,6.69-3.14.52.16,0,4-.25,6.18a41.4,41.4,0,0,1-1.22,4.94Z" transform="translate(-28.61 -176.91)"/><path class="cls-5" d="M538.49,219.73c2.61-5.52,5-10.83,7.71-16,.38-.74,2.22-.82,3.41-1,.3,0,1,.92,1,1.46.46,5.53-5.82,14.45-11,15.71A5,5,0,0,1,538.49,219.73Z" transform="translate(-28.61 -176.91)"/><path class="cls-6" d="M389,234.84c-1.43,4.5-4.29,2.68-6.91,3C383.25,233.48,386.4,235.71,389,234.84Z" transform="translate(-28.61 -176.91)"/><path class="cls-1" d="M61.17,209.25c-2.82-1.09-5.65-1.69-7.89-3.18-3-2-3.81-5.68-2.52-9.14a71.94,71.94,0,0,1,3.59-8.2A8.17,8.17,0,0,1,62.07,184c15.19,0,30.37,0,45.56,0,6,0,9.79,5.19,8.17,11S112,206,107.59,210.35c-7.37,7.32-14.24,15.14-21.31,22.76-.69.74-1.35,1.52-2.39,2.7,1.84.09,3.21.14,4.58.23a8.46,8.46,0,0,1,7.62,11.44,64,64,0,0,1-3.41,8,8.51,8.51,0,0,1-8.2,5c-15.49,0-31,0-46.48,0-7.47,0-11.26-6-8.47-12.92a43.72,43.72,0,0,1,9.76-15.15C46.86,224.75,54,216.8,61.17,209.25Zm7.17,33.43c1.35-1.5,2.08-2.33,2.84-3.15,10.95-11.76,21.81-23.6,32.91-35.22,3.65-3.81,4.22-8.67,6.29-13.39-16.44,0-32.35,0-48.26,0a2.55,2.55,0,0,0-1.94.95c-1.48,3-2.79,6.14-4.37,9.71H77.59C65.51,214.39,53.93,226.84,42.08,239c-4,4.1-5.35,9.32-8,14.5,17.29,0,34.1,0,50.91-.05a2.46,2.46,0,0,0,1.82-1.15c1.44-3,2.72-6.14,4.23-9.65Z" transform="translate(-28.61 -176.91)"/><path class="cls-2" d="M68.34,242.68H91c-1.51,3.51-2.79,6.62-4.23,9.65A2.46,2.46,0,0,1,85,253.48c-16.81.06-33.62.05-50.91.05,2.65-5.18,4-10.4,8-14.5,11.85-12.19,23.43-24.64,35.51-37.41H55.81c1.58-3.57,2.89-6.68,4.37-9.71a2.55,2.55,0,0,1,1.94-.95c15.91-.05,31.82,0,48.26,0-2.07,4.72-2.64,9.58-6.29,13.39-11.1,11.62-22,23.46-32.91,35.22C70.42,240.35,69.69,241.18,68.34,242.68Z" transform="translate(-28.61 -176.91)"/><circle class="cls-7" cx="117.48" cy="46.32" r="41.3"/><path class="cls-8" d="M136.21,263.33l28.14-28.14,1.81-11.73-12.93-12.93-26.68,11.65-4.24-18.4-17.47,17.4c0,.68,0,1.36,0,2A41.31,41.31,0,0,0,136.21,263.33Z" transform="translate(-28.61 -176.91)"/><path class="cls-9" d="M169.86,225.7A15.85,15.85,0,0,0,154,209.85c-13.45,0-31.7,15.85-31.7,15.85s17.41,15.85,31.7,15.85A15.84,15.84,0,0,0,169.86,225.7Zm-23.77,0a7.93,7.93,0,1,1,7.92,7.93A7.93,7.93,0,0,1,146.09,225.7Z" transform="translate(-28.61 -176.91)"/><path class="cls-10" d="M154,241.55a15.84,15.84,0,0,0,15.85-15.85v-.09h-7.92v.09a7.93,7.93,0,1,1-15.85,0v-.09H122.42l-.11.09S139.72,241.55,154,241.55Z" transform="translate(-28.61 -176.91)"/><ellipse class="cls-9" cx="132.12" cy="31.03" rx="2.9" ry="8.48"/><rect class="cls-7" x="352.77" y="54.69" width="8.94" height="8.94"/></svg>