<svg xmlns="http://www.w3.org/2000/svg" width="301" height="91.906" fill="#00385f"><path d="M147.622 4.061l-34.241 57.497c-3.57 5.913-5.527 11.894-6.067 17.653H93.91c.91-7.277 3.793-14.168 9.62-24.097l23.934-40.145c4.78-7.947 9.551-10.839 18.193-10.839h1.965v-.069zm9.995 30.909c-17.344 0-28.028 10.152-37.416 32.276-2.351 5.527-3.716 12.418 4.317 12.349 4.54-.077 12.195-2.583 17.575-6.299-.455 1.819-.687 4.325-.532 5.836h12.195c.454-4.771 2.274-10.676 6.282-17.876l15.232-25.367c-5.758-.61-11.663-.918-17.653-.918m-12.649 29.392c-2.497 2.351-7.346 5.827-11.431 5.904-2.815-.146-2.961-2.798-1.073-6.436 7.209-13.859 14.855-21.205 24.166-21.137h1.673l-13.336 21.669zM282.916 34.97c-17.344 0-28.019 10.152-37.416 32.276-2.351 5.527-3.716 12.418 4.317 12.349 4.548-.077 12.195-2.583 17.575-6.299-.454 1.819-.687 4.325-.532 5.836h12.203c.446-4.771 2.266-10.676 6.282-17.876L300.5 35.888a167.64 167.64 0 0 0-17.584-.918m-12.649 29.392c-2.497 2.351-7.346 5.827-11.431 5.904-2.815-.146-2.961-2.798-1.064-6.436 7.2-13.859 14.846-21.205 24.166-21.137h1.673l-13.345 21.669zm-26.968 27.043h-4.016a11.51 11.51 0 0 1-11.053-8.41l-6.059-22.87-11.293 19.008H197.92l36.215-61.359c4.694-7.955 9.543-10.839 18.185-10.839h1.364l-24.097 40.686 18.03-12.426h14.477l-30.379 20.991L243.3 91.405zM123.758.5c-12.195 0-18.562 3.261-30.534 11.894l-40.6 29.246H26.64c-7.509 0-13.559.3-18.262 4.763l-6.737 6.222 37.725-1.45L.5 79.219h16.82l39.776-28.714L70.2 50.05c9.242-.24 14.391-8.41 14.391-8.41H69.368l32.113-23.188-23.857 38.635c-5.08 8.865-7.578 15.232-8.41 22.046h13.791c.524-5.758 2.497-11.74 6.05-17.653l32.507-54.236L125.801.5h-2.042zm64.693 46.892c-.154 1.141.309 1.897 2.652 3.407l3.716 2.42c4.016 2.66 5.672 6.677 5.158 9.929-1.373 9.088-8.041 16.434-22.278 16.434-6.222 0-9.019-.214-16.442-1.433l5.527-9.32c5.158.91 8.032 1.373 11.894 1.373 5.389 0 7.509-2.429 7.809-4.402.146-1.133-.387-2.497-2.952-4.248l-2.961-2.111c-4.694-3.407-5.981-6.059-5.372-10.229 1.21-8.024 10.521-14.246 23.402-14.246 4.093 0 8.487.231 13.336.764l-5.226 8.796c-3.192-.24-8.333-.541-11.971-.386-3.639.077-6.059 1.356-6.29 3.252"/></svg>