<svg xmlns="http://www.w3.org/2000/svg" height="123.828" viewBox="0 0 300 46" width="807.573"><linearGradient id="A" gradientUnits="userSpaceOnUse" x1="282.301" x2="282.301" y1="26.077" y2="55.667"><stop offset="0" stop-color="#ed1c24"/><stop offset=".126" stop-color="#e81b23"/><stop offset=".27" stop-color="#db1a21"/><stop offset=".423" stop-color="#c4171d"/><stop offset=".582" stop-color="#a41317"/><stop offset=".744" stop-color="#7b0e10"/><stop offset=".755" stop-color="#780e0f"/></linearGradient><linearGradient id="B" gradientUnits="userSpaceOnUse" x1="268.827" x2="279.626" y1="28.54" y2="28.54"><stop offset="0" stop-color="#69231d"/><stop offset=".265" stop-color="#8d2922"/><stop offset=".581" stop-color="#b22f26"/><stop offset=".838" stop-color="#c93329"/><stop offset="1" stop-color="#d1342a"/></linearGradient><linearGradient id="C" gradientUnits="userSpaceOnUse" x1="267.641" x2="279.674" y1="26.961" y2="19.731"><stop offset=".1" stop-color="#e7ebee"/><stop offset=".351" stop-color="#d5dce0"/><stop offset=".855" stop-color="#a5b4bb"/><stop offset="1" stop-color="#96a7b0"/></linearGradient><linearGradient id="D" gradientUnits="userSpaceOnUse" x1="261.008" x2="261.008" y1="20.873" y2=".43"><stop offset="0" stop-color="#1c2f72"/><stop offset=".128" stop-color="#174687"/><stop offset=".404" stop-color="#0d72af"/><stop offset=".651" stop-color="#0692cc"/><stop offset=".858" stop-color="#02a6de"/><stop offset="1" stop-color="#00ade4"/></linearGradient><path d="m274.15 41.58c2.61 4.29 6.78 4.2 7.89 4.2h13.41l-15.82-19.2c-7.3.3-11.16 4.98-10.37 6.94z" fill="url(#A)"/><path d="m269.26 33.53c-.02-.03-.43-1-.43-2.17 0-4.38 3.89-6.9 8.3-7.8l2.5 3.03c-7.3.29-11.16 4.97-10.37 6.94z" fill="url(#B)"/><path d="m275.36 19.27c-6.67 0-11.65 1.1-11.65 3.71 0 .96.3 1.79 1.12 3.26l4.43 7.28c-.02-.03-.43-1-.43-2.17 0-4.38 3.89-6.9 8.3-7.8 1.28-.26 2.6-.39 3.88-.39 1.08 0 2.1.06 2.88.34-.46-1.68-1.68-4.23-8.53-4.23z" fill="url(#C)"/><path d="m257.82 14.73c1.83 3.01 2.51 3.76 6.88 3.76h8.34l-11.5-14.52c-2.54-3.14-4-3.71-6.33-3.76h-6.23z" fill="url(#D)"/><path d="M130.35 36.68V25.73c0-2.09-.95-3.37-2.74-3.37-2.37 0-3.94 2.52-3.94 5.92v8.4h-3.84V24.23l-.19-4.5h3.09c.35 0 .45.15.46.46l.04 2.12h.09c.47-.8 1.65-2.93 5.2-2.93 3.66 0 5.71 2.5 5.71 5.31v12h-3.88zm-30.08-3.72c.1 0 .25.07.28.36l.11 2.54c-.77.39-2.44 1.14-4.48 1.14-5.14 0-8.28-2.98-8.28-8.81 0-5.46 2.8-8.82 8.28-8.82 1.82 0 3.49.64 4.48 1.14 0 .6-.06 1.97-.11 2.55-.02.24-.14.36-.28.36-.15 0-.2-.04-.3-.08-1.24-.61-2.4-.9-3.45-.9-3.27 0-4.61 2.14-4.61 5.76 0 3.22 1.08 5.75 4.61 5.75 1.35 0 2.58-.48 3.35-.85.2-.1.24-.14.4-.14zm13.3 3.72c-.31 0-.57-.1-.6-.55l-.11-1.62c-.28.31-1.68 2.5-5.2 2.5-3.37 0-5.31-2.6-5.31-5.45 0-3.96 3.84-5.94 9.54-5.94h.76V25c0-1.78-1.26-2.73-3.62-2.73-2.12 0-3.89.75-4.57 1.09-.05.02-.17.1-.29.1-.18 0-.29-.11-.3-.31l-.11-2.64c.69-.27 3-1.12 5.53-1.12 5.04 0 7.2 2.34 7.2 6.07v6.61c0 2.41.22 3.99.3 4.62 0-.01-2.95-.01-3.22-.01zm-.93-8.6h-.65c-4.83 0-5.79 1.68-5.79 3.39 0 1.39.92 2.72 2.73 2.72 2.4 0 3.71-2.32 3.71-4.76zm-48.27 4.88c.21 0 .27.19.29.38.07.72.13 2.36.12 2.77-.41.13-2.48.89-5.26.89-5.4 0-8.64-2.79-8.64-8.81 0-5.15 2.77-8.82 7.75-8.82 4.88 0 7.21 3.27 7.21 7.32 0 .48-.05 1.28-.14 2.35H54.83c0 2.9 1.85 4.98 5.25 4.98 1.88 0 3.38-.67 3.97-.96.11-.06.18-.1.32-.1zm-9.5-6.5H62c.15-2.73-1.28-4.26-3.45-4.26-2.27 0-3.57 1.64-3.68 4.26zM44.23 36.68V25.84c0-1.95-.83-3.47-2.82-3.47-2.25 0-3.54 2.46-3.54 5.9v8.42h-3.85V25.8c0-1.78-.74-3.44-2.81-3.44-2.28 0-3.55 2.45-3.55 6.02v8.29h-3.85V24.32c0-1.59-.14-3.85-.19-4.6h3.08c.35 0 .46.11.47.47l.04 2.1h.09c.24-.48 1.5-2.93 5.03-2.93 3.29 0 4.55 2.36 4.86 3.09.3-.64 1.77-3.09 5.08-3.09 3.45 0 5.8 1.85 5.8 5.57v11.74h-3.84zm28.42-8.27v8.27H68.8v-12.6c0-1.21-.14-3.52-.19-4.36h3.11c.33 0 .44.14.44.47l.04 2.1h.09c.31-.73 1.4-2.93 4.59-2.93 1.07 0 1.87.34 2 .4 0 .73-.08 2.33-.12 2.76-.02.28-.15.37-.28.37s-.19-.03-.27-.06c-.24-.1-.8-.27-1.57-.27-2.06.01-3.99 1.49-3.99 5.85zm8.26 8.27V19.73h3.84v16.95zm-.05-19.43v-3.72h3.94v3.72zM17.98 36.68l-1.77-5H6.79l-1.77 5H1l8.45-22.26h4.48l8.31 22.26zm-6.44-18.2h-.07l-3.6 10.18h7.28zM238.36 37c5.01 0 7.41-2.05 7.41-5.09 0-3-2.13-4.26-4.39-5l-1.87-.62c-1.54-.51-2.35-1.18-2.35-2.18 0-1.06.96-1.8 2.97-1.8 1.78 0 3.24.73 3.81 1 .1.04.18.11.34.11.12 0 .27-.08.29-.38a38.21 38.21 0 0 0 .11-2.59c-.47-.21-2.15-1.08-4.86-1.08-4.14 0-6.68 2.15-6.68 4.99 0 2.75 1.88 4.01 3.96 4.7l1.88.63c2.16.72 2.78 1.37 2.78 2.38 0 1.32-1.41 1.97-3.82 1.97-1.98 0-3.35-.73-3.9-.98-.11-.05-.18-.11-.33-.11-.28 0-.29.38-.29.44-.01.18-.1 1.94-.1 2.52.43.21 2.4 1.09 5.04 1.09zm-9.01-4.04c.21 0 .28.19.29.38.07.72.13 2.36.12 2.77-.41.13-2.48.89-5.26.89-5.4 0-8.64-2.79-8.64-8.8 0-5.16 2.77-8.83 7.74-8.83 4.89 0 7.21 3.27 7.21 7.32 0 .48-.05 1.28-.14 2.35H219.8c0 2.89 1.85 4.97 5.25 4.97 1.88 0 3.37-.67 3.96-.96.13-.04.2-.09.34-.09zm-9.5-6.5h7.12c.15-2.73-1.29-4.26-3.45-4.26-2.26 0-3.56 1.64-3.67 4.26zM209.2 36.68V25.73c0-2.09-.95-3.37-2.74-3.37-2.37 0-3.94 2.52-3.94 5.92v8.4h-3.85V24.23c0-1.37-.13-3.37-.19-4.5h3.09c.35 0 .45.14.45.46l.04 2.12h.09c.46-.8 1.65-2.93 5.19-2.93 3.66 0 5.7 2.5 5.7 5.31v12h-3.84zm-35.04-8.27v8.27h-3.86v-12.6c0-1.21-.14-3.52-.19-4.35h3.11c.34 0 .43.14.44.47l.03 2.1h.09c.3-.73 1.4-2.93 4.59-2.93 1.07 0 1.86.35 1.99.4a46.91 46.91 0 0 1-.12 2.75c-.03.28-.15.37-.28.37s-.19-.03-.26-.06c-.24-.1-.8-.27-1.58-.27-2.03.01-3.96 1.49-3.96 5.85zm12.27 8.27V13.55h-3.85v23.13zm-24.16 0V19.73h3.85v16.95zm-.05-19.43v-3.72h3.94v3.72zm28.41 19.43V19.73h3.85v16.95zm-.05-19.43v-3.72h3.94v3.72zm-34.15 19.43l-1.76-5h-9.43l-1.77 5h-4.02l8.44-22.26h4.48l8.31 22.26zm-6.45-18.2h-.07l-3.6 10.18h7.28zM299 44.77a1.01 1.01 0 1 1-2.04 0 1.02 1.02 0 0 1 1.02-1.02c.57-.01 1.02.45 1.02 1.02zm-1.84 0c0 .45.37.82.82.82s.82-.37.82-.82-.37-.82-.82-.82c-.46-.01-.82.36-.82.82zm.79.06h-.09v.42h-.18v-1.02h.3c.23 0 .36.12.36.3 0 .21-.17.26-.2.27l.25.45h-.21zm-.02-.12c.15 0 .23-.07.23-.17s-.08-.17-.23-.17c-.05 0-.07.01-.07.01v.33c0-.01.04 0 .07 0z" fill="#36495a"/></svg>