<svg xmlns="http://www.w3.org/2000/svg" width="250" height="55" fill-rule="evenodd"><path d="M89.73.01c1.3-.01 1.73.02 2.67.15l2.03.4 1.48.44a22.32 22.32 0 0 1 1.42.62l1.36.71c.28.17.78.51 1.11.76.34.25.87.69 1.18.98s.81.81 1.11 1.16l.92 1.21c.21.31.57.93.8 1.37l.66 1.48c.14.37.34 1 .45 1.41l.3 1.37c.06.38.12 1.23.14 2.08.03 1.09.01 1.67-.07 2.38l-.28 1.75-.4 1.59-.5 1.44-.55 1.26a17.49 17.49 0 0 1-.63 1.21l-.79 1.27-1.02 1.38c-.31.38-.96 1.1-1.45 1.58-.48.48-1.2 1.13-1.59 1.43l-1.52 1.09a22.45 22.45 0 0 1-1.86 1.05l-1.91.84-1.76.54-1.68.37-1.48.21-1.97.06c-.69 0-1.64-.04-2.13-.1l-1.55-.24a18.12 18.12 0 0 1-1.37-.33l-1.32-.44-1.37-.62-1.18-.64c-.25-.14-.73-.48-1.09-.74a15.9 15.9 0 0 1-1.42-1.25 16.35 16.35 0 0 1-1.26-1.4l-.77-1.11c-.16-.26-.47-.83-.68-1.28a17.2 17.2 0 0 1-.66-1.62c-.16-.45-.35-1.19-.45-1.65l-.23-1.52c-.04-.39-.07-1.13-.07-1.64l.07-1.68.23-1.61.4-1.68c.12-.44.34-1.1.48-1.47.13-.37.5-1.19.81-1.81l1.02-1.85.92-1.31 1.06-1.27a20.84 20.84 0 0 1 1.33-1.33l1.49-1.22c.41-.31 1.08-.76 1.49-1.01l1.62-.87 1.52-.66 1.42-.47L85.7.4l1.59-.26c.62-.09 1.33-.13 2.44-.13zm-2.81 8.33a10.19 10.19 0 0 0-1.25.42 11.79 11.79 0 0 0-1.32.72c-.49.32-.95.71-1.49 1.25-.55.54-.94 1-1.3 1.54a14.71 14.71 0 0 0-.86 1.48l-.53 1.31c-.12.33-.27.9-.35 1.27-.09.4-.16 1.06-.18 1.65-.03.74-.02 1.15.07 1.74.07.42.2 1.03.31 1.34.1.31.25.71.34.87.08.17.28.5.43.74a8.69 8.69 0 0 0 .66.84 6.54 6.54 0 0 0 .88.75l.9.54a7.86 7.86 0 0 0 .95.37l1.05.26c.28.04.93.08 1.45.08.52.01 1.18-.03 1.46-.08.27-.05.79-.18 1.15-.29a11.6 11.6 0 0 0 1.18-.47c.3-.15.75-.42 1.01-.59a11.71 11.71 0 0 0 .95-.71 11.65 11.65 0 0 0 .93-.93c.26-.3.65-.81.88-1.14a14.6 14.6 0 0 0 .73-1.28 15.25 15.25 0 0 0 .56-1.34 12.77 12.77 0 0 0 .38-1.38c.1-.46.17-1.04.19-1.71a11.05 11.05 0 0 0-.05-1.61 11.03 11.03 0 0 0-.25-1.17c-.09-.31-.26-.78-.38-1.04a8.37 8.37 0 0 0-.59-1c-.2-.29-.55-.7-.78-.9-.22-.21-.59-.5-.81-.64-.22-.15-.62-.37-.88-.49s-.76-.29-1.11-.38c-.36-.1-.96-.2-1.36-.24l-.98-.06c-.15 0-.51.03-.81.06s-.83.13-1.18.22zM25.28.61l13.41.06c0 .04-.29 1.15-.65 2.47l-.81 2.83c-.1.24-.31.67-.49.96A7.46 7.46 0 0 1 35.92 8c-.28.3-.69.67-.92.82a7.15 7.15 0 0 1-.84.5c-.24.12-.67.28-.95.35-.49.12-.95.12-11.89.12l-12.04.08a11.81 11.81 0 0 0-1.3.23 8.16 8.16 0 0 0-1.27.47c-.47.22-.64.28-.68.21-.04-.05.23-1.14.7-2.87l.97-3.42a12.07 12.07 0 0 1 .52-1.24 8.25 8.25 0 0 1 .59-.96c.16-.2.44-.5.63-.66.18-.17.58-.42.88-.56a4.66 4.66 0 0 1 .91-.33 9.96 9.96 0 0 1 .51-.09c.07-.02 6.17-.03 13.54-.04zM42.65.6l7.51.02c7.19.03 7.54.03 8.48.17.54.07 1.29.2 1.66.28a35.06 35.06 0 0 1 1.29.31c.33.1.83.27 1.11.38s.85.37 1.25.58c.41.2.99.55 1.29.77a11.02 11.02 0 0 1 1.05.91c.28.29.67.76.87 1.05.21.29.52.83.69 1.2a9.6 9.6 0 0 1 .49 1.24 14.31 14.31 0 0 1 .27 1.21c.06.35.13.95.15 1.34.03.4.01 1.09-.03 1.58-.05.48-.14 1.17-.22 1.54s-.25.97-.37 1.34c-.13.37-.39.97-.58 1.34-.18.37-.54.96-.79 1.31-.24.35-.75.94-1.12 1.31-.38.37-.92.85-1.22 1.07s-.82.57-1.15.77c-.34.2-.99.54-1.46.75-.46.21-1.28.53-1.82.71l-1 .32c-.01 0 1.11 2.45 2.49 5.43l2.5 5.45c0 .01-2.25.02-9.98.03l-.39-.86-3.95-8.91-2-.02c-1.11-.01-2.01 0-2.01.02s-.58 2.17-1.29 4.78l-1.32 4.86c-.03.11-.31.12-4.6.12-3.62 0-4.56-.02-4.54-.08.01-.05 1.99-7.34 4.38-16.2L42.65.6zm5.99 11.59l-1.08 3.9c-.04.08.45.09 3.17.06 2-.02 3.41-.07 3.72-.12a10.53 10.53 0 0 0 1.15-.25c.35-.09.86-.26 1.12-.38s.65-.34.88-.49c.22-.15.58-.46.8-.7.22-.23.49-.6.59-.81.11-.21.24-.56.3-.77a5 5 0 0 0 .1-.93c0-.29-.04-.67-.08-.83-.03-.17-.15-.47-.25-.67s-.32-.51-.48-.68c-.18-.18-.52-.41-.81-.56-.28-.13-.8-.31-1.15-.39-.59-.13-.91-.14-3.79-.17l-3.15-.03-1.04 3.82zM113.39.6l8.51.04 4.16 8.88 4.21 8.94c.02.03 1.14-3.98 4.91-17.86h4.51c4.27 0 4.52.01 4.5.12L135.45 33l-7.98-.01-4.36-9.25-4.4-9.25c-.02 0-1.16 4.16-5.04 18.51h-4.51c-3.58 0-4.52-.02-4.5-.08.01-.05 1.98-7.34 4.38-16.2L113.39.6zm34.76 0h14.33l14.3.09c-.02.04-.49 1.8-1.05 3.9l-1.05 3.88c-.02.03-2.23.05-9.81.05l-3.27 12.16-3.3 12.24c-.02.06-.99.08-4.59.08-4.31 0-4.56-.01-4.53-.12.02-.06 1.51-5.56 3.31-12.2l3.29-12.13c0-.02-2.2-.03-4.87-.03-2.68 0-4.87-.02-4.88-.05 0-.03.48-1.81 1.06-3.96L148.15.6zm37.12 0c4.28 0 4.53.01 4.51.12L181.04 33h-9.1l.1-.32a9632.23 9632.23 0 0 0 4.37-16.11L180.7.69c.03-.07 1-.09 4.57-.09zm8.48 0h26.22l-.07.22c-.03.12-.51 1.83-1.05 3.79l-.98 3.61c0 .01-3.86.03-17.18.03l-.1.35c-.05.2-.34 1.24-.64 2.33l-.58 2.1c-.03.11.37.12 15.52.12l-.03.18c-.02.1-.41 1.54-.85 3.2L213 20.26h-15.59l-.67 2.46-.69 2.55c-.02.07 1.75.08 8.7.08l8.7.09c-.01.04-.48 1.76-2.04 7.56H198.2c-12.54 0-13.2-.01-13.18-.12.01-.06 1.98-7.35 4.37-16.2L193.75.6zm30.14 0h6.99l7.79.07c.45.04 1.15.12 1.56.17a30.51 30.51 0 0 1 1.52.27c.43.1 1.14.29 1.59.44.44.15 1.14.43 1.55.63s.99.52 1.28.72c.3.19.8.59 1.11.89a9.52 9.52 0 0 1 .98 1.07 9.28 9.28 0 0 1 .72 1.18c.18.35.41.88.5 1.17.1.3.25.82.32 1.17.1.46.15.99.18 1.88.03.96.01 1.43-.08 2.05-.06.44-.18 1.07-.27 1.41-.08.33-.27.89-.41 1.24-.13.35-.41.92-.61 1.27-.19.35-.57.91-.83 1.24-.25.33-.74.86-1.07 1.18-.33.31-.78.71-1.01.88a11.71 11.71 0 0 1-.94.64c-.3.19-.85.49-1.22.67-.37.19-.95.44-1.28.58-.34.13-.93.34-1.31.46-.53.17-.69.25-.67.32.02.06 1.12 2.46 2.45 5.33l2.47 5.35c.06.11-.2.12-9.98.12l-4.33-9.8-3.98.04-2.65 9.76h-4.55c-2.98 0-4.54-.02-4.54-.07 0-.03 1.93-7.21 4.29-15.94L223.83.86l.06-.26zm6.94 8.14c-.05.19-.53 1.91-1.07 3.81l-.95 3.54c.01.06.83.07 3.25.05 2.43-.02 3.36-.06 3.77-.13a11.7 11.7 0 0 0 1.06-.24c.29-.08.72-.22.95-.32.23-.09.67-.33.97-.52.29-.2.68-.52.86-.72a4.47 4.47 0 0 0 .56-.83c.13-.26.28-.68.33-.94.06-.26.1-.59.1-.74.01-.14-.03-.45-.07-.67a3.28 3.28 0 0 0-.23-.73c-.09-.19-.29-.49-.46-.67-.17-.19-.46-.44-.66-.55-.2-.12-.63-.29-.94-.38-.32-.09-.89-.2-1.27-.24-.39-.04-1.87-.08-3.4-.08h-2.7l-.1.36zm-209.3 3.48l12.86.04c.01.03-.2.86-.47 1.86l-.68 2.31c-.1.28-.33.81-.52 1.18a12.69 12.69 0 0 1-.61 1.07c-.15.22-.51.64-.79.93s-.69.66-.92.82a5.93 5.93 0 0 1-.84.49 8.11 8.11 0 0 1-.85.32c-.38.11-1.05.12-11.53.16l-11.77.18c-.35.08-.87.22-1.15.32a7.82 7.82 0 0 0-.91.37c-.22.12-.43.18-.46.15-.04-.03.25-1.2.63-2.6.37-1.4.8-2.91.95-3.35.15-.45.43-1.14.63-1.55.2-.4.51-.92.69-1.14.18-.23.47-.53.64-.67.16-.13.47-.33.67-.43.21-.11.56-.24.78-.29.22-.06.5-.12.61-.13.11-.02 5.98-.04 13.04-.04zm-9.78 11.6c5.77-.01 6.11 0 6.11.11 0 .06-.25 1.01-.54 2.09l-.72 2.49c-.1.27-.3.74-.45 1.04-.15.29-.43.76-.62 1.03s-.57.71-.85.96c-.28.26-.71.58-.95.72s-.73.36-1.72.71L6 32.98c-5.3.02-6 .01-6-.08 0-.06.27-1.1.61-2.33.33-1.23.69-2.49.8-2.8.11-.32.3-.8.43-1.07.13-.28.35-.69.5-.91s.43-.55.61-.73c.18-.19.5-.44.7-.57.21-.14.59-.31.85-.4.26-.08.62-.18.81-.21s3.09-.06 6.44-.06z" fill="#0f6744"/><path d="M240.78 41.59c.35 0 .93.03 1.29.07s.95.15 1.3.24a8.65 8.65 0 0 1 1.35.5c.39.18.89.46 1.11.62.21.15.39.3.38.33 0 .02-.39.6-.88 1.29l-.94 1.24c-.04 0-.28-.13-.53-.28s-.67-.37-.93-.48-.7-.26-.98-.33-.76-.13-1.08-.14c-.46 0-.64.03-.9.14-.21.1-.35.22-.43.37-.07.14-.09.29-.07.43.03.13.14.3.27.41.12.1.41.25.66.33.24.08.95.27 1.58.42l1.63.45c.26.09.71.29 1.01.45.36.18.7.42.99.71.25.24.51.56.59.72s.19.46.25.67c.06.22.1.68.1 1.06s-.04.84-.1 1.07c-.06.22-.2.6-.32.84-.14.27-.39.6-.66.87-.25.24-.61.54-.82.66-.2.11-.59.29-.87.39l-1 .27c-.28.05-.92.09-1.51.09-.55 0-1.25-.03-1.53-.07a11.87 11.87 0 0 1-1.15-.24c-.35-.09-.91-.28-1.26-.43a10.61 10.61 0 0 1-1.16-.61 10.25 10.25 0 0 1-1.08-.78l1.01-1.19 1.07-1.22c.02-.01.24.12.47.29s.66.42.96.56l.88.37c.19.06.56.15.83.21.27.05.73.09 1.02.09.28 0 .63-.03.77-.07.14-.03.36-.15.49-.26.2-.17.24-.25.24-.49 0-.18-.04-.35-.12-.45-.07-.09-.31-.25-.53-.35s-.9-.3-1.51-.46l-1.76-.48c-.36-.11-.84-.31-1.09-.42a6.47 6.47 0 0 1-.78-.48 3.96 3.96 0 0 1-.55-.5c-.12-.12-.3-.43-.42-.67-.11-.24-.24-.64-.28-.9-.04-.28-.05-.69-.03-1.01.03-.29.11-.72.18-.94s.21-.55.32-.73a4.97 4.97 0 0 1 .49-.67c.16-.18.48-.45.7-.6.23-.15.56-.34.75-.42.18-.08.53-.2.77-.26l.82-.16c.2-.03.65-.06.99-.07zm-88.77.13l3.57.03 2.76 6.48 2.74 6.52c-.02.03-.9.05-3.92.05l-.94-2.29-4.98.01-.91 2.28h-3.82l.03-.15c.02-.09 1.26-3.03 2.75-6.54l2.72-6.39zm.38 7.86c0 .03.63.05 1.39.05h1.39l-1.38-3.45c-.01-.04-.33.7-.71 1.64l-.69 1.76zm11.37-7.79h3.72V54.8h-3.72V41.79zm7.44 0h3.16l3.94.07c.43.04 1.04.15 1.35.24.32.09.79.28 1.05.41.3.16.65.42.95.72s.55.63.69.9a6.37 6.37 0 0 1 .34.88c.08.31.11.69.11 1.3 0 .76-.03.95-.18 1.41-.1.3-.29.72-.44.94a4.66 4.66 0 0 1-.66.77 4.5 4.5 0 0 1-.86.61l-.45.26c0 .02.68 1.02 1.51 2.22l1.49 2.23c-.02.03-.96.05-4.19.05l-2.64-3.9-1.52.01v3.89h-3.65V41.79zm3.65 6.23l3.38-.2c.2-.09.44-.26.54-.37a1.56 1.56 0 0 0 .27-.47c.05-.14.08-.41.06-.6-.02-.18-.09-.45-.16-.6a1.18 1.18 0 0 0-.44-.45 2.39 2.39 0 0 0-.54-.26c-.13-.03-.88-.06-1.67-.06h-1.44v3.01zm11.09-6.23h3.72v9.79h6.3v3.22h-10.02V41.79zm12.99 0h3.65V54.8h-3.65V41.79zm7.37 0h3.42l5.28 6.72.03-6.72h3.65V54.8l-3.27-.03-5.42-6.91-.03 6.94h-3.66V41.79zm16.03 0h10.56v3.15h-6.97v1.88h6.29v2.88h-6.29v2.01h7.03v3.09h-10.62V41.79z" fill="#fff"/></svg>