<svg xmlns="http://www.w3.org/2000/svg" width="286.232" height="79.737" viewBox="0 0 75.732 21.097" fill="#000000"><path d="M62.808 4.399h2.494l.82-3.86h4.76l-.823 3.86h3.145l-.669 3.141h-3.143l-1.041 4.895c-.233 1.1.003 1.255 1.284 1.255l1.694-.044-.631 2.963c-.994.134-2.271.224-3.663.224-3.098 0-4.216-.762-3.657-3.389l1.257-5.905h-2.493zm-6.462 0h4.759L58.52 16.566h-4.759zm.906-4.267h4.759L61.4 3.006h-4.759zM43.739 4.399l-2.587 12.167h4.63L48.37 4.399zm10.108-.541c-2.125 0-5.507 2.093-6.399 5.821l-.229.84h.08c.676-1.618 2.369-2.484 4.651-2.484.615 0 1.314.084 1.876.211l.925-4.345-.904-.043m-16.825.541h4.758l-2.586 12.167h-4.759z"/><path d="M37.928.132h4.759l-.61 2.874h-4.76zM25.259 13.601c2.179 0 3.598-1.077 4.026-3.097s-.531-3.098-2.707-3.098c-2.223 0-3.648 1.211-4.048 3.098s.508 3.097 2.73 3.097m-6.192-9.202h4.624l-.342 1.616h.044c1.273-1.235 3.105-1.93 5.036-1.93 4.31 0 6.609 2.378 5.712 6.599-.75 3.525-3.961 6.374-8.426 6.374-2.11 0-3.577-.695-4.196-1.592h-.044l-1.171 5.5h-4.758zM5.722 12.772c-.027.448.076.808.454 1.034.375.247.997.379 2.03.379 1.055 0 2.22-.202 2.407-1.077.138-.651-.296-.831-1.434-.965l-4.135-.516c-2.71-.337-3.915-1.324-3.475-3.39.699-3.299 3.748-4.331 8.305-4.331 3.233 0 7.194.582 6.729 4.039h-5.341c.064-.516-.202-.852-.634-1.032-.429-.2-1.042-.27-1.649-.27-1.369 0-2.243.315-2.421 1.145-.081.382.162.718 1.345.853l4.013.448c3.2.36 4.602 1.369 4.097 3.749-.611 2.873-3.635 4.218-8.686 4.218-3.368 0-7.798-.603-7.127-4.284zm68.897-7.415c.056 0 .101-.013.135-.04s.049-.063.049-.11-.014-.079-.042-.107-.074-.042-.137-.042h-.12v.298zm-.363-.488h.413c.11 0 .203.025.281.075s.117.133.117.249c0 .057-.016.11-.047.159s-.077.088-.137.115l.219.393h-.264l-.164-.324h-.169v.324h-.249zm.383 1.284c.103 0 .199-.019.289-.057s.167-.091.232-.159a.73.73 0 0 0 .152-.244c.037-.095.055-.2.055-.316a.89.89 0 0 0-.055-.318.75.75 0 0 0-.152-.249c-.065-.07-.142-.124-.232-.162a.73.73 0 0 0-.289-.057c-.106 0-.203.019-.291.057a.67.67 0 0 0-.229.162c-.065.07-.115.152-.152.249a.88.88 0 0 0-.055.318c0 .116.018.221.055.316a.73.73 0 0 0 .152.244.69.69 0 0 0 .229.159.72.72 0 0 0 .291.057m0 .214c-.133 0-.257-.024-.373-.072s-.218-.116-.306-.204-.157-.192-.206-.314a1.04 1.04 0 0 1-.075-.401 1.06 1.06 0 0 1 .075-.403.93.93 0 0 1 .206-.316c.088-.088.19-.156.306-.204a.97.97 0 0 1 .373-.072.97.97 0 0 1 .373.072.93.93 0 0 1 .306.204.94.94 0 0 1 .206.316 1.06 1.06 0 0 1 .075.403 1.04 1.04 0 0 1-.075.401c-.05.121-.119.226-.206.314s-.19.156-.306.204a.97.97 0 0 1-.373.072"/></svg>