<svg xmlns="http://www.w3.org/2000/svg" width="463.936" height="88" fill-rule="nonzero" stroke-linejoin="round" stroke-miterlimit="2"><path d="M388.725 11.247a52.41 52.41 0 0 0-18.593 3.405l-.066.027v2.336a14.03 14.03 0 0 1 1.886-.58l1.352-.282.473-.069c5.845-.878 10.877.367 13.902 3.996 6.613 7.943 1.133 24.261-12.245 36.445-1.703 1.554-3.451 2.958-5.225 4.219l-.142.096v3.889l1.606-1.192c.727 1.288 5.571 9.38 5.657 9.518l2.669-1.841c1.722-1.231 3.39-2.545 4.996-3.937l-7.396-8.88c.747-.771 3.253-3.378 5.24-5.852.468.372 6.628 5.374 9.093 7.688 1.909-2.166 3.678-4.462 5.296-6.874-3.4-2.336-10.456-6.549-10.456-6.549 1.174-1.947 2.181-3.9 3.004-5.826 0 0 8.229 3.368 11.589 5.097.983-2.081 1.811-4.239 2.475-6.454-4.168-1.766-11.609-3.623-12.28-3.788.437-1.681.727-3.32.844-4.9 4.278.476 8.518 1.273 12.687 2.384.17-1.719.148-3.453-.066-5.166a71.27 71.27 0 0 0-12.692-1.272c-.143-1.214-.425-2.405-.839-3.549 0 0 5.962-.548 12.194.218a17.88 17.88 0 0 0-1.144-2.064 29.57 29.57 0 0 0-1.037-1.405c0 0-5.271-.42-11.376.537-.545-.81-1.178-1.551-1.886-2.208 3.389-.754 6.844-1.132 10.308-1.128-1.535-1.101-3.131-1.841-3.131-1.841-4.31.085-8.829 1.341-9.19 1.442-1.23-.756-2.191-1.059-2.308-1.096l-.01-.005.005-.005c.351-.112 3.68-1.165 6.12-1.442h-.01c-3.319-.458-7.889.633-8.417.766-.804-.159-1.615-.278-2.43-.356 0 0 2.46-.745 5.713-1.224 2.963-.436 12.9-1.713 19.249 7.23 6.013 8.47 3.827 21.612-4.336 34.216-2.269 3.548-4.847 6.868-7.701 9.917a76.88 76.88 0 0 1-7.446 7.076 65.53 65.53 0 0 1-11.985 8.029 65.03 65.03 0 0 1-2.613 1.378v4.097c6.974-3.453 11.106-6.741 11.106-6.741l5.871 8.726s4.549-2.985 9.114-6.917h.005-.005l-7.035-8.337h-.005a80.28 80.28 0 0 0 7.345-7.773c0 0 7.299 6.784 8.097 7.582 2.318-2.735 4.442-5.608 6.328-8.603-2.877-2.346-5.82-4.603-8.824-6.768 0 0 2.973-4.98 4.183-8.018 0 0 4.814 2.751 9.363 5.842 1.113-2.607 2.038-5.31 2.699-8.071-2.989-1.889-9.632-4.991-9.632-4.991.569-2.341.91-4.629 1.006-6.837 0 0 4.829 1.601 9.698 4.161.081-2.113-.057-4.228-.412-6.31-4.122-2.075-9.607-3.48-9.607-3.48-.279-1.704-.757-3.366-1.423-4.948 0 0 4.986.979 9.393 2.852a15.32 15.32 0 0 0-2.455-4.012c-2.826-1.617-9.251-2.846-9.251-2.846-.7-.93-1.479-1.792-2.328-2.575 2.023.293 5.174 1.043 5.174 1.043-3.467-1.777-7.37-2.799-7.416-2.815-.005 0-.773-.532-1.698-1.048 0 0 9.688 2.08 14.949 6.236.478.372.935.793 1.398 1.261.534.532.996 1.128 1.403 1.713 10.486 15.02 1.418 43.963-24.139 64.202h9.505l-1.937-2.251a85.92 85.92 0 0 0 8.377-9.353l6.328 6.592a78.18 78.18 0 0 0 6.811-9.428s-3.324-3.336-6.862-6.555c2.841-4.804 4.595-9.593 4.595-9.593.269.207 3.716 2.889 7.248 6.331 1.703-3.911 2.76-8.89 2.76-8.89-3.68-3.506-7.457-6.012-7.457-6.012.574-2.655.907-5.361.996-8.082 0 0 4 2.49 7.457 5.672a32.41 32.41 0 0 0-.64-7.012c-3.431-3.107-7.238-5.193-7.238-5.193-.005 0-.371-2.607-1.591-5.757l.03.016c.234.122 2.053 1.091 5.266 3.485-2.506-3.4-6.816-6.746-6.816-6.746-.425-.75-.896-1.472-1.408-2.16 3.537 2.532 6.769 5.501 9.627 8.843 1.057 1.389 2.028 3.16 2.78 5.187.203.553.381 1.107.539 1.655 2.348 8.295.905 17.616-1.743 25.251-3.055 8.8-8.143 17.02-14.11 24.001h11.254c1.093-1.617 2.074-3.16 3.08-4.932-.752-1.197-4.178-5.39-4.178-5.39 1.903-3.251 3.55-6.658 4.925-10.189 0 0 2.287 2.655 4.082 5.384 1.764-4.416 2.587-9.023 2.587-9.023-1.21-2.112-3.914-5.39-3.914-5.39.595-2.808.923-5.67.981-8.545 1.352 1.692 3.177 4.363 3.177 4.363v-.016c-.346-5.235-2.928-10.002-3.497-11.003l-.056-.325c-.333-1.641-.755-3.262-1.266-4.852 2.907 4.485 4.773 9.529 4.773 9.529 1.194 3.245 1.911 7.342 1.911 11.801 0 2.362-.452 14.684-9.444 28.587h2.846c1.796-3.487 3.385-7.087 4.758-10.779.036.112.656 1.82 1.113 3.591a68.22 68.22 0 0 0 2.018-10.981c-.122-.489-.376-1.288-.518-1.766 0 0 .61-3.214.854-6.874.908 6.919.575 13.954-.981 20.744a65.31 65.31 0 0 1-1.779 6.065h2.425a60.37 60.37 0 0 0 3.065-18.983c0-31.853-24.662-57.764-54.977-57.764m-18.659 38.052v7.683c1.301-.883 2.602-1.862 3.878-2.942zm1.769-31.8a26.68 26.68 0 0 0-1.769 1.351v1.782c1.636-1.338 3.36-2.554 5.159-3.639a21.91 21.91 0 0 0-3.39.505m4.956 30.252l-6.725-4.921v-4.203c3.421-5.092 3.914-10.939.915-13.791-.28-.266-.587-.5-.915-.697v-2.096l.056.032s4.285-3.549 7.685-5.076a14.34 14.34 0 0 1 2.358.362c-5.088 2.256-8.844 5.06-9.103 5.257.524.325.996.729 1.062.782a55.85 55.85 0 0 1 10.425-5.209c.737.351 1.449.793 2.064 1.288-5.911 1.74-11.594 4.842-11.594 4.842.32.394.605.814.849 1.266l.097-.043c6.054-2.713 12.479-4.102 12.479-4.102a10.16 10.16 0 0 1 1.235 2.415s-5.769.692-13.19 3.182c.325 1.075.417 1.878.417 1.889 0 0 6.999-1.639 13.449-1.82.087 1.183.056 2.372-.091 3.549-3.822-.207-12.921.298-13.282.325 0 0-.03 1.373-.371 2.666 0 0 6.648.223 12.697 1.405-.476 1.537-1.07 3.031-1.774 4.469a226.31 226.31 0 0 0-11.757-3.192c-.437 1.121-.968 2.2-1.586 3.224 0 0 7.472 3.416 10.344 5.086h.005v.005c-1.245 1.947-3.716 4.682-3.716 4.682l-2.033-1.575" fill="#fff"/><path d="M388.725 11.248c30.314 0 54.977 25.911 54.977 57.764 0 6.459-1.042 12.886-3.065 18.989h13.495V0h-84.066v14.679l.066-.027a52.41 52.41 0 0 1 18.593-3.405m-18.659 27.379c3.421-5.092 3.914-10.939.915-13.791-.28-.266-.587-.5-.915-.697zm17.612-18.547c-3.024-3.629-8.056-4.874-13.902-3.996l-.473.069c-.453.082-.904.176-1.352.282a14.03 14.03 0 0 0-1.886.58v1.836a26.68 26.68 0 0 1 1.769-1.351 21.91 21.91 0 0 1 3.39-.505c-1.688 1.011-3.639 2.378-5.159 3.639v1.41l.056.032s4.285-3.549 7.685-5.076a14.34 14.34 0 0 1 2.358.362c-5.088 2.256-8.844 5.06-9.103 5.257.524.325.996.729 1.062.782a55.85 55.85 0 0 1 10.425-5.209c.737.351 1.449.793 2.064 1.288-5.911 1.74-11.594 4.842-11.594 4.842.32.394.605.814.849 1.266l.097-.043c6.054-2.713 12.479-4.102 12.479-4.102a10.16 10.16 0 0 1 1.235 2.415s-5.769.692-13.19 3.182c.325 1.075.417 1.878.417 1.889 0 0 6.999-1.639 13.449-1.82.087 1.183.056 2.372-.091 3.549-3.822-.207-12.921.298-13.282.325 0 0-.03 1.373-.371 2.666 0 0 6.648.223 12.697 1.405-.476 1.537-1.07 3.031-1.774 4.469a226.31 226.31 0 0 0-11.757-3.192c-.437 1.121-.968 2.2-1.586 3.224 0 0 7.472 3.416 10.344 5.086h.005v.005c-1.245 1.947-3.716 4.682-3.716 4.682l-2.033-1.575-6.725-4.921v6.47l3.878 4.741c-1.243 1.051-2.537 2.033-3.878 2.942v3.857l.142-.096c1.774-1.261 3.522-2.666 5.225-4.219 13.378-12.184 18.858-28.502 12.245-36.445m16.469.676c-6.349-8.944-16.286-7.667-19.249-7.23-3.253.479-5.713 1.224-5.713 1.224.727.069 1.718.207 2.43.356.529-.133 5.098-1.224 8.417-.766h.01c-2.44.277-5.769 1.33-6.12 1.442l-.005.005.01.005c.117.037 1.078.341 2.308 1.096.361-.101 4.88-1.357 9.19-1.442a21.83 21.83 0 0 0 3.131 1.841c-3.464-.004-6.919.374-10.308 1.128.651.607 1.301 1.335 1.886 2.208 6.105-.958 11.376-.537 11.376-.537s.712.91 1.037 1.405a17.88 17.88 0 0 1 1.144 2.064c-6.232-.766-12.194-.218-12.194-.218.407 1.112.686 2.298.839 3.549.691-.005 5.967.005 12.692 1.272.213 1.612.234 3.341.066 5.166-4.169-1.111-8.409-1.907-12.687-2.384-.117 1.58-.407 3.219-.844 4.9.671.165 8.112 2.022 12.28 3.788-.665 2.215-1.492 4.373-2.475 6.454-3.36-1.729-11.589-5.097-11.589-5.097-.823 1.926-1.83 3.879-3.004 5.826 0 0 7.055 4.214 10.456 6.549-1.618 2.412-3.387 4.708-5.296 6.874-2.465-2.314-8.626-7.316-9.093-7.688a93.33 93.33 0 0 1-5.24 5.852l7.396 8.88c-1.605 1.394-3.273 2.708-4.996 3.937l-2.669 1.841c-.086-.138-4.93-8.231-5.657-9.518-.529.41-1.067.803-1.606 1.192v16.642a65.03 65.03 0 0 0 2.613-1.378 65.53 65.53 0 0 0 11.985-8.029 76.89 76.89 0 0 0 7.446-7.076c2.968-3.192 5.551-6.528 7.701-9.917 8.163-12.604 10.349-25.746 4.336-34.216m12.961 3.038a12.4 12.4 0 0 0-1.403-1.713 14.54 14.54 0 0 0-1.398-1.261c-5.261-4.155-14.949-6.236-14.949-6.236.925.516 1.693 1.048 1.698 1.048.046.016 3.949 1.037 7.416 2.815 0 0-3.151-.75-5.174-1.043.839.766 1.632 1.655 2.328 2.575 0 0 6.425 1.229 9.251 2.846 0 0 1.352 1.458 2.455 4.012-4.407-1.873-9.393-2.852-9.393-2.852.661 1.554 1.133 3.219 1.423 4.948 0 0 5.484 1.405 9.607 3.48.356 2.048.488 4.166.412 6.31-4.869-2.559-9.698-4.161-9.698-4.161-.113 2.309-.45 4.599-1.006 6.837 0 0 6.643 3.102 9.632 4.991-.673 2.767-1.577 5.468-2.699 8.071-4.549-3.091-9.363-5.842-9.363-5.842-1.21 3.038-4.183 8.018-4.183 8.018.076.053 5.027 3.613 8.824 6.768-1.911 3.022-4.026 5.897-6.328 8.603-.798-.798-8.097-7.582-8.097-7.582-2.201 2.671-4.656 5.278-7.345 7.773h.005l7.035 8.337h.005-.005c-4.564 3.932-9.114 6.917-9.114 6.917l-5.871-8.726s-4.132 3.288-11.106 6.741V88h22.904c25.557-20.244 34.625-49.187 24.139-64.207M415.486 88c5.967-6.986 11.055-15.206 14.11-24.006 2.648-7.635 4.092-16.956 1.743-25.251-.16-.558-.34-1.11-.539-1.655-.675-1.864-1.612-3.613-2.78-5.187-2.858-3.342-6.09-6.311-9.627-8.843.518.702.996 1.426 1.408 2.16 0 0 4.31 3.347 6.816 6.746-3.212-2.394-5.032-3.363-5.266-3.485l-.03-.016c1.22 3.15 1.586 5.757 1.591 5.757 0 0 3.807 2.086 7.238 5.193.478 2.298.671 4.655.64 7.012-3.456-3.182-7.457-5.672-7.457-5.672-.089 2.721-.422 5.427-.996 8.082a61.52 61.52 0 0 1 7.457 6.012s-1.057 4.98-2.76 8.89c-2.311-2.239-4.73-4.352-7.248-6.331 0 0-1.754 4.788-4.595 9.593 3.538 3.219 6.862 6.555 6.862 6.555a78.18 78.18 0 0 1-6.811 9.428l-6.328-6.592a85.92 85.92 0 0 1-8.377 9.353L402.474 88zm11.254 0h3.162c8.992-13.908 9.444-26.23 9.444-28.592 0-4.459-.717-8.555-1.911-11.801 0 0-1.865-5.044-4.773-9.529.315 1 .925 3.033 1.266 4.852l.056.325c.569 1 3.151 5.767 3.497 11.003v.016s-1.825-2.671-3.177-4.363c-.058 2.875-.386 5.737-.981 8.545 0 0 2.704 3.277 3.914 5.39 0 0-.823 4.608-2.587 9.023-1.794-2.729-4.082-5.384-4.082-5.384-1.375 3.53-3.023 6.938-4.925 10.189 0 0 3.426 4.193 4.178 5.39-1.006 1.772-1.987 3.315-3.08 4.937m6.008 0a99.03 99.03 0 0 0 4.758-10.785c.036.112.656 1.82 1.113 3.591a68.22 68.22 0 0 0 2.018-10.981c-.122-.489-.376-1.288-.518-1.766 0 0 .61-3.214.854-6.874.908 6.919.575 13.954-.981 20.744A65.91 65.91 0 0 1 438.212 88zm27.732-7.241c-1.235 0-2.376.69-2.993 1.809s-.617 2.499 0 3.618 1.758 1.809 2.993 1.809c1.909 0 3.456-1.62 3.456-3.618s-1.547-3.618-3.456-3.618m0 .537c1.628.003 2.946 1.387 2.943 3.091s-1.325 3.083-2.953 3.081-2.946-1.387-2.943-3.091 1.325-3.083 2.953-3.081m-1.24 1.256h1.642c.635 0 1.057.388 1.057.984s-.371.942-.925 1.011l1.123 1.538h-.676l-1.047-1.511h-.661v1.511h-.513zm.513.516v1.011h1.113c.356 0 .529-.181.529-.5 0-.335-.183-.511-.529-.511zM168.244 33.796h16.255v32.295h12.514V33.796h16.25V21.91h-45.019zm76.086 14.892h26.014v-9.375H244.33v-6.581h28.022V21.91h-40.541v44.181h40.77V55.269H244.33zm60.466 5.517h11.142c8.153 0 11.828-3.123 11.828-10.205s-3.675-10.205-11.828-10.205h-11.142zM292.277 21.91h24.118c16.768 0 24.464 7.624 24.464 22.09s-7.696 22.09-24.464 22.09h-24.118zM137.182 66.091h12.519V21.91h-12.519zm-33.481-18.473L80.391 21.91H68.045v44.181H79.7V38.089l25.44 28.001h10.222V21.91h-11.66zM0 44.453V21.91h12.519v21.878c0 8.417 3.817 11.966 11.167 11.966s11.167-3.549 11.167-11.966V21.91h12.519v22.543c0 15.749-7.609 22.537-23.686 22.537S0 60.201 0 44.453" fill="#1414d2"/></svg>