<svg xmlns="http://www.w3.org/2000/svg" width="1529.068" height="256.947" viewBox="0 0 404.566 67.984"><defs><clipPath id="A"><path d="M0 0h1296v1872H0z"/></clipPath><clipPath id="B"><path d="M0 0h1296v1872H0z"/></clipPath><clipPath id="C"><path d="M0 0h1296v1872H0z"/></clipPath><clipPath id="D"><path d="M0 0h1296v1872H0z"/></clipPath><clipPath id="E"><path d="M0 0h1296v1872H0z"/></clipPath></defs><g clip-path="url(#A)" transform="matrix(.352778 0 0 -.352778 -29.36758 633.13429)"><path d="M83.247 1712.743c24.664-111.921 126.543-70.831 191.435-110.743-69.084 61.038-146.178 28.724-191.435 110.743" fill="#68527b"/><path d="M346.03 1794.71c-12.588-74.697-68.682-87.218-113.581-131.519.04-.041.08-.084.122-.123-44.922 44.403-101.105 56.876-113.706 131.642-13.507-113.928 95.821-110.949 143.786-171.219-6.828 12.39-14.54 22.809-22.756 31.916 51.679 32.484 116.735 49.888 106.135 139.303" fill="#7ebe4e"/><path d="M262.65 1623.491c-.007.011-.011.015-.017.021zm-8.637 14.023a168.58 168.58 0 0 0 8.637-14.023c51.428 7.983 102.495 14.369 118.995 89.253-31.561-57.203-78.612-58.797-127.632-75.23" fill="#68527b"/><g fill="#0098a4"><path d="M97.841 1754.006c6.258-114.601 113.342-91.633 170.89-142.164-58.276 72.085-139.503 53.5-170.89 142.164m145.108-102.074c2.912-3.408 5.762-6.988 8.517-10.792 53.308 18.963 111.038 29.636 115.586 112.867-23.559-66.537-75.18-72.687-124.103-102.075"/></g></g><path d="M130.046 27.051h.964l6.371 13.884h-2.989l-1.376-3.068h-5.744l-1.375 3.068h-2.439zm.059 4.484l-2.005 4.503h4.071zm10.209-4.484h11.033v1.909h-4.11v11.975h-2.812V28.959h-4.111zm17.187 0h2.813v11.938h6.272v1.946h-9.085zm21.316 0h.962l6.372 13.884h-2.989l-1.377-3.068h-5.742l-1.377 3.068h-2.438zm.059 4.484l-2.007 4.503h4.073z" fill="#0098a4"/><g clip-path="url(#B)" transform="matrix(.352778 0 0 -.352778 -29.36758 633.13429)"><path d="M628.425 1718.033h7.079l19.842-22.299 1.509-1.782v24.081h6.243v-39.805h-1.953l-26.365 29.436v-28.987h-6.355z" fill="#0098a4"/></g><path d="M210.773 27.051h11.031v1.909h-4.109v11.975h-2.812V28.959h-4.11zm20.493 0h.964l6.37 13.884h-2.989l-1.375-3.068h-5.743l-1.377 3.068h-2.436zm.059 4.484l-2.007 4.503h4.074z" fill="#0098a4"/><g clip-path="url(#C)" transform="matrix(.352778 0 0 -.352778 -29.36758 633.13429)"><path d="M819.517 1715.524c-4.852 0-8.031-3.067-8.031-7.077 0-3.85 2.848-5.465 5.415-6.3.888-.337 5.52-1.454 6.517-1.73 2.121-.617 8.976-2.678 8.976-10.534 0-5.802-4.292-12.325-14.157-12.325-9.871 0-13.27 6.132-13.605 11.436.396.111 1.061.275 1.448.442.562-1.226 1.505-3.57 4.07-5.571 2.621-2.069 5.523-2.627 7.691-2.627 5.134 0 9.088 2.956 9.088 7.867 0 1.278-.276 2.783-1.338 4.121-1.001 1.338-2.283 2.175-6.074 3.233-.614.112-3.511.893-4.128 1.061-2.225.613-9.196 2.562-9.196 10.422 0 6.079 4.96 11.259 12.71 11.259 6.47 0 11.261-3.456 12.208-10.425-.387-.167-.999-.386-1.394-.556-1.114 2.174-3.728 7.304-10.2 7.304" fill="#6a689d"/></g><path d="M276.043 40.935h-1.927V28.309h-4.367V27.05h10.638v1.259h-4.344z" fill="#6a689d"/><g clip-path="url(#D)" transform="matrix(.352778 0 0 -.352778 -29.36758 633.13429)"><path d="M925.821 1678.68h-5.912l-10.533 18.112c-1.059-.161-2.123-.334-5.02-.334l-2.619.117v-17.895h-5.354v39.356h10.596c5.684 0 8.53-.506 11.036-2.235 2.506-1.723 3.849-4.737 3.849-7.803 0-2.343-.733-4.512-2.006-6.295-1.843-2.459-4.016-3.292-5.301-3.794zm-24.084 19.9c9.084-.114 14.604 3.45 14.604 9.085 0 1.338-.395 3.009-1.613 4.401-1.782 2.065-4.24 2.564-7.523 2.564h-5.468z" fill="#6a689d"/></g><path d="M313.656 39.736v1.199h-9.4V27.03h8.496v1.22h-6.609v4.837h5.842v1.18h-5.842v5.468zm16.574 0v1.199h-9.401V27.03h8.496v1.22h-6.609v4.837h5.842v1.18h-5.842v5.468zm11.327 1.199h-1.926V28.309h-4.367V27.05h10.639v1.259h-4.346z" fill="#6a689d"/><g clip-path="url(#E)" transform="matrix(.352778 0 0 -.352778 -29.36758 633.13429)"><g fill="#6a689d"><path d="M1108.698 1680.853c-3.849-3.123-8.141-3.343-10.539-3.343-12.985 0-19.117 10.083-19.117 20.678 0 11.089 6.625 21.016 19.51 21.016 4.68 0 8.083-1.448 10.365-3.404 3.126-2.619 3.738-5.63 4.019-7.022-.391-.164-1.062-.503-1.455-.667-1.224 1.947-4.515 7.245-12.431 7.245-9.644 0-14.323-7.359-14.323-17.003 0-10.81 6.521-17.001 14.386-17.001 7.801 0 11.529 5.579 12.651 7.244.45-.162 1.114-.441 1.505-.614-.501-1.617-1.395-4.508-4.571-7.129m57.362-2.177h-5.735l-5.083 11.207h-17.614l-5.073-11.207h-4.796l18.455 39.356h1.559zm-12.379 14.606l-5.964 13.208c-.782 1.674-1.005 2.787-1.172 3.568-.274-1.225-.391-1.669-1.17-3.341l-6.184-13.435zm60.147-14.602h-5.912l-10.534 18.112c-1.06-.161-2.122-.334-5.019-.334l-2.621.117v-17.895h-5.35v39.356h10.592c5.686 0 8.53-.506 11.036-2.235 2.51-1.723 3.851-4.737 3.851-7.803 0-2.343-.735-4.512-2.015-6.295-1.836-2.459-4.009-3.292-5.293-3.794zm-24.086 19.9c9.086-.114 14.604 3.45 14.604 9.085 0 1.338-.391 3.009-1.611 4.401-1.786 2.065-4.24 2.564-7.527 2.564h-5.466z"/></g><path d="M1221.915 1680.691v-1.055h-2.037v-5.307h-1.262v5.307h-2.011v1.055zm6.879-6.362l-.238 3.739-.048 1.78h-.071l-.539-1.894-1.143-3.532h-1.305l-1.15 3.624-.448 1.802h-.071l-.039-1.78-.236-3.739h-1.215l.467 6.362h1.895l1.098-3.114c.16-.491.255-.955.42-1.615h.023l.446 1.57 1.094 3.159h1.821l.495-6.362z"/></g></svg>