<svg xmlns="http://www.w3.org/2000/svg" width="300" height="65" fill="#005cab"><path d="M100.266 53.789h12.179V11.847h-12.179v41.942zm31.429-29.062v16.731c0 1.673 0 3.961-2.172 3.961-2.117 0-2.117-2.287-2.117-3.961V24.727h-12.149v20.192c0 5.633 2.361 9.529 8.828 9.529a18.44 18.44 0 0 0 1.824-.1c.05-.005.106-.015.162-.02s.121-.015.182-.02l.376-.05.092-.015.466-.08c.021-.005.041-.005.061-.01a9.58 9.58 0 0 0 .493-.1c.019-.005.045-.01.07-.015.154-.03.306-.07.463-.11.035-.01.077-.015.117-.03a7.04 7.04 0 0 0 .405-.11c.061-.02.122-.035.178-.055.112-.03.219-.07.33-.105.086-.03.173-.055.259-.085.072-.025.138-.055.208-.08l.376-.145c.776-.325 1.538-.729 2.223-1.249v1.718h11.473v-29.06h-12.148 0 0 0 0 0 0zm29.231 5.759c2.66 0 3.142 3.406 3.142 5.559h-6.117c-.137-2.212.259-5.559 2.975-5.559m-.198 15.682c-1.31-.639-2.142-1.493-2.589-2.992-.112-.519-.117-.754-.137-1.179h16.047l.173-3.136c0-8.995-3.995-14.748-12.717-14.868-9.859-.13-15.088 4.755-15.088 14.209 0 11.192 6.721 15.207 13.27 16.106.939.105 2.036.175 3.122.165.848-.01.97-.05 1.782-.11 2.02-.295 5.32-.924 7.955-3.351l-4.219-6.358s-.305.29-.817.679c-3.3 2.242-6.782.834-6.782.834M82.031 32.708c2.564 0 3.406 3.022 3.406 6.038 0 3.076-.843 6.313-3.498 6.313-2.614 0-2.995-3.236-2.995-5.978 0-3.351.381-6.373 3.087-6.373m4.934-8.725c-.015 0-.025.005-.041.005-1.142-.035-4.66.09-7.645 2.517V11.852H67.106v41.932h11.306v-1.903c3.127 2.587 6.833 2.577 8.011 2.577h.203c8.067 0 11.062-7.262 11.062-15.712 0-7.886-3.142-14.763-10.722-14.763m-51.111.49c0 2.812-2.315 5.089-5.173 5.089s-5.168-2.277-5.168-5.089 2.31-5.084 5.168-5.084 5.173 2.277 5.173 5.084m-9.869 6.842h9.391v22.479h-9.391V31.315zM49.81 46.807c-2.011 0-2.625-2.417-2.625-4.49 0-1.898.615-4.53 2.66-4.53 2.157 0 2.426 2.632 2.426 4.66 0 1.943-.269 4.36-2.462 4.36m-9.585 15.902c1.548.45 3.858.929 6.594.834 9.518-.16 14.474-5.494 14.474-13.779V31.315h-8.798v1.463c-2.126-1.743-5.127-1.953-6-1.973l-.599-.01c-6.005 0-8.351 5.484-8.351 11.821 0 5.958 2.463 11.177 8.276 11.177 2.65 0 4.924-1.334 6.376-3.751h.075c0 .055-.004.1-.004.155-.229 4.195-2.143 6.422-7.011 6.422-1.071 0-2.133-.16-3.209-.574l-1.822 6.662h0 0 0zM11.741 37.533c1.98 0 2.625 2.327 2.625 4.655 0 2.372-.645 4.874-2.701 4.874-2.01 0-2.31-2.502-2.31-4.615 0-2.587.3-4.914 2.386-4.914m3.802-6.737c-.01 0-.015.005-.025.005-.883-.025-3.599.07-5.904 1.943V21.436H.222v32.358h8.722l.005-1.468c2.406 1.993 5.269 1.988 6.178 1.988h.157c6.224 0 8.539-5.604 8.539-12.126 0-6.078-2.427-11.392-8.28-11.392m194.494 5.059v10.328c0 1.029 0 2.442-1.34 2.442-1.305 0-1.305-1.413-1.305-2.442V35.855h-7.494v12.461c0 3.476 1.457 5.878 5.443 5.878l.701-.025.101-.005.274-.025.376-.05c.066-.005.131-.015.197-.025l.468-.085.198-.04c.152-.03.304-.075.457-.115l.254-.07c.122-.035.248-.09.37-.13l.346-.125.171-.08a6.5 6.5 0 0 0 1.204-.689v1.059h7.077V35.855h-7.498 0 0 0zm17.56 13.119a.81.81 0 0 0 .132-.479c0-2.207-8.686-.07-8.686-6.992 0-5.159 5.036-6.103 8.711-6.058 1.863 0 4.026.564 5.965 1.194l-1.432 4.46s-4.549-1.938-6.158-.559c-.168.15-.279.35-.279.659 0 1.858 8.722-.03 8.722 6.712 0 5.134-5.056 6.293-8.6 6.293-3.706 0-5.833-1.089-6.681-1.498l1.416-4.455c.508.22 5.396 2.207 6.889.724"/><path d="M188.558 40.804c1.579 0 2.097 1.858 2.097 3.716 0 1.898-.518 3.895-2.153 3.895-1.609 0-1.843-1.998-1.843-3.686 0-2.068.234-3.925 1.899-3.925m3.036-5.379h-.02c-.706-.02-2.873.06-4.711 1.553v-9.025h-7.498v25.83h6.96v-1.169c1.929 1.593 4.214 1.588 4.94 1.583l.122.005c4.975 0 6.818-4.48 6.818-9.684 0-4.854-1.934-9.094-6.61-9.094m59.486-27.347c.284-.659.655-1.383 1.132-1.948a12.2 12.2 0 0 1 1.63-1.413c.883-.564 2.325-.694 3.63-.504.117.02 1.031.295 2.041.829.665.355 1.665 1.079 1.797 1.693.218.999.122 1.373-.056 2.202-.254 1.194-1.878 1.878-2.036 1.938-.736.35-1.411.664-2.005.4-.452-.2-1.376-.819-1.726-1.194-.401-1.209-.086-1.748-.086-1.748.03.06.31.639.487.844.335.39.777.904 1.64.969.457.035 1.883-.425 1.954-.494.513-.499.624-1.373.462-2.163-.223-.564-.797-1.753-.924-1.813-.284-.19-1.259-.415-1.482-.449-.604-.095-1.117-.155-1.721-.03-.543.155-2.548 1.139-2.838 1.358-.35.25-.767 1.084-.954 1.463-.036.06-.31 1.723-.376 2.402-.076.759.157 1.863.376 2.427.32.579 1.706 1.483 2.325 1.838.31.17 1.741.454 2.005.529.655.19 1.67.43 2.234.35.873-.115 1.69-.295 2.518-.579.096-.03 1.213-.439 1.482-.624.944-.639 1.96-1.403 2.279-1.943.132-.25.67-1.663.802-2.013.32-1.099.817-2.492.188-3.446-.503-.769-.66-1.833-1.427-2.652-.909-.969-2.218-1.858-2.284-1.888-.706-.355-1.071-.629-1.706-.884-.289-.125-1.548-.225-1.838-.225-1.117-.065-2.127-.04-3.264.275-.406.11-1.883.674-2.234.894-.731.534-1.178 1.039-1.721 1.733-.162.19-.736 1.129-.827 1.289-.127.205-.32 1.378-.345 1.648-.051.509.056.949.036 1.373 0 .06.132.724.178.989.03.205.127.425.178.629l.178-.994m47.109 3.152c.223 0 1.457.439 1.635.435v9.894h-34.079c.178-.23.787-.654.904-.759l1.513-1.189c.35-.42 1.305-1.129 1.457-1.249.208-.175 1.655-.439 2.218-.759.188-.11 1.188-.589 1.609-.769.523-.22 2.081-.879 2.63-.879.325 0 1.386-.38 1.614-.649l3.675-.21c.528 0 3.168-.1 3.95-.255.797-.155 4.442-2.407 5.132-2.552.244-.045 1.543-.125 1.696-.225a5.87 5.87 0 0 1 1.894-.724 27.16 27.16 0 0 1 2.315-.165l1.838.055"/><path d="M233.075 24.657l8.344.03c10.881 0 15.449.575 20.373 1.094 2.28.245 22.078 2.712 22.078 14.174 0 9.644-14.244 13.619-17.778 13.619-6.213 0-21.307-.005-21.307-.005 4.981-1.314 30.587-6.198 31.339-14.289 1.385-14.938-40.668-14.258-43.049-14.333v-.29h0 0 0zm0 0"/></svg>