<svg xmlns="http://www.w3.org/2000/svg" viewBox="29.83 16.55 216 91.03" fill-rule="evenodd" stroke-linejoin="round" stroke-miterlimit="2"><path d="M82.869 49.891s23.553-39.464 56.439-7.327 47.423 7.554 47.423 7.554l-38.755.026m45.29-24.382s-23.553 39.466-56.441 7.325C103.938.953 89.401 25.535 89.401 25.535l38.758-.025" fill="#d03339" fill-rule="nonzero"/><g fill="#231f20"><path d="M29.832 62.593h7.539l17.098 33.721h.344l16.784-33.721h7.414v43.942h-7.414V70.543h-.251l-18.015 35.992h-1.513l-18.233-35.74h-.505v35.74h-3.248m90.755-43.942v2.84H97.432v15.708h15.488v2.84H97.432v19.716h23.155v2.838H90.05V62.593" fill-rule="nonzero"/><path d="M159.626 62.593v2.84h-15.898v41.102h-7.381V65.433h-15.93v-2.84" fill-rule="nonzero"/><path d="M166.59 83.665h4.26c1.661 0 3.19-.221 4.59-.663s2.613-1.067 3.643-1.876a8.6 8.6 0 0 0 2.412-2.951c.579-1.158.867-2.448.867-3.88 0-1.302-.231-2.506-.693-3.611s-1.103-2.049-1.923-2.84-1.797-1.404-2.935-1.845-2.376-.662-3.722-.662h-6.499v18.328zm-7.379-21.072h15.203c2.651 0 4.969.283 6.955.851s3.645 1.364 4.968 2.383 2.325 2.229 2.998 3.626 1.01 2.93 1.01 4.59c0 1.368-.258 2.645-.773 3.834s-1.246 2.26-2.193 3.216-2.081 1.79-3.405 2.492-2.787 1.247-4.386 1.626l15.993 21.324h-8.549l-15.266-20.661h-5.176v20.661h-7.379m62.394-1.168c2.504 0 4.722-.525 6.656-1.577s3.56-2.512 4.875-4.384 2.314-4.096 2.994-6.671c.686-2.578 1.027-5.391 1.027-8.439 0-3.008-.341-5.769-1.027-8.282-.68-2.51-1.68-4.679-2.994-6.498s-2.938-3.233-4.875-4.242-4.152-1.513-6.656-1.513c-2.564 0-4.821.502-6.766 1.513s-3.569 2.425-4.873 4.242-2.286 3.988-2.95 6.498-.995 5.274-.995 8.282c0 3.048.333 5.861.995 8.439s1.645 4.8 2.95 6.671 2.929 3.332 4.873 4.384 4.202 1.577 6.766 1.577m0 2.209c-2.271 0-4.446-.279-6.528-.836s-4.02-1.34-5.804-2.35a23.92 23.92 0 0 1-4.891-3.643 22.8 22.8 0 0 1-3.755-4.717 23.41 23.41 0 0 1-2.397-5.551c-.566-1.977-.85-4.038-.85-6.183 0-2.104.284-4.121.85-6.059s1.368-3.741 2.397-5.423 2.284-3.213 3.755-4.591a24.14 24.14 0 0 1 4.891-3.547c1.784-.991 3.722-1.754 5.804-2.289s4.257-.803 6.528-.803 4.449.267 6.529.803 4.018 1.298 5.807 2.289c1.786.985 3.416 2.169 4.889 3.547a22.03 22.03 0 0 1 3.752 4.591c1.032 1.682 1.831 3.49 2.398 5.423s.852 3.955.852 6.059c0 2.125-.282 4.18-.852 6.167a23.21 23.21 0 0 1-2.398 5.567 22.82 22.82 0 0 1-3.752 4.717c-1.473 1.42-3.103 2.635-4.889 3.643s-3.725 1.793-5.807 2.35a25.15 25.15 0 0 1-6.529.836" fill-rule="nonzero"/></g></svg>