<svg xmlns="http://www.w3.org/2000/svg" width="200" height="90" overflow="visible" xmlns:v="https://vecta.io/nano"><path d="M1.12 37.1C1.12 16.9 17.52.5 37.72.5s36.6 16.4 36.6 36.6-16.4 36.6-36.6 36.6-36.6-16.4-36.6-36.6M140 82.6c-1.98 1.22-2.77 1.6-4.01 1.96-.778.248-1.55.347-2.46.347-1.94 0-3.7-.928-4.59-2.43-.447-.768-.609-1.43-.695-3.09h14v-2.42c0-5.72-3.71-9.7-9.02-9.7-6.14 0-10.8 5.03-10.8 11.7 0 6.43 4.09 10.6 10.4 10.6a16.88 16.88 0 0 0 7.02-1.5 31.25 31.25 0 0 0 2.29-1.13l.134-.063-2.16-4.37-.139.093zm-7.14-11c2.42 0 3.44 1.17 3.6 4.13h-7.91c.466-2.62 2.03-4.13 4.31-4.13m-29.1 9.35l-7.27-21.2h-7.7v29.4h5.59v-18.5l6.57 18.5h5.6l6.55-18.3-.031 18.3h5.62v-29.4h-7.71l-7.22 21.2zm53.5 1.73l-.162.104c-1.39.913-2.18 1.28-2.81 1.28-.667 0-.931-.392-.931-2.85v-9.12h4.58v-4.23h-4.58v-6.41c0-.449-.168-.854-.168-.854l-5.3.854v6.42c-.241.036-3.14.543-3.14.543v3.68h3.14v12.8c0 3.2 1.36 4.68 4.3 4.68 1.5 0 3.18-.486 4.81-1.41l.689-.41 1.44-.877-.067-.114-1.79-4.07zm15.2-15.1c-1.6 0-2.91 1.21-4.88 4.51l-.2-4.18h-5v21.2h5.74v-9.8c0-1.52.419-2.69 1.42-3.89.791-.966 1.71-1.52 2.52-1.52.546 0 .972.171 1.52.604l.19.129 1.82-5.49-.057-.056c-.895-1.04-1.9-1.54-3.07-1.54m15.3-.27c-6.15 0-10.8 4.79-10.8 11.1 0 6.37 4.64 11.2 10.8 11.2 6.17 0 10.8-4.81 10.8-11.2 0-6.33-4.63-11.1-10.8-11.1m0 17.7c-2.66 0-4.84-2.95-4.84-6.61 0-3.56 2.23-6.55 4.84-6.55 2.64 0 4.85 2.99 4.85 6.55.001 3.65-2.18 6.61-4.85 6.61m6.96-17.8h.238v-1.78h.772v-.23h-1.79v.235h.778v1.78zm1.8-1.78l.639 1.78h.32l.629-1.79.003 1.79h.232v-2.02h-.416c-.042.118-.607 1.79-.607 1.79l-.616-1.79h-.413v2.02h.229v-1.78z"/><path d="M59.9 15.3v43.9h-9.23V34.4c-.357.974-5.37 15.4-7.03 20.3l-4.12-12.3 9.07-27.2h11.3zm-32.6 0H16v43.9h9.2V34.4l8.66 24.8h8.23l-14.8-43.9z" fill="#fff"/></svg>