<svg xmlns="http://www.w3.org/2000/svg" viewBox="5 4.71 240 36.58"><g fill-rule="evenodd"><path d="M189.594 8.368l31.376 32.57h17.121l-31.382-32.57h-17.115" fill="#ea7d09"/><path d="M172.415 8.368l31.314 32.57h17.241l-31.25-32.57h-17.305" fill="#f7cd30"/><path d="M155.357 8.368l31.383 32.57h17.115l-31.376-32.57h-17.122" fill="#3e78da"/><path d="M241.905 36.393c.414 0 .719.04.915.126.339.15.512.438.512.875 0 .311-.104.535-.328.679-.115.08-.271.132-.483.167.265.046.461.155.575.339.121.185.185.363.185.535v.253l.006.26c.006.092.017.149.034.178l.018.04h-.553c0-.005 0-.017-.006-.034 0-.006-.006-.022-.011-.034l-.012-.115v-.272c0-.402-.098-.667-.311-.794-.127-.075-.34-.109-.65-.109h-.466v1.357h-.587v-3.451h1.162m.633.545c-.144-.086-.386-.132-.708-.132h-.5v1.254h.529c.247 0 .432-.022.558-.074.225-.099.34-.276.34-.541 0-.253-.069-.42-.219-.507zm1.576 3.424a2.88 2.88 0 0 1-2.146.926 2.86 2.86 0 0 1-2.146-.926c-.581-.616-.874-1.358-.874-2.232 0-.869.293-1.605.886-2.221.587-.609 1.3-.915 2.135-.915s1.553.306 2.146.915a3.1 3.1 0 0 1 .886 2.221c-.001.868-.3 1.61-.887 2.232zm-3.986-4.148c-.507.529-.76 1.168-.76 1.916 0 .754.253 1.397.754 1.927s1.121.794 1.847.794a2.47 2.47 0 0 0 1.847-.794c.5-.529.753-1.173.759-1.927 0-.748-.259-1.387-.759-1.916a2.48 2.48 0 0 0-1.847-.794c-.72 0-1.335.265-1.841.794z"/></g><use href="#B"/><use href="#C"/><use href="#D"/><use href="#E"/><use href="#F"/><use href="#G"/><use href="#H"/><g fill-rule="evenodd"><path d="M91.43 15.968h8.195V8.633H86.14c-2.353 0-4.263 1.982-4.263 4.424v27.437h8.04V17.481c0-.834.65-1.513 1.456-1.513h.057"/><use href="#D"/></g><use href="#E"/><g fill-rule="evenodd"><path d="M69.735 15.968H48.694V8.633h26.334c2.353 0 4.26 1.982 4.26 4.424v27.437h-8.04V17.481c0-.834-.653-1.513-1.456-1.513h-.057M56.44 21.344c-5.089 0-9.213 4.28-9.213 9.56s4.125 9.562 9.213 9.562h14.808v-6.973h-14.46c-1.398 0-2.534-1.174-2.534-2.629s1.136-2.636 2.534-2.636h14.458v-6.884H56.44m86.342-5.376h-21.041V8.633h26.327c2.354 0 4.264 1.982 4.264 4.424v27.437h-8.037V17.481c0-.834-.65-1.513-1.455-1.513h-.058m-13.295 5.376c-5.09 0-9.215 4.28-9.215 9.56s4.125 9.562 9.215 9.562h14.808v-6.973h-14.457c-1.404 0-2.536-1.174-2.536-2.629s1.132-2.636 2.536-2.636h14.451v-6.884h-14.802M20.775 17.533V40.54h4.392V13.109c0-2.442-1.904-4.421-4.257-4.421H9.26C6.904 8.688 5 10.667 5 13.109V40.54h8.034l.029-22.751c0-.992.777-1.8 1.734-1.8h4.271c.958 0 1.735.808 1.735 1.8l-.028-.256"/><path d="M29.56 17.533V40.54h-4.398V13.109c0-2.442 1.91-4.421 4.263-4.421h11.65c2.35 0 4.26 1.979 4.26 4.421V40.54h-8.04l-.026-22.751c0-.992-.78-1.8-1.737-1.8h-4.266c-.958 0-1.734.808-1.734 1.8l.028-.256"/></g><use href="#B"/><use href="#C"/><use href="#D"/><use href="#E"/><use href="#F"/><use href="#G"/><use href="#H"/><defs ><path id="B" d="M29.563 17.513v23.011h-8.785V17.513c.026-.736-.751-1.545-1.709-1.545H14.8c-.958 0-1.734.809-1.734 1.804l-.029 22.752H5V13.089c0-2.442 1.904-4.421 4.26-4.421h11.653c2.35 0 4.251 1.979 4.251 4.421 0-2.442 1.91-4.421 4.263-4.421H41.08c2.355 0 4.26 1.979 4.26 4.421v27.435h-8.037l-.029-22.752c0-.995-.777-1.804-1.737-1.804h-4.263c-.875 0-1.588.673-1.711 1.545m99.924 3.831h14.802v6.884h-14.451c-1.404 0-2.536 1.18-2.536 2.636s1.132 2.629 2.536 2.629h14.457V17.481c0-.834-.65-1.513-1.455-1.513h-21.098V8.633h26.327c2.354 0 4.264 1.982 4.264 4.424v27.437l-8.037-.028h-14.808c-5.09 0-9.215-4.28-9.215-9.562s4.124-9.56 9.214-9.56zm-73.047 0h14.805v6.884H56.788c-1.398 0-2.534 1.18-2.534 2.636s1.136 2.629 2.534 2.629h14.46V17.481c0-.834-.653-1.513-1.456-1.513H48.694V8.633h26.334c2.353 0 4.26 1.982 4.26 4.424v27.437l-8.04-.028H56.44c-5.089 0-9.213-4.28-9.213-9.562s4.125-9.56 9.213-9.56zm53.221-12.711h9.763v7.335h-9.763V8.633zm1.507 24.526h8.307v7.335h-13.594c-2.353 0-4.263-1.979-4.263-4.424V4.712h8.042v26.934c0 .834.65 1.513 1.453 1.513h.055zM91.43 15.968c-.863 0-1.513.679-1.513 1.513v23.013h-8.04V13.057c0-2.442 1.91-4.424 4.263-4.424h13.485v7.335H91.43z"/><path id="C" d="M91.43 15.968c-.863 0-1.513.679-1.513 1.513v23.013h-8.04V13.057c0-2.442 1.91-4.424 4.263-4.424h13.485v7.335H91.43"/><path id="D" d="M111.168 33.159h8.307v7.335h-13.594c-2.353 0-4.263-1.979-4.263-4.424V4.712h8.042v26.934c0 .834.65 1.513 1.453 1.513h.055"/><path id="E" d="M109.661 8.633h9.763v7.335h-9.763z"/><path id="F" d="M56.44 21.344h14.805v6.884H56.788c-1.398 0-2.534 1.18-2.534 2.636s1.136 2.629 2.534 2.629h14.46V17.481c0-.834-.653-1.513-1.456-1.513H48.694V8.633h26.334c2.353 0 4.26 1.982 4.26 4.424v27.437l-8.04-.028H56.44c-5.089 0-9.213-4.28-9.213-9.562s4.125-9.56 9.213-9.56"/><path id="G" d="M129.487 21.344h14.802v6.884h-14.451c-1.404 0-2.536 1.18-2.536 2.636s1.132 2.629 2.536 2.629h14.457V17.481c0-.834-.65-1.513-1.455-1.513h-21.098V8.633h26.327c2.354 0 4.264 1.982 4.264 4.424v27.437l-8.037-.028h-14.808c-5.09 0-9.215-4.28-9.215-9.562s4.124-9.56 9.214-9.56"/><path id="H" d="M29.563 17.513v23.011h-8.785V17.513c.026-.736-.751-1.545-1.709-1.545H14.8c-.958 0-1.734.809-1.734 1.804l-.029 22.752H5V13.089c0-2.442 1.904-4.421 4.26-4.421h11.653c2.35 0 4.251 1.979 4.251 4.421 0-2.442 1.91-4.421 4.263-4.421H41.08c2.355 0 4.26 1.979 4.26 4.421v27.435h-8.037l-.029-22.752c0-.995-.777-1.804-1.737-1.804h-4.263c-.875 0-1.588.673-1.711 1.545"/></defs></svg>