<svg xmlns="http://www.w3.org/2000/svg" viewBox="25 25 400 192.38"><path d="M186.582 175.13V86.598s0-26.845-27.012-26.845c-26.845 0-26.845 26.845-26.845 26.845v69.262s0 19.27-19.276 19.27c-19.228 0-19.228-19.27-19.228-19.27V86.598s0-26.845-26.893-26.845c-26.928 0-26.928 26.845-26.928 26.845v126.745H25V67.37S25 25 67.328 25c42.334 0 42.334 42.37 42.334 42.37l.167 73.67s-.167 3.334 3.62 3.334c4.038 0 3.912-3.871 3.912-3.871V67.37s0-42.37 42.209-42.37c42.411 0 42.334 42.37 42.334 42.37l.078 88.491s-1.246 26.97 26.893 26.97c28.175 0 26.887-26.97 26.887-26.97l.035-88.491s0-42.37 42.256-42.37c42.286 0 42.286 42.37 42.286 42.37l.125 73.133s-.125 3.871 3.746 3.871c3.829 0 3.829-3.871 3.829-3.871V28.662h15.405V155.86s0 19.27-19.234 19.27c-19.27 0-19.27-19.27-19.27-19.27V86.598s0-26.845-26.887-26.845c-26.851 0-26.851 26.845-26.851 26.845v88.532s0 42.25-42.328 42.25c-42.292 0-42.292-42.25-42.292-42.25" fill="#cc3847"/><path d="M394.284 28.662H425v184.681h-30.716zm0 0" fill="#cf2645"/><path d="M71.205 175.131l-.041-73.091s0-3.871-3.835-3.871c-3.865 0-3.865 3.871-3.865 3.871v111.304H48.106V86.598s0-19.228 19.222-19.228c19.235 0 19.235 19.228 19.235 19.228v69.262s0 26.97 26.886 26.97c26.976 0 26.976-26.97 26.976-26.97V86.598s-.34-19.228 19.145-19.228c19.312 0 19.312 19.228 19.312 19.228v126.745h-15.358V102.039s0-3.871-3.954-3.871c-3.746 0-3.746 3.871-3.746 3.871v73.091s-.501 42.25-42.376 42.25-42.244-42.25-42.244-42.25m138.435-19.097V28.662h15.406v111.84s-.376 3.871 3.829 3.871c4.24 0 3.829-3.871 3.829-3.871V28.662h15.393V155.86s1.587 19.27-19.222 19.27c-20.773 0-19.235-19.097-19.235-19.097m92.368 26.797v-80.791s0-3.871-3.954-3.871c-3.751 0-3.751 3.871-3.751 3.871v111.304h-15.4V86.598s-.37-19.228 19.151-19.228c19.228 0 19.228 19.228 19.228 19.228v69.262s0 26.97 26.928 26.97 26.928-26.97 26.928-26.97V28.662h15.4V182.83s0 34.551-42.328 34.551c-42.203 0-42.203-34.551-42.203-34.551" fill="#cc3847"/></svg>