<svg xmlns="http://www.w3.org/2000/svg" viewBox="0 0 131 70"><defs><path id="A" d="M.86.22h3.642v3.71H.86z"/></defs><g fill="none" fill-rule="evenodd"><path d="M77.448 48.766H67.442l7.814-23.162h-13.21l2.54-7.569h33.92l-2.581 7.569H85.32zM22.87 18.319h9.324l2.303 18.678 16.685-18.962h10.554L51.342 48.77h-9.188l5.737-16.974L33.016 48.77l-6.17-.024-1.985-16.852L12.886 48.77H1.588zm99.038 8.166c-1.791-1.427-3.904-2.438-6.387-2.438-2.537 0-5.1 1.151-5.75 2.622-.422.97.154 1.753 1.738 2.402.473.183.866.274 4.164 1.106 6.505 1.564 8.36 4.095 6.41 8.522-3.053 6.908-10.8 10.96-20.973 10.96-5.033 0-8.678-1.195-12.025-3.454L95 39.527a13.41 13.41 0 0 0 8.789 3.36c3.161 0 5.737-1.194 6.535-2.993.734-1.657-.347-2.44-4.888-3.547-4.266-1.012-5.802-1.612-6.927-2.578-1.455-1.336-1.639-3.318-.45-5.99 2.724-6.174 10.286-10.365 18.655-10.365 4.345 0 7.838.56 11.285 2.171l-6.09 6.9z" fill="#de2b26"/><g transform="translate(125.81 23.181)"><mask id="B" fill="#fff"><use href="#A"/></mask><path d="M2.699 1.972c.252 0 .476-.024.476-.323 0-.247-.244-.276-.448-.276H2.32v.6h.379zm-.38 1.166h-.335V1.083h.78c.494 0 .747.173.747.59 0 .373-.228.526-.536.562l.575.903h-.38l-.532-.878H2.32v.878zm.37-2.595c-.804 0-1.43.63-1.43 1.531 0 .845.547 1.535 1.43 1.535.793 0 1.42-.626 1.42-1.535 0-.901-.627-1.531-1.42-1.531zm0 3.386C1.62 3.93.86 3.134.86 2.074A1.8 1.8 0 0 1 2.688.22c.972 0 1.816.741 1.816 1.855S3.66 3.93 2.688 3.93z" fill="#de2b26" mask="url(#B)"/></g><path d="M7.782 36.665v-.001l-.035.003-2.675.181c-.262.018-.14.301-.14.301l.764 1.436s.037.143.328.114l1.669-.219.066-.005v-.003l.018-.003 1.34-1.894-1.335.089zM39.41 19.724l.852.654s.268.126.36-.078l3.586-8.115c.169-.355-.042-.473-.042-.473l-1.217-.937s-.338-.191-.491.163l-3.153 8.43c-.093.217.105.356.105.356m2.083 1.66l.776.668s.204.178.36-.065l4.661-7.225s.193-.268-.055-.488l-1.205-1.043s-.2-.197-.386.123l-4.253 7.625c-.13.228.102.405.102.405m-29.156 7.321c.288.071.247-.143.247-.143l-.145-.864s-.023-.206-.294-.29l-2.02-.72-9.54-3.332c-.272-.09-.234.19-.234.19l.218 1.285s.018.192.225.256l8.853 2.791 2.69.827zm.498 1.121s-.03-.225-.28-.292l-3.204-.824-8.177-2.08c-.23-.05-.176.17-.176.17l.373 1.43s.01.12.266.2l7.295 1.61 3.893.847c.299.06.214-.18.214-.18l-.204-.88m-.808-3.233c.308.103.29-.114.29-.114a29.966 29.966 0 0 1-.045-.844s-.008-.19-.307-.308l-1.01-.437L.2 20.144c-.199-.085-.17.198-.17.198l.092 1.29a.34.34 0 0 0 .187.21l10.128 4.128 1.59.624zm21.022-10.677l.92.442s.263.105.271-.172l.102-6.773.025-3.398c0-.684-.257-.711-.257-.711a50.55 50.55 0 0 0-1.15-.56s-.404-.205-.38.463l.117 4.321.188 5.98c0 .426.164.408.164.408m3.36 1.445l1.063-7.888.214-1.686s.081-.485-.15-.623a55.96 55.96 0 0 0-1.174-.673s-.43-.32-.47.235l-.22 2.667-.614 7.208c-.026.324.157.417.157.417l.893.513s.271.02.3-.17m.892.903l.91.608s.245.179.333-.122l2.387-8.775.07-.259c.086-.323-.194-.466-.194-.466a57.414 57.414 0 0 0-1.144-.767s-.343-.247-.428.175l-.23.98-1.793 8.206c-.085.357.088.42.088.42m23.016 11.702a54.46 54.46 0 0 0-.77-1.258s-.118-.167-.498-.136l-.719 2.143 1.727-.339c.39-.076.26-.41.26-.41M36.42 55.742a20.327 20.327 0 0 1-.895-.339s-.214-.087-.194.24l.958 10.705c.04.37.214.413.214.413l1.32.506s.316.1.28-.232L36.69 56.068c-.025-.293-.27-.326-.27-.326m-4.363-1.982l-.842-.481s-.295-.227-.33.285l-1.298 9.362c-.05.378.162.498.162.498l1.314.746s.339.295.339-.272l.875-9.609c.058-.384-.22-.529-.22-.529m-6.299-4.343l-.84-.725s-.157-.245-.415.15l-4.545 7.005c-.202.303-.052.402-.052.402l1.3 1.137s.22.244.424-.11l4.15-7.325c.183-.33-.022-.534-.022-.534m17.617-26.345l.78.763s.19.208.424-.052l5.652-6.176c.253-.253.035-.476.035-.476a65.794 65.794 0 0 0-1.136-1.106s-.215-.235-.503.09l-5.255 6.52a.308.308 0 0 0 .003.437m18.789 10.234l-.61-1.161s-.143-.258-.513-.225l-3.241.354-.6 1.765 4.825-.302c.329-.05.139-.43.139-.43m-7.529 9.348s.054.245.26.324l7.504 2.686 3.982 1.407c.31.105.343-.212.343-.212l-.197-1.159s.003-.187-.31-.303l-3.53-1.155-7.91-2.515c-.346-.1-.265.214-.265.214l.123.713M34.272 54.864l-.882-.413c-.222-.089-.282.012-.285.375l-.177 9.948c0 .365.168.455.168.455l1.422.678s.23.093.23-.286l-.254-10.378c-.041-.33-.222-.38-.222-.38m-4.334-2.365l-.879-.575s-.235-.216-.324.134l-2.426 8.66c-.153.563.087.587.087.587l1.365.905s.216.194.336-.341l1.967-8.804c.099-.446-.126-.566-.126-.566M27.82 51.04l-.917-.682s-.193-.156-.343.223l-3.47 7.799c-.188.439 0 .516 0 .516l1.328 1.009s.225.264.401-.188l3.071-8.126c.16-.426-.07-.55-.07-.55m-4.021-3.376l-.866-.838s-.1-.156-.372.118l-5.612 6.136c-.198.197-.07.318-.07.318l1.313 1.276s.157.142.36-.063l5.2-6.451c.227-.309.047-.496.047-.496m-1.907-1.926l-.765-.838s-.143-.228-.449-.005l-6.61 5.143c-.212.163-.096.272-.096.272l1.294 1.419s.112.11.294-.048l6.264-5.53c.248-.232.068-.413.068-.413m-2.916-2.92l-1.4.757-2.624 3.719 5.05-3.15c.32-.203.138-.403.138-.403l-.726-.894s-.122-.192-.438-.03m36.152.995c-.394-.167-.327.138-.327.138l.052.738s.022.245.222.332l6.68 2.992 5.032 2.245c.29.126.27-.125.27-.125a27.18 27.18 0 0 0-.075-1.121s.02-.219-.131-.312l-4.716-1.993-7.007-2.894zM2.146 29.998c-.248-.036-.167.205-.167.205l.515 1.438s.01.163.292.197l5.542.654 3.386.406.884-1.255-3.932-.623-6.52-1.022zm1.319 3.418c-.296-.011-.16.253-.16.253l.61 1.383s.098.216.38.223l3.604.038 2.097.016 1.082-1.53-2.956-.151-4.657-.232zm15.631-19.363c.123.146.271.082.271.082l.666-.175s.163-.05.07-.218L12.415 1.809c-.146-.276-.365-.164-.365-.164l-.869.256s-.311.052-.144.345l8.058 11.807zm4.83-2.046l.564 1.382c.076.201.356.223.356.223l.773.081s.238.01.127-.18l-.749-1.99-3.786-10.041c-.093-.302-.397-.35-.397-.35l-1.012-.098s-.412-.054-.277.308l4.401 10.665zm1.804-.785l.778 2.39a.44.44 0 0 0 .283.254c.07.019 0 0 .865.184 0 0 .215.028.135-.196l-.873-3.068-2.513-8.703c-.113-.39-.426-.424-.426-.424l-1.013-.204s-.423-.102-.274.354l3.038 9.413zm2.03-.707l.87 3.605c.084.2.237.237.237.237l.892.27s.185.004.147-.228l-.83-4.24-1.385-7.127c-.079-.377-.326-.473-.326-.473a35.361 35.361 0 0 0-1.155-.345s-.396-.158-.23.557l1.78 7.744zm2.32-.567l.648 4.744c.05.317.23.35.23.35l.892.353s.243.13.218-.186l-.515-5.535-.538-5.42c-.044-.422-.345-.506-.345-.506a37.45 37.45 0 0 0-1.12-.435s-.36-.097-.323.324l.85 6.295.003.016zM.425 15.8l11.714 6.91c.283.127.278-.088.278-.088l.127-.694s.064-.154-.155-.299L.67 14.286c-.227-.15-.25.132-.25.132L.244 15.45s-.017.232.182.35m.544-2.755l11.6 7.95c.172.115.237-.106.237-.106l.204-.621s.086-.166-.1-.311l-11.476-8.29c-.244-.163-.294.07-.294.07l-.311.984s-.07.2.14.324m1.499-3.769c-.187-.144-.292.078-.292.078l-.418.849s-.075.167.1.323l11.285 8.829c.196.125.27-.051.27-.051l.278-.549s.123-.15-.052-.299L2.47 9.276zm11.495 8.628c.157.129.25 0 .25 0a11.5 11.5 0 0 1 .364-.49s.133-.143.013-.266L3.886 7.12c-.185-.185-.291.035-.291.035l-.514.708s-.171.202 0 .37l10.883 9.67zm1.006-1.234c.132.13.295-.038.295-.038l.22-.221.178-.164s.173-.08.03-.26L5.659 5.36c-.19-.224-.34-.085-.34-.085a14.584 14.584 0 0 0-.672.656s-.226.125-.025.325L14.97 16.67zm1.262-1.058c.098.099.213 0 .213 0l.499-.34s.157-.068.067-.221L7.636 3.83c-.177-.233-.35-.088-.35-.088l-.729.506s-.219.15-.052.354l9.727 11.009zm1.372-.857c.093.12.257 0 .257 0l.538-.25s.158-.067.087-.204L9.942 2.674c-.19-.303-.384-.156-.384-.156l-.796.375s-.256.1-.105.341l8.947 11.521zm4.704-1.898l.296.567c.091.14.274.139.274.139l.747-.012s.219-.006.13-.232l-.467-.993-5.227-11.121c-.17-.305-.372-.256-.372-.256a24.3 24.3 0 0 0-.979.015s-.348-.015-.21.283l5.808 11.61zM.189 18.733l11.09 5.53.743.364c.224.103.243-.12.243-.12l.036-.764s.017-.161-.19-.286l-.183-.101L.266 17.119c-.19-.109-.215.13-.215.13l-.049 1.208s-.03.178.187.276m20.561-5.171c.056.08.153.149.153.149s.105.041.266.013a7.83 7.83 0 0 1 .585-.081s.21-.022.15-.162l-.162-.295-6.54-11.863c-.123-.245-.428-.203-.428-.203a22.77 22.77 0 0 0-.922.133s-.272.072-.08.442l6.978 11.867M63.49 37.12c.449.02.301-.323.301-.323a42.29 42.29 0 0 0-.492-1.123l-.058-.12c-.134-.293-.249-.264-.249-.264l-6.185-.071-.512 1.506 6.84.377.355.018zm1.283 3.375c.418.067.337-.22.337-.22a44.34 44.34 0 0 0-.435-1.234s-.101-.334-.351-.353l-1.15-.123-7.198-.894-.444 1.309 7.613 1.259 1.628.256zm.975 3.334c.38.097.333-.207.333-.207a47.255 47.255 0 0 0-.311-1.176s-.028-.232-.273-.323l-2.445-.584-7.797-1.737-.402 1.184 8.024 2.077 2.87.766zm1.132 7.885l-5.439-2.76-6.271-3.148c-.284-.125-.284.093-.284.093l-.032.767c0 0-.007.232.217.334l5.918 3.158 5.64 3.04c.348.202.407-.07.407-.07a17.96 17.96 0 0 0 .042-1.044s.021-.25-.198-.37m-.315 2.844l-5.939-3.544-5.513-3.271c-.341-.185-.361.06-.361.06l-.1.623c0 0-.046.225.15.354l5.309 3.351 6.192 3.913c.318.205.369-.028.369-.028a31 31 0 0 0 .177-1.036s.087-.201-.284-.422m-.421 2.814l-6.434-4.456-4.987-3.411c-.275-.179-.32.026-.32.026a8.31 8.31 0 0 1-.18.608s-.088.195.159.365l4.752 3.455 6.454 4.706c.286.214.38 0 .38 0a18.12 18.12 0 0 0 .297-.934s.09-.214-.121-.359m-.921 2.47L58.7 54.686l-4.515-3.566c-.245-.202-.342.016-.342.016l-.277.578c0 0-.107.158.105.321l4.397 3.627 6.52 5.415c.212.174.332.025.332.025l.435-.89c0 0 .095-.19-.132-.37m-7.618-3.509l-4.233-3.761c-.214-.174-.31 0-.31 0l-.351.508c0 0-.107.17.06.299l4.136 3.888 6.338 5.947c.224.21.376-.06.376-.06l.475-.684c0 0 .142-.154-.068-.361l-6.423-5.776zm-1.21 1.577l-4-4.065c-.156-.174-.286-.042-.286-.042a8.95 8.95 0 0 1-.433.44s-.165.135 0 .311l3.966 4.23 5.954 6.302c.181.184.374-.074.374-.074l.549-.554c0 0 .2-.14-.018-.357l-6.106-6.192zm-1.301 1.47l-3.87-4.416c-.148-.189-.288-.075-.288-.075l-.506.374c0 0-.16.087-.005.294l3.853 4.655 5.28 6.34c.218.252.401.075.401.075a14.86 14.86 0 0 0 .7-.501s.209-.111.004-.355l-5.569-6.39zm-1.423 1.407l-3.773-4.926c-.118-.192-.287-.095-.287-.095a7.423 7.423 0 0 1-.565.297s-.187.065-.055.281l3.79 5.226 4.565 6.218c.136.208.35.092.35.092l.82-.4c0 0 .239-.073.032-.346l-4.877-6.347zm-1.562 1.329l-3.745-5.547c-.133-.214-.314-.116-.314-.116l-.591.188c0 0-.254.05-.087.312l3.764 5.902 3.666 5.724c.142.286.37.213.37.213a19.27 19.27 0 0 0 .864-.26s.345-.063.141-.364l-4.068-6.052zm-1.718 1.261l-3.667-6.324c-.12-.243-.34-.156-.34-.156l-.65.112s-.214.053-.074.314l3.66 6.736 2.789 5.074c.152.254.32.21.32.21l1.041-.164s.269-.053.107-.32l-3.186-5.482zm-1.909 1.181l-3.565-7.226c-.104-.235-.287-.217-.287-.217a15.43 15.43 0 0 1-.753.03s-.24-.012-.12.267l3.563 7.764 1.835 4.029c.17.358.355.327.355.327l1.13-.035c0 0 .274.015.09-.37l-2.248-4.569zm-2.139 1.072l-3.353-8.233c-.134-.297-.335-.29-.335-.29l-.8-.06c0 0-.241-.043-.115.276l3.295 8.856 1.062 2.848c.132.33.357.335.357.335a36.76 36.76 0 0 0 1.134.104s.314.03.18-.317l-1.425-3.518zm-2.395.941l-2.984-9.404c-.076-.281-.281-.286-.281-.286l-.846-.155c0 0-.282-.085-.164.255l2.815 10.037.4 1.39c.107.393.353.434.353.434l1.191.226c0 0 .323.09.187-.352l-.67-2.145zm-2.706.754l-2.358-10.503c-.098-.376-.284-.392-.284-.392l-.888-.253s-.252-.114-.188.274l2.114 11.178s.016.27.319.36l1.186.344s.359.106.264-.26l-.165-.748z" fill="#de2b26"/></g></svg>