<svg xmlns="http://www.w3.org/2000/svg" viewBox="9.99 12.98 580 64.03"><path d="M21.61 59.2L9.992 77.009h49.024c18.893 0 33.756-12.944 33.756-31.979 0-3.476-.724-7.308-2.624-10.878H69.334l.068.081c3.196 2.657 5.693 6.448 5.693 10.948 0 6.901-4.496 12.412-10.911 13.865l-.578.081-.471.044h-.429zm80.393-28.412l11.609-17.809H63.406c-18.895 0-33.756 12.944-33.756 31.981 0 3.473.722 7.304 2.622 10.876h20.812l-.066-.085c-3.196-2.655-5.691-6.446-5.691-10.944 0-6.901 4.495-12.416 10.91-13.867l.578-.081.473-.044h1.022z" fill="#e71b23"/><path d="M493.29 13.1l.021 13.894h29.735v49.902h17.104V26.994h40.55l9.293-13.892h-87.271zm-3.62 32.121V26.994c-1.281-7.661-6.984-12.303-17.104-13.892H408.18v63.793h17.22v-49.9h38.403c5.828 0 8.763 2.734 8.763 8.214v2.16c0 5.087-2.777 7.63-8.339 7.63h-28.567l-.001 13.903h25.781l8.88 17.993h19.245l-9.092-19.943c5.202-2.279 8.286-6.188 9.197-11.731M299.45 13.106h-90.158v63.783h17.115V26.987h28.133v49.902h17.104V26.987h19.466c5.553 0 8.341 2.556 8.341 7.641v42.261h17.113V26.766c-1.281-7.895-6.993-12.452-17.113-13.66m55.036 49.879h24.955l-16.796-35.997-23.206 49.9h-20.103l29.724-63.782h27.172l29.713 63.782h-58.272zm-147.98-35.98l-55.623-.011c-2.988 0-5.203.401-6.634 1.197s-2.13 2.342-2.13 4.609c0 1.834.689 3.138 2.088 3.931 1.388.806 3.465 1.199 6.253 1.199h38.943c9.919 0 17.104 5.721 17.104 13.67v11.392c0 7.958-7.1 13.902-17.104 13.902H96.159l9.287-13.918 75.172.017c2.999 0 5.214-.403 6.634-1.197 1.431-.795 2.151-2.333 2.151-4.622 0-3.561-2.788-5.341-8.35-5.341h-38.934c-10.12 0-17.124-5.658-17.124-13.447v-11.39c0-7.63 6.676-13.894 17.124-13.894h64.387z" fill="#231f20"/></svg>